<svg width="29" height="31" viewBox="0 0 29 31" fill="none" xmlns="http://www.w3.org/2000/svg">
    <path
        d="M6.33301 15.3956C6.77035 16.6092 6.92956 17.7079 7.16686 18.7955C7.9452 22.3633 9.68433 25.7601 10.0977 29.3936C10.1436 29.7967 10.4884 29.8675 10.9437 29.8956C15.2657 30.1622 19.6088 30.0984 23.9251 30.436C24.49 30.4802 24.7264 30.3614 24.8297 29.8768C25.6417 26.0642 26.5298 22.2619 27.3122 18.4455C27.5768 17.277 27.7126 16.092 27.718 14.9043C20.6207 16.0076 13.6033 16.6325 6.33301 15.3956Z"
        fill="#E54D25" />
    <path
        d="M4.09607 15.0625C5.62526 20.0232 5.73736 25.0596 7.00677 30.0037C7.85335 29.9507 8.62992 29.9021 9.40573 29.8536C9.26047 29.0629 9.1256 28.3572 9.00191 27.6503C8.64184 25.5926 7.66745 23.6551 7.17336 21.624C6.72078 19.7635 6.23369 17.9076 5.84407 16.0386C5.67741 15.2391 5.09405 15.0773 4.09607 15.0625Z"
        fill="#C63D12" />
    <path
        d="M10.3993 1.63497C10.0435 6.23932 10.7977 10.7347 11.0592 15.2769C11.4659 15.3022 11.878 15.4134 12.2071 15.251C12.501 10.6776 12.1417 6.1407 13.1646 1.63432C12.2468 1.5372 11.317 1.53742 10.3993 1.63497Z"
        fill="#EADC5C" />
    <path
        d="M2.12817 7.27932C3.15741 8.25555 3.8877 9.41151 4.26065 10.6548C4.58831 11.7542 4.82672 12.8709 5.09792 13.981C5.15713 14.2233 5.15827 14.4907 5.55672 14.5453C6.47869 14.6716 7.37777 14.931 8.32292 14.9033C7.89194 11.6709 5.65237 9.21062 3.20977 6.77112C2.89056 6.9211 2.53341 7.08891 2.12817 7.27932Z"
        fill="#DDCD54" />
    <path
        d="M8.23484 4.58105C7.57983 4.74155 6.98044 4.88843 6.37988 5.03559C6.64675 5.66689 6.91264 6.24208 7.13371 6.82814C8.07429 9.32551 8.74782 11.8827 9.14701 14.4719C9.24012 15.0723 9.56467 15.2973 10.2991 15.1256C10.4494 14.8288 10.3419 14.5341 10.3412 14.2436C10.337 12.4664 9.9256 10.7184 9.75426 8.95347C9.63952 7.77171 9.98389 6.5238 8.75959 5.53428C8.48421 5.31171 8.41551 4.9245 8.23484 4.58105Z"
        fill="#EADC5C" />
    <path
        d="M15.9046 15.327C15.594 12.7811 15.8952 10.2926 15.7939 7.80665C15.7762 7.37224 15.8779 6.95355 16.5143 6.81207C16.6176 6.79314 16.7094 6.74574 16.7736 6.6781C16.8378 6.61047 16.8704 6.5269 16.8657 6.44196C16.9578 5.80655 17.0759 5.17355 17.1858 4.53982C17.2313 4.27783 17.1148 4.14257 16.7735 4.06853C15.9899 3.89854 15.6188 4.17449 15.3075 5.19958C14.3613 8.31509 14.2045 11.4832 14.332 14.6694C14.3617 14.8913 14.412 15.1111 14.4825 15.327H15.9046Z"
        fill="#EADC5C" />
    <path
        d="M21.3168 14.8508C22.1624 15.0047 22.6131 14.8012 22.7301 14.1436C22.8066 13.7293 22.9129 13.3188 23.0487 12.9143C23.9976 10.0294 25.2431 7.2201 26.4378 4.39803C26.7018 3.77433 26.5437 3.62488 25.7283 3.63922C25.2206 3.64817 25.1399 3.91374 25.0194 4.19527C24.3411 5.77965 23.6392 7.35778 22.9862 8.94882C22.1993 10.8663 21.8285 12.8594 21.3168 14.8508Z"
        fill="#EADC5C" />
    <path
        d="M21.0899 4.03141C19.521 7.66197 18.9651 11.3523 18.9283 15.092C19.5924 15.2708 19.5931 14.9701 19.6439 14.6497C20.1119 11.6956 20.6058 8.74513 21.5762 5.86149C21.758 5.32139 21.8781 4.76791 22.0222 4.23703C21.7487 4.08708 21.4205 4.01471 21.0899 4.03141Z"
        fill="#DDCD54" />
    <path
        d="M23.3232 14.775C24.0274 14.5131 25.008 14.8989 25.1156 14.074C25.402 11.8788 26.3896 9.85302 27.3504 7.76689C26.8679 7.68257 26.4328 7.60653 25.9295 7.51855C24.9456 9.88302 23.8537 12.1914 23.3232 14.775Z"
        fill="#DDCD54" />
    <path
        d="M23.0296 3.76849C22.4593 5.68469 21.7674 7.53478 21.3863 9.42524C21.0158 11.2634 20.333 13.0942 20.611 14.9938C21.0687 14.5501 20.8934 14.0199 20.991 13.5325C21.5901 10.5392 22.8451 7.70631 24.1773 4.88935C24.5986 3.99869 24.3469 3.7547 23.0296 3.76849Z"
        fill="#EADC5C" />
    <path
        d="M13.9068 2.18798L13.768 2.16675C13.6379 2.98576 13.5023 3.80423 13.3787 4.62389C13.042 6.85682 13.2777 9.10779 13.0469 11.3465C12.9333 12.4491 13.0043 13.5647 13.0164 14.6742C13.0193 14.9376 12.9421 15.291 13.445 15.325C13.6668 15.2325 13.6562 15.0971 13.6757 14.9813C13.7193 14.7875 13.7389 14.5908 13.7344 14.3939C13.4816 11.6362 13.6736 8.86395 14.3055 6.14574C14.3443 5.98539 14.5145 5.77236 14.2909 5.6652C13.731 5.39693 13.9142 4.98362 13.9097 4.60805C13.9001 3.80142 13.9068 2.99468 13.9068 2.18798Z"
        fill="#DDCD54" />
    <path
        d="M17.9278 15.2839C18.3706 11.5103 18.763 7.72964 20.2092 4.09534C18.3867 5.67527 16.9018 12.5606 17.9278 15.2839Z"
        fill="#EADC5C" />
    <path
        d="M25.8594 14.3578C26.7383 14.0975 28.5268 8.95764 27.9842 8.0625C27.0356 10.1655 25.9968 12.1141 25.8594 14.3578Z"
        fill="#EADC5C" />
    <path
        d="M16.9879 15.4607C16.8958 12.622 16.5063 9.95415 17.7061 7.35915C17.0519 7.29081 16.5029 7.21001 16.566 7.89122C16.7623 10.0098 16.4455 12.1264 16.5317 14.2444C16.5463 14.6023 16.4639 14.9807 16.9879 15.4607Z"
        fill="#DDCD54" />
    <path
        d="M7.35002 9.77992C6.87871 8.22764 6.51478 6.65154 5.71409 5.15344C5.16896 5.40024 5.10467 5.63545 5.19656 6.05336C5.50532 7.45737 6.57991 8.5563 7.35002 9.77992Z"
        fill="#DDCD54" />
    <path
        d="M1.84348 7.87146C1.49639 8.18736 1.57164 8.43888 1.85724 8.73932C2.53423 9.44146 2.9929 10.263 3.1952 11.1358C3.38997 11.9798 3.61695 12.8194 3.85235 13.6568C3.91614 13.8837 3.85216 14.2207 4.45472 14.2307C3.78503 12.0453 3.66337 9.77238 1.84348 7.87146Z"
        fill="#EADC5C" />
    <path
        d="M27.4425 6.97774C27.7048 6.50135 27.7913 5.97456 27.6917 5.4599C27.3038 5.90018 27.5477 6.50666 26.9925 6.93195C26.7126 6.59983 26.8461 6.32272 26.9079 6.04555C26.9682 5.77573 27.1718 5.51658 27.0216 5.05859C26.624 5.65762 26.3563 6.30661 26.2302 6.97774H27.4425Z"
        fill="#EADC5C" />
    <path
        d="M4.32437 7.04404C4.47016 6.61398 4.2896 6.36348 4.20493 6.10805C3.81287 4.92512 4.41899 4.19341 5.94335 4.002C6.36371 3.93293 6.77852 3.8436 7.1855 3.73451C7.91395 3.56867 8.45461 3.65869 8.64807 4.34574C8.73819 4.64689 8.94203 4.91835 9.23171 5.12299C9.23171 3.93413 9.26258 2.74452 9.21928 1.55666C9.19604 0.919375 9.49087 0.672938 10.2838 0.671934C10.9574 0.671086 11.6336 0.578695 12.3083 0.648513C13.6859 0.791071 14.2533 1.30743 14.2641 2.40944C14.2692 2.92589 14.265 3.44241 14.265 3.99861C14.6707 3.93924 14.7069 3.65189 14.8469 3.46793C14.9529 3.3037 15.126 3.17366 15.3372 3.09954C15.5484 3.02542 15.7848 3.01172 16.0071 3.06073C17.5563 3.25651 17.6309 3.32149 17.4284 4.57556C17.3291 5.19025 17.2509 5.80714 17.1604 6.44229C17.6961 6.42257 17.6364 6.11653 17.7188 5.90395C18.0018 5.17383 18.3655 4.46929 18.7063 3.75688C19.0828 2.96981 19.7375 2.84965 20.5903 2.98293C21.2345 3.08358 21.8082 3.1254 22.4438 2.85628C23.0258 2.60984 23.634 2.90254 24.2117 3.13617C24.8782 2.53618 25.6923 2.5855 26.464 2.90595C27.238 3.22732 26.8827 3.78693 26.6938 4.26118C28.1378 4.72452 28.2304 4.84323 27.8997 6.1611C27.7784 6.64451 27.717 7.0315 28.2963 7.38766C28.875 7.74347 28.6968 8.29603 28.5449 8.76606C28.0977 10.1491 27.6013 11.5218 27.1273 12.8993C27.0377 13.1596 26.9625 13.4232 26.8813 13.6836C28.135 14.0057 28.1744 14.0078 28.0851 15.093C27.8015 17.9688 27.2951 20.8276 26.569 23.6529C26.0412 25.8533 25.6793 28.0798 25.2701 30.2978C25.1872 30.7472 25.0077 30.9742 24.3862 30.8843C22.4721 30.6073 20.5257 30.6098 18.5956 30.5819C15.5195 30.5375 12.4548 30.3183 9.38038 30.2854C8.64371 30.2776 7.90525 30.3078 7.16927 30.3432C6.09701 30.3947 5.78081 30.2426 5.60005 29.3901C5.24979 27.7382 4.82454 26.0876 4.65599 24.4217C4.34687 21.3668 3.59268 18.3696 3.0545 15.3449C2.78527 13.8317 2.34628 12.3489 1.98438 10.8523C1.78692 10.1017 1.40038 9.39149 0.8485 8.76515C0.34153 8.16275 0.431616 7.0816 1.08268 6.57748C1.55582 6.21111 2.18238 6.03919 2.78694 5.86037C3.21313 5.73429 3.37318 6.03402 3.5732 6.24526C3.79249 6.47686 4.01 6.70958 4.32437 7.04404ZM5.89 15.04C6.32732 16.2537 6.48656 17.3524 6.72382 18.44C7.50219 22.0078 9.24131 25.4046 9.65471 29.0381C9.70058 29.4412 10.0454 29.5119 10.5007 29.54C14.8226 29.8067 19.1658 29.7429 23.4821 30.0805C24.047 30.1247 24.2834 30.0059 24.3867 29.5212C25.1987 25.7086 26.0868 21.9063 26.8692 18.0899C27.1338 16.9214 27.2696 15.7364 27.275 14.5488C20.1777 15.6521 13.1603 16.277 5.89 15.04ZM3.6531 14.7069C5.18226 19.6677 5.2944 24.704 6.56378 29.6481C7.41038 29.5951 8.18692 29.5465 8.96276 29.498C8.81747 28.7073 8.68263 28.0016 8.55891 27.2947C8.19884 25.237 7.22449 23.2995 6.73038 21.2684C6.27782 19.4079 5.7907 17.552 5.40107 15.683C5.23441 14.8835 4.65108 14.7217 3.6531 14.7069ZM9.95627 1.27948C9.60046 5.88381 10.3547 10.3792 10.6162 14.9214C11.0228 14.9468 11.435 15.0579 11.764 14.8955C12.0579 10.3221 11.6986 5.78522 12.7216 1.27881C11.8037 1.18171 10.874 1.18194 9.95627 1.27948ZM1.68509 6.92376C2.71433 7.9 3.44463 9.05596 3.8176 10.2992C4.14525 11.3987 4.38363 12.5153 4.65484 13.6254C4.71404 13.8678 4.71518 14.1351 5.11366 14.1897C6.0356 14.3161 6.93471 14.5754 7.87986 14.5477C7.44888 11.3153 5.20928 8.85507 2.76671 6.41556C2.44748 6.56555 2.09033 6.73336 1.68509 6.92376ZM7.79175 4.22549C7.13676 4.38598 6.53737 4.53284 5.93679 4.68C6.20365 5.31133 6.46955 5.88651 6.69064 6.47258C7.63122 8.96993 8.30475 11.5271 8.70393 14.1163C8.79707 14.7167 9.12162 14.9417 9.85601 14.77C10.0063 14.4732 9.8988 14.1785 9.89812 13.888C9.89395 12.1109 9.48252 10.3628 9.31119 8.59788C9.19644 7.41615 9.54083 6.16823 8.3165 5.17872C8.04116 4.95615 7.97245 4.56894 7.79175 4.22549ZM15.4616 14.9715C15.151 12.4256 15.4522 9.93707 15.3509 7.4511C15.3331 7.01671 15.4348 6.598 16.0713 6.45652C16.1746 6.43759 16.2663 6.39019 16.3306 6.32256C16.3948 6.25493 16.4274 6.17137 16.4227 6.08644C16.5148 5.45101 16.6329 4.818 16.7428 4.18427C16.7882 3.92228 16.6718 3.78704 16.3305 3.71299C15.5469 3.54301 15.1757 3.81894 14.8645 4.84404C13.9183 7.95954 13.7615 11.1277 13.889 14.3139C13.9187 14.5358 13.969 14.7556 14.0395 14.9715H15.4616ZM20.8738 14.4953C21.7195 14.6491 22.1702 14.4457 22.2871 13.7881C22.3636 13.3737 22.47 12.9632 22.6057 12.5588C23.5546 9.67388 24.8001 6.86456 25.9948 4.04247C26.2589 3.41877 26.1007 3.26932 25.2853 3.28368C24.7776 3.29261 24.6969 3.5582 24.5764 3.83971C23.8981 5.4241 23.1962 7.00224 22.5432 8.59328C21.7563 10.5107 21.3855 12.5039 20.8738 14.4953ZM20.6469 3.67587C19.078 7.30642 18.5221 10.9967 18.4853 14.7365C19.1494 14.9152 19.1501 14.6146 19.2009 14.2941C19.6689 11.3401 20.1628 8.38958 21.1332 5.50597C21.3149 4.96585 21.4351 4.41237 21.5792 3.88148C21.3057 3.73154 20.9776 3.65918 20.6469 3.67587ZM22.8802 14.4195C23.5843 14.1576 24.5649 14.5434 24.6725 13.7186C24.959 11.5233 25.9465 9.49755 26.9073 7.41142C26.4248 7.32708 25.9897 7.25104 25.4864 7.16308C24.5025 9.52753 23.4106 11.8359 22.8802 14.4195ZM22.5866 3.41292C22.0163 5.32915 21.3244 7.17923 20.9433 9.06969C20.5727 10.9078 19.89 12.7386 20.168 14.6383C20.6257 14.1945 20.4504 13.6644 20.5479 13.1769C21.1471 10.1837 22.4021 7.35077 23.7343 4.53378C24.1556 3.64314 23.9038 3.39914 22.5866 3.41292ZM13.4637 1.83247C13.4175 1.82538 13.3712 1.81829 13.3249 1.81122C13.1948 2.63025 13.0592 3.44873 12.9356 4.26838C12.5989 6.50129 12.8346 8.75226 12.6039 10.991C12.4902 12.0935 12.5613 13.2091 12.5734 14.3187C12.5763 14.5821 12.499 14.9354 13.0019 14.9695C13.2238 14.877 13.2132 14.7416 13.2326 14.6258C13.2762 14.432 13.2959 14.2353 13.2914 14.0384C13.0386 11.2807 13.2305 8.50843 13.8624 5.79021C13.9013 5.62986 14.0714 5.41686 13.8478 5.30967C13.288 5.04142 13.4712 4.62809 13.4667 4.25252C13.457 3.44591 13.4637 2.63917 13.4637 1.83247ZM17.4847 14.9284C17.9275 11.1547 18.3199 7.37406 19.7661 3.73977C17.9436 5.31971 16.4587 12.205 17.4847 14.9284ZM25.4164 14.0023C26.2953 13.742 28.0838 8.60209 27.5412 7.70695C26.5926 9.80994 25.5538 11.7586 25.4164 14.0023ZM16.545 15.1052C16.4528 12.2666 16.0633 9.59866 17.2631 7.00364C16.6089 6.93532 16.0599 6.85453 16.123 7.53573C16.3194 9.65436 16.0025 11.7709 16.0887 13.8889C16.1033 14.2469 16.0209 14.6251 16.545 15.1052ZM6.90699 9.42434C6.43571 7.87206 6.07178 6.29598 5.27109 4.79786C4.72595 5.04466 4.66163 5.27987 4.75353 5.69778C5.06227 7.10179 6.13691 8.20074 6.90699 9.42434ZM1.40049 7.51601C1.05337 7.83191 1.12864 8.08341 1.41422 8.38387C2.09124 9.08599 2.5499 9.90753 2.75218 10.7803C2.94694 11.6244 3.17392 12.4639 3.40935 13.3013C3.47315 13.5283 3.40916 13.8652 4.01169 13.8752C3.34201 11.6898 3.22037 9.41691 1.40049 7.51601ZM26.9995 6.62216C27.2618 6.14576 27.3483 5.61897 27.2488 5.1043C26.8608 5.54458 27.1047 6.15108 26.5495 6.57635C26.2696 6.24423 26.4031 5.96712 26.4649 5.68997C26.5251 5.42016 26.7288 5.16098 26.5786 4.70302C26.181 5.30204 25.9133 5.95103 25.7872 6.62216H26.9995Z"
        fill="black" />
    <path
        d="M25.5284 16.6947C25.4927 17.0298 25.5266 17.2805 25.1718 17.3495C24.8683 17.4086 24.7178 17.254 24.6506 17.0411C24.6439 16.9992 24.6267 16.9589 24.6 16.9225C24.5733 16.8861 24.5376 16.8544 24.4952 16.8294C24.4528 16.8044 24.4045 16.7865 24.3532 16.7769C24.302 16.7674 24.2488 16.7662 24.197 16.7736C23.8169 16.7793 23.7825 16.5384 23.7881 16.3047C23.7762 16.2179 23.7977 16.1304 23.8497 16.0537C23.9017 15.9771 23.9817 15.9151 24.0789 15.876C24.3798 15.7757 24.4649 15.9432 24.6148 16.1279C24.8373 16.4021 25.6873 16.1682 25.5284 16.6947Z"
        fill="black" />
    <path
        d="M18.2589 27.2542C18.2875 26.8973 18.291 26.5248 18.7855 26.4578C19.1873 26.4033 19.2875 26.6966 19.262 26.9559C19.23 27.2801 19.3517 27.7293 18.7727 27.7937C18.3347 27.8425 18.2918 27.4978 18.2589 27.2542Z"
        fill="black" />
    <path
        d="M11.05 24.0058C11.0561 24.2816 11.0314 24.5632 10.6729 24.5251C10.175 24.4721 10.1655 24.0906 10.1486 23.7799C10.1346 23.5237 10.105 23.12 10.5337 23.1575C11.1502 23.2114 10.821 23.7662 11.05 24.0058Z"
        fill="black" />
    <path
        d="M9.27165 19.7949C9.2478 20.0255 9.25464 20.3024 8.86774 20.2765C8.39463 20.2447 8.32492 19.9237 8.3347 19.617C8.34198 19.39 8.43249 19.1257 8.77215 19.1359C9.29472 19.1517 9.21726 19.5236 9.27165 19.7949Z"
        fill="black" />
    <path
        d="M24.4131 20.2036C24.3392 20.4866 24.3171 20.8378 23.8391 20.8485C23.4798 20.8565 23.4097 20.5908 23.4867 20.3606C23.5769 20.0914 23.5818 19.7174 24.0711 19.7062C24.4784 19.6968 24.4007 19.9865 24.4131 20.2036Z"
        fill="black" />
    <path
        d="M20.4883 27.8244C20.4545 28.078 20.368 28.3296 19.9601 28.2992C19.5561 28.2691 19.5318 27.9908 19.5238 27.7405C19.5161 27.4956 19.6183 27.2774 19.978 27.2951C20.3532 27.3134 20.4737 27.542 20.4883 27.8244Z"
        fill="black" />
    <path
        d="M10.3324 20.8276C9.6393 20.3945 9.67785 19.9769 9.99689 19.4287C10.7037 19.8297 10.6277 20.2527 10.3324 20.8276Z"
        fill="black" />
</svg>