<svg width="47" height="33" viewBox="0 0 47 33" fill="none" xmlns="http://www.w3.org/2000/svg">
    <path
        d="M42.2932 13.7717C42.4656 13.1377 42.4092 12.4648 42.1336 11.8667C41.5824 10.6368 40.8543 9.50127 40.209 8.3215C39.0159 6.1171 37.0136 4.43669 34.6052 3.61848C32.0544 2.64181 29.359 2.07512 26.6233 1.94037C22.7201 1.80005 18.9096 2.01177 15.0849 3.01291C10.0311 4.33581 7.64197 7.97144 5.78337 12.2389C5.71973 12.4424 5.68375 12.6533 5.67633 12.866C5.57471 13.6194 5.81983 13.9068 6.68559 13.9045C18.2289 13.8728 29.7723 13.8838 41.3156 13.8797C41.6188 13.8796 41.9347 13.9588 42.2932 13.7717Z"
        fill="#EDC86B" />
    <path
        d="M6.01204 26.9898C5.78793 28.494 5.89091 30.0276 6.31424 31.4902C6.36944 31.7602 6.51775 32.0036 6.73437 32.1794C6.95098 32.3553 7.22276 32.4531 7.50423 32.4564C8.67613 32.532 9.85287 32.4887 11.0157 32.3272C11.2399 31.9758 10.9913 31.3856 11.6087 31.3042C12.1137 31.4993 11.7508 32.0552 12.0696 32.3318H36.0069C36.2858 32.0115 35.945 31.4633 36.4788 31.3057C37.0888 31.4208 36.7918 32.0349 37.0767 32.3423C38.1901 32.4133 39.2953 32.5668 40.4194 32.471C41.1688 32.4072 41.593 32.1031 41.7816 31.3554C42.1054 30.1162 42.2227 28.8341 42.1288 27.5584C42.0961 27.1439 42.0459 26.8641 41.5632 26.7936C41.1095 26.7273 40.6889 26.525 40.3809 27.1204C40.1946 27.4763 39.9148 27.7772 39.5703 27.9921C39.2257 28.207 38.8288 28.3282 38.4205 28.3431C37.1684 28.4481 35.9226 28.4215 34.7994 27.7673C34.3429 27.5015 33.9914 27.569 33.523 27.801C32.2987 28.4077 31.0155 28.9702 29.6029 28.4977C29.1086 28.3324 28.7487 28.2638 28.2442 28.5122C27.5942 28.8324 26.7319 28.9327 26.1975 28.4559C25.4592 27.7973 24.7568 27.4284 23.7716 27.6979C23.6778 27.708 23.5832 27.6886 23.5014 27.6424C23.0976 27.4575 22.843 27.6015 22.545 27.9108C21.6887 28.7993 20.694 28.9568 19.5916 28.4374C19.3746 28.3351 19.218 28.1383 18.9268 28.3076C17.8148 28.954 16.6239 28.7531 15.6104 28.2419C14.374 27.6182 13.3534 27.7347 12.0709 28.1629C10.6918 28.6234 9.0008 28.8091 7.94481 27.4324C7.31782 26.615 6.79699 26.6027 6.01204 26.9898Z"
        fill="#EDC86B" />
    <path
        d="M12.9905 18.4758C12.9045 18.4586 12.8176 18.4462 12.7302 18.4385C11.1125 18.4355 9.48724 18.5294 7.879 18.4076C6.00006 18.2651 5.02224 19.7729 5.19683 21.2177C5.28933 21.9832 5.54589 22.4028 6.47181 22.3892C10.2665 22.3335 14.0622 22.3418 17.8576 22.3435C25.7906 22.3469 33.7236 22.3547 41.6567 22.3669C41.9827 22.3671 42.3702 22.4815 42.5783 22.1022C42.769 21.752 42.8761 21.364 42.8914 20.9674C42.9068 20.5709 42.83 20.1761 42.6668 19.8127C42.3621 19.0538 41.783 18.4853 40.9556 18.4565C39.0019 18.3887 37.0442 18.4348 35.0662 18.4348C34.9612 18.8189 35.2641 19.4234 34.6475 19.4108C34.0208 19.398 34.4852 18.7602 34.2675 18.4718H13.7556C13.6483 18.8209 13.9929 19.3748 13.4369 19.4091C12.795 19.4488 13.1066 18.8346 12.9905 18.4758Z"
        fill="#84451A" />
    <path
        d="M43.7506 23.2017H4.3717C4.3766 23.68 4.68997 23.7405 5.00037 23.7904C5.64443 23.894 6.28717 24.0145 6.93542 24.0825C12.6 24.6774 18.1542 25.881 23.7259 26.9881C23.9019 27.0392 24.0879 27.0481 24.2682 27.0142C28.036 26.0716 31.8935 25.5735 35.7025 24.833C37.9234 24.4013 40.1949 24.2225 42.4385 23.8951C42.9008 23.8276 43.5234 23.9342 43.7506 23.2017Z"
        fill="#EDBD24" />
    <path
        d="M24.0779 14.6419C18.7231 14.6419 13.3682 14.6488 8.01346 14.6322C7.41714 14.6304 7.06777 14.7449 7.06366 15.4126C7.05975 16.0491 7.24272 16.3722 7.97804 16.3178C8.52808 16.2771 9.08979 16.4249 9.64633 16.4254C19.2352 16.4332 28.8241 16.4334 38.413 16.4259C39.0941 16.4254 39.7747 16.3408 40.4562 16.3133C40.7673 16.3007 40.8833 16.1252 40.9575 15.8694C41.1955 15.0491 40.869 14.6427 39.9556 14.6425C34.663 14.6415 29.3705 14.6413 24.0779 14.6419Z"
        fill="#E2616B" />
    <path
        d="M45.9227 25.4926C44.9268 25.4255 43.965 25.1104 43.1286 24.5773C42.8263 24.3787 42.5392 24.4516 42.235 24.502C38.6197 25.101 34.9809 25.5611 31.3958 26.3392C29.6587 26.7162 27.8952 26.9762 26.0941 27.298C26.7325 28.0875 27.5255 28.1944 28.3207 27.6211C28.6518 27.3824 28.9468 27.1896 29.3105 27.4899C29.9884 28.0497 30.7313 27.9796 31.5154 27.7808C32.3968 27.5573 33.1708 26.8988 33.9749 26.7918C34.8019 26.6818 35.6272 27.5179 36.5607 27.6606C36.622 27.6699 36.6813 27.6979 36.7424 27.7012C38.0749 27.7721 39.4128 27.8549 40.0342 26.3107C40.0838 26.18 40.1837 26.0734 40.3126 26.0139C40.4415 25.9543 40.5891 25.9464 40.7238 25.9919C41.1821 26.0742 41.635 26.1935 42.0962 26.25C43.3617 26.4048 44.6365 26.569 45.9227 25.4926Z"
        fill="#69E889" />
    <path
        d="M21.9272 27.3174C21.8184 27.2741 21.7065 27.2385 21.5925 27.2111C16.2909 26.3391 11.039 25.19 5.70805 24.4814C5.5896 24.4458 5.46512 24.4334 5.34177 24.445C5.21842 24.4567 5.09864 24.4921 4.98933 24.5492C4.19229 25.0853 3.28064 25.3381 2.18542 25.5327C2.69309 26 3.34759 26.2852 4.04218 26.3418C5.03711 26.4001 6.03515 26.3013 6.99794 26.049C7.56494 25.9245 7.93606 25.9754 8.16511 26.5821C8.39675 27.1954 8.93175 27.4967 9.58424 27.6402C10.8163 27.8992 12.1029 27.6919 13.185 27.0599C13.8166 26.7153 14.2264 26.7812 14.849 27.1163C15.9256 27.6955 17.1264 28.3088 18.3771 27.706C18.9847 27.4132 19.3392 27.2657 19.9192 27.7395C20.5353 28.2428 21.425 28.0007 21.9272 27.3174Z"
        fill="#69E889" />
    <path
        d="M23.9341 17.6981C30.3436 17.6981 36.7532 17.6944 43.1627 17.687C43.4483 17.6864 43.9836 17.9174 43.9749 17.3993C43.9667 16.9004 43.4394 17.1254 43.1474 17.1227C41.5984 17.1081 40.0483 17.131 38.5 17.1403C29.602 17.1936 20.7036 17.1837 11.8054 17.172C10.597 17.1703 9.38854 17.1777 8.17458 17.0693C6.94509 16.9594 5.69335 17.0872 4.45141 17.1131C4.25729 17.1172 4.06836 17.1505 4.05885 17.3942C4.0494 17.6364 4.21976 17.6942 4.42544 17.6969C4.61209 17.6993 4.79881 17.6978 4.98546 17.6978C11.3017 17.6978 17.6179 17.6979 23.9341 17.6981Z"
        fill="#EDBD24" />
    <path
        d="M41.2572 14.2241V15.8743C42.0053 15.8743 42.7114 15.883 43.4171 15.8716C44.04 15.8615 44.3129 16.1458 44.3268 16.7541C44.3401 17.3399 44.2253 17.7813 43.5194 17.8447C43.1856 17.8747 42.8553 17.9414 42.3936 18.011C43.3742 19.1752 43.3994 20.448 43.0924 21.7614C44.1692 22.2089 44.2612 22.5546 43.6121 23.7064C44.1466 24.1332 44.8148 24.1623 45.4479 24.2894C45.7418 24.3484 46.1147 24.2714 46.2124 24.6657C46.2554 24.8455 46.2424 25.0337 46.175 25.2061C46.1076 25.3785 45.989 25.5272 45.8343 25.633C45.0871 26.2458 44.1385 26.5734 43.1637 26.5556C42.9533 26.5559 42.743 26.581 42.4305 26.6013C42.6157 28.093 42.5183 29.6053 42.1433 31.0624C41.9225 31.9165 41.4789 32.3895 40.6229 32.5593C39.8581 32.704 39.0803 32.7722 38.3014 32.7628C28.933 32.7385 19.5646 32.6969 10.1961 32.6916C9.01477 32.6909 7.8373 32.7994 6.66346 32.5766C6.2617 32.531 5.88667 32.3566 5.59688 32.0806C5.30709 31.8045 5.11885 31.4424 5.06153 31.0506C4.72622 29.6099 4.53982 28.1788 4.79554 26.75C4.40605 26.4393 4.01521 26.5933 3.65717 26.5477C3.00344 26.4939 2.37229 26.2881 1.81619 25.9476C1.37572 25.6547 0.873393 25.3732 0.98716 24.7453C1.10695 24.0841 1.74004 24.3521 2.14148 24.236C2.64984 24.1355 3.14197 23.9682 3.60449 23.7387C3.49073 23.3509 3.14051 23.0501 3.19719 22.5953C3.26496 22.0515 3.5837 21.8749 4.07922 21.9148C3.83962 20.104 3.87183 19.9013 4.68848 17.9839C4.37523 17.9437 4.07073 17.8984 3.76476 17.8665C3.06441 17.7936 2.85134 17.3995 2.87474 16.7417C2.89953 16.0458 3.28097 15.8571 3.8949 15.8635C4.5454 15.8702 5.19604 15.865 5.91994 15.865V14.2729C4.5921 13.8595 4.09644 12.9854 4.66429 11.591C6.57882 6.8895 9.31943 3.1086 14.797 1.73772C19.0185 0.681207 23.2197 0.665573 27.4804 0.858798C30.3533 0.989073 33.0311 1.86266 35.6361 2.98146C37.1075 3.59452 38.3808 4.58762 39.3197 5.8544C40.5877 7.58964 41.6543 9.45766 42.4997 11.4239C42.6353 11.7651 42.6979 12.1299 42.6836 12.4957C42.6815 13.746 42.4985 13.9763 41.2572 14.2241ZM41.866 13.2717C42.0384 12.6377 41.982 11.9648 41.7063 11.3667C41.1552 10.1368 40.4271 9.00127 39.7818 7.8215C38.5886 5.6171 36.5864 3.9367 34.178 3.11848C31.6272 2.14181 28.9318 1.57513 26.196 1.44037C22.2929 1.30008 18.4823 1.51177 14.6577 2.51291C9.60386 3.83581 7.21475 7.47144 5.35613 11.7389C5.2925 11.9424 5.25651 12.1533 5.24909 12.366C5.14747 13.1194 5.39259 13.4068 6.25836 13.4045C17.8016 13.3728 29.345 13.3838 40.8884 13.3797C41.1915 13.3796 41.5075 13.4588 41.866 13.2717ZM5.58479 26.4898C5.36069 27.994 5.46367 29.5276 5.88699 30.9902C5.94219 31.2603 6.09051 31.5036 6.30712 31.6795C6.52373 31.8554 6.79551 31.9531 7.07698 31.9564C8.24887 32.032 9.42562 31.9887 10.5884 31.8272C10.8126 31.4758 10.5641 30.8856 11.1814 30.8043C11.6864 30.9993 11.3235 31.5553 11.6424 31.8318H35.5796C35.8586 31.5115 35.5177 30.9634 36.0515 30.8057C36.6616 30.9209 36.3645 31.5349 36.6495 31.8423C37.7629 31.9133 38.8681 32.0668 39.9922 31.9711C40.7415 31.9072 41.1658 31.6031 41.3543 30.8554C41.6781 29.6163 41.7954 28.3341 41.7015 27.0585C41.6688 26.644 41.6187 26.3642 41.136 26.2936C40.6823 26.2273 40.2616 26.025 39.9536 26.6205C39.7674 26.9763 39.4876 27.2772 39.143 27.4921C38.7984 27.707 38.4016 27.8282 37.9932 27.8432C36.7411 27.9482 35.4954 27.9215 34.3721 27.2674C33.9156 27.0015 33.5641 27.069 33.0957 27.3011C31.8714 27.9077 30.5882 28.4703 29.1757 27.9978C28.6813 27.8324 28.3214 27.7638 27.817 28.0123C27.167 28.3324 26.3047 28.4327 25.7703 27.956C25.032 27.2973 24.3296 26.9284 23.3444 27.198C23.2506 27.2081 23.1559 27.1886 23.0742 27.1424C22.6704 26.9575 22.4157 27.1016 22.1177 27.4108C21.2614 28.2994 20.2668 28.4569 19.1643 27.9374C18.9474 27.8352 18.7908 27.6384 18.4996 27.8076C17.3875 28.454 16.1966 28.2531 15.1832 27.7419C13.9467 27.1182 12.9262 27.2348 11.6436 27.663C10.2645 28.1235 8.57355 28.3091 7.51755 26.9324C6.89057 26.1151 6.36973 26.1027 5.58479 26.4898ZM12.5633 17.9758C12.4773 17.9587 12.3905 17.9462 12.3031 17.9386C10.6854 17.9355 9.06009 18.0295 7.45189 17.9076C5.57292 17.7652 4.5951 19.2729 4.76969 20.7178C4.86219 21.4832 5.11878 21.9029 6.04466 21.8893C9.83933 21.8335 13.6351 21.8419 17.4305 21.8435C25.3635 21.8469 33.2965 21.8547 41.2295 21.8669C41.5556 21.8671 41.943 21.9816 42.1511 21.6023C42.3419 21.252 42.449 20.864 42.4643 20.4675C42.4797 20.0709 42.4029 19.6761 42.2397 19.3128C41.9349 18.5538 41.3558 17.9853 40.5284 17.9566C38.5748 17.8888 36.617 17.9348 34.639 17.9348C34.534 18.3189 34.8369 18.9234 34.2203 18.9109C33.5936 18.898 34.0581 18.2602 33.8404 17.9718H13.3284C13.2212 18.321 13.5657 18.8748 13.0098 18.9092C12.3678 18.9489 12.6794 18.3346 12.5633 17.9758ZM43.3235 22.7018H3.94451C3.94941 23.1801 4.2628 23.2406 4.57321 23.2905C5.21727 23.3941 5.85998 23.5146 6.50822 23.5827C12.1728 24.1775 17.7271 25.3811 23.2987 26.4882C23.4747 26.5393 23.6607 26.5483 23.841 26.5143C27.6088 25.5717 31.4663 25.0736 35.2753 24.3331C37.4962 23.9014 39.7678 23.7226 42.0113 23.3952C42.4736 23.3278 43.0963 23.4343 43.3235 22.7018ZM23.6507 14.1419C18.2959 14.1419 12.941 14.1488 7.58628 14.1323C6.98996 14.1304 6.64059 14.2449 6.63648 14.9126C6.63257 15.5491 6.81557 15.8722 7.55086 15.8178C8.1009 15.7772 8.66261 15.9249 9.21915 15.9254C18.8081 15.9332 28.3969 15.9334 37.9858 15.926C38.6669 15.9254 39.3475 15.8408 40.0291 15.8133C40.3402 15.8007 40.4561 15.6253 40.5304 15.3694C40.7683 14.5491 40.4418 14.1428 39.5284 14.1426C34.2359 14.1415 28.9433 14.1413 23.6507 14.1419ZM45.4955 24.9927C44.4996 24.9256 43.5378 24.6105 42.7013 24.0774C42.3991 23.8788 42.1119 23.9517 41.8077 24.0021C38.1925 24.6011 34.5537 25.0612 30.9685 25.8393C29.2315 26.2163 27.4679 26.4763 25.6669 26.7981C26.3052 27.5876 27.0982 27.6945 27.8934 27.1212C28.2246 26.8825 28.5196 26.6897 28.8833 26.99C29.5612 27.5497 30.3041 27.4797 31.0881 27.2809C31.9696 27.0574 32.7436 26.399 33.5477 26.2919C34.3747 26.1819 35.1999 27.018 36.1334 27.1607C36.1947 27.17 36.254 27.198 36.3151 27.2013C37.6476 27.2722 38.9856 27.355 39.6069 25.8108C39.6565 25.6801 39.7565 25.5735 39.8853 25.514C40.0142 25.4544 40.1618 25.4465 40.2966 25.492C40.7548 25.5743 41.2078 25.6936 41.669 25.7501C42.9344 25.9049 44.2093 26.069 45.4955 24.9927ZM21.5 26.8175C21.3912 26.7742 21.2793 26.7386 21.1652 26.7112C15.8637 25.8392 10.6118 24.6902 5.28085 23.9815C5.1624 23.9459 5.03792 23.9335 4.91458 23.9451C4.79124 23.9568 4.67146 23.9922 4.56216 24.0493C3.76512 24.5854 2.85344 24.8382 1.75822 25.0328C2.26589 25.5001 2.92039 25.7853 3.61497 25.8419C4.6099 25.9002 5.60795 25.8014 6.57073 25.5491C7.13774 25.4246 7.50889 25.4756 7.73794 26.0821C7.96955 26.6955 8.50454 26.9969 9.15704 27.1403C10.3891 27.3993 11.6757 27.192 12.7578 26.56C13.3894 26.2154 13.7992 26.2813 14.4218 26.6164C15.4984 27.1957 16.6992 27.8089 17.95 27.2061C18.5575 26.9133 18.9119 26.7658 19.492 27.2396C20.1081 27.7429 20.9978 27.5008 21.5 26.8175ZM23.5069 17.1981C29.9164 17.1981 36.326 17.1944 42.7355 17.1871C43.0211 17.1864 43.5564 17.4174 43.5478 16.8993C43.5395 16.4004 43.0122 16.6254 42.7202 16.6227C41.1712 16.6081 39.6211 16.631 38.0728 16.6403C29.1748 16.6937 20.2764 16.6837 11.3782 16.672C10.1698 16.6704 8.96135 16.6777 7.74739 16.5693C6.51793 16.4594 5.26616 16.5872 4.02421 16.6131C3.8301 16.6172 3.64116 16.6505 3.63166 16.8942C3.6222 17.1364 3.79257 17.1942 3.99827 17.1969C4.1849 17.1993 4.37162 17.1978 4.5583 17.1978C10.8745 17.1978 17.1907 17.1979 23.5069 17.1981Z"
        fill="black" />
    <path
        d="M31.6274 5.54944C31.8848 5.6631 32.105 5.84431 32.2635 6.07294C32.4221 6.30158 32.5128 6.56872 32.5256 6.84473C32.5363 6.91449 32.5295 6.98573 32.5059 7.05237C32.4823 7.11902 32.4426 7.17907 32.3901 7.2274C32.3376 7.27574 32.2739 7.3109 32.2045 7.3299C32.135 7.3489 32.062 7.35116 31.9914 7.33649C31.3077 7.20847 31.2328 6.59712 31.1199 6.0791C31.0528 5.77088 31.3079 5.59923 31.6274 5.54944Z"
        fill="#F9F1C5" />
    <path
        d="M16.1111 6.12452C15.9006 6.56965 15.9168 7.22232 15.2128 7.33762C15.1422 7.35186 15.0691 7.34914 14.9998 7.3297C14.9305 7.31027 14.8671 7.27468 14.8149 7.226C14.7627 7.17732 14.7234 7.11699 14.7002 7.05018C14.6771 6.98338 14.6709 6.91208 14.682 6.84239C14.7474 6.28375 14.9704 5.75447 15.5854 5.58921C15.9098 5.50204 16.0738 5.77286 16.1111 6.12452Z"
        fill="#F9F1C5" />
    <path
        d="M29.5985 4.16721C29.5356 4.47678 29.3362 4.63758 29.0651 4.57562C28.5862 4.46142 28.1154 4.31674 27.6557 4.14249C27.61 4.12991 27.5679 4.10726 27.5326 4.07628C27.4973 4.0453 27.4697 4.00681 27.4519 3.96377C27.4341 3.92073 27.4267 3.87428 27.4301 3.82799C27.4336 3.7817 27.4478 3.7368 27.4718 3.69673C27.7768 3.2239 28.2338 3.41085 28.6448 3.49689C29.0595 3.58374 29.5217 3.64016 29.5985 4.16721Z"
        fill="#F9F1C5" />
    <path
        d="M18.9726 3.40051C19.3535 3.40219 19.6677 3.41639 19.7458 3.74149C19.8318 4.09981 19.522 4.18112 19.2489 4.26201C18.9534 4.34954 18.6609 4.44654 18.3665 4.53779C18.0757 4.62793 17.7861 4.62947 17.6569 4.31486C17.5043 3.94297 17.7677 3.74474 18.0779 3.63681C18.3961 3.52611 18.7313 3.4625 18.9726 3.40051Z"
        fill="#F9F1C5" />
    <path
        d="M28.9512 7.7864C28.9416 7.38715 29.0031 7.02179 29.4017 7.06214C30.0567 7.12847 30.0525 7.71564 30.1047 8.18218C30.1447 8.53907 29.992 8.90171 29.5528 8.8632C28.7928 8.79654 29.1129 8.12094 28.9512 7.7864Z"
        fill="#F9F1C5" />
    <path
        d="M18.26 7.77369C18.1358 8.19747 18.3555 8.81141 17.6647 8.86123C17.1675 8.89709 17.0508 8.48997 17.1061 8.10195C17.1682 7.66519 17.1876 7.10401 17.7937 7.06173C18.2632 7.02901 18.2568 7.45016 18.26 7.77369Z"
        fill="#F9F1C5" />
    <path
        d="M21.9613 3.40397C21.9548 3.78351 21.7788 4.01708 21.4564 3.9816C21.206 3.95484 20.9737 3.84102 20.8018 3.66085C20.6299 3.48069 20.5298 3.24614 20.5197 2.99987C20.5054 2.93891 20.5062 2.87546 20.522 2.81485C20.5379 2.75425 20.5684 2.69825 20.611 2.65156C20.6536 2.60487 20.7069 2.56885 20.7667 2.54652C20.8264 2.52419 20.8908 2.5162 20.9543 2.52322C21.1927 2.55532 21.4158 2.65628 21.5952 2.81318C21.7746 2.97008 21.9021 3.17578 21.9613 3.40397Z"
        fill="#F9F1C5" />
    <path
        d="M26.7032 3.06382C26.5282 3.5419 26.2871 3.9787 25.6933 3.97861C25.6214 3.98111 25.55 3.96634 25.4853 3.9356C25.4207 3.90486 25.3647 3.85908 25.3222 3.80228C25.2798 3.74547 25.2522 3.67936 25.242 3.60973C25.2317 3.54009 25.239 3.46905 25.2632 3.40282C25.3099 3.17762 25.427 2.97218 25.5983 2.81495C25.7696 2.65771 25.9866 2.55645 26.2192 2.52516C26.5638 2.47732 26.6899 2.74819 26.7032 3.06382Z"
        fill="#F9F1C5" />
    <path
        d="M36.8771 7.31747C36.8545 7.72795 36.7037 7.98539 36.3676 7.9019C35.8296 7.76824 35.6494 7.27846 35.5249 6.82073C35.448 6.53763 35.6873 6.35121 35.9723 6.40133C36.1995 6.44786 36.4072 6.56005 36.5686 6.72339C36.7299 6.88673 36.8374 7.09368 36.8771 7.31747Z"
        fill="#F9F1C5" />
    <path
        d="M11.6957 6.9047C11.4692 7.26076 11.3798 7.80845 10.812 7.90685C10.4721 7.96578 10.3032 7.69425 10.3447 7.3865C10.3548 7.14314 10.4523 6.91108 10.6201 6.73119C10.7879 6.5513 11.0152 6.43512 11.262 6.40311C11.5648 6.35817 11.7005 6.56345 11.6957 6.9047Z"
        fill="#F9F1C5" />
    <path
        d="M21.0828 5.66931C21.1651 5.87718 21.2156 5.93873 21.2045 5.98659C21.0754 6.54342 20.9774 7.13942 20.2543 7.25431C20.2075 7.26262 20.1594 7.25982 20.114 7.24615C20.0685 7.23248 20.0271 7.20834 19.9932 7.17576C19.9593 7.14317 19.9339 7.1031 19.9191 7.05891C19.9044 7.01471 19.9006 6.9677 19.9083 6.9218C19.9635 6.62594 20.103 6.35136 20.3108 6.12974C20.5186 5.90813 20.7862 5.74851 21.0828 5.66931Z"
        fill="#F9F1C5" />
    <path
        d="M26.0863 5.70996C26.7731 5.76655 26.9572 6.25779 27.2299 6.63667C27.2664 6.67665 27.2935 6.72394 27.3093 6.77523C27.3252 6.82652 27.3294 6.88058 27.3218 6.93364C27.3141 6.9867 27.2946 7.03748 27.2648 7.08243C27.235 7.12738 27.1955 7.16543 27.1491 7.19391C27.0601 7.25831 26.9491 7.28657 26.8393 7.2728C26.7295 7.25903 26.6294 7.20429 26.5599 7.12001C26.2213 6.7414 25.8768 6.34419 26.0863 5.70996Z"
        fill="#F9F1C5" />
    <path
        d="M33.4872 3.87915C33.3643 4.22112 33.2867 4.65301 32.7923 4.69265C32.44 4.72091 32.2962 4.45103 32.3621 4.15019C32.4462 3.76594 32.5936 3.37197 33.0942 3.35873C33.4051 3.35053 33.4969 3.57929 33.4872 3.87915Z"
        fill="#F9F1C5" />
    <path
        d="M14.8583 4.19611C14.8461 4.53444 14.6885 4.73939 14.4046 4.69302C13.888 4.6086 13.757 4.18171 13.7282 3.75144C13.7189 3.69037 13.726 3.62798 13.7487 3.57036C13.7714 3.51275 13.809 3.46189 13.8578 3.42275C13.9066 3.38361 13.965 3.35754 14.0272 3.34708C14.0894 3.33662 14.1533 3.34213 14.2126 3.36307C14.6704 3.46942 14.785 3.85254 14.8583 4.19611Z"
        fill="#F9F1C5" />
    <path
        d="M7.66035 29.843C8.03423 29.9403 8.08095 30.2351 8.0659 30.5441C8.0524 30.8213 7.98266 31.1395 7.62369 31.0975C7.25657 31.0546 7.17991 30.7251 7.19347 30.408C7.20572 30.1217 7.30206 29.8781 7.66035 29.843Z"
        fill="black" />
    <path
        d="M40.0278 30.4377C39.9818 30.7723 39.9222 31.1091 39.5279 31.0962C39.1757 31.0845 39.1343 30.759 39.1391 30.4874C39.1446 30.1837 39.1915 29.8399 39.6103 29.861C39.9619 29.8787 39.985 30.1957 40.0278 30.4377Z"
        fill="black" />
    <path
        d="M10.0142 30.9005C10.0248 31.1508 10.0338 31.4501 9.70211 31.4353C9.2725 31.4162 9.21353 31.0537 9.20017 30.7126C9.19044 30.4636 9.2278 30.1826 9.54125 30.1794C10.0427 30.1741 9.9248 30.6172 10.0142 30.9005Z"
        fill="black" />
    <path
        d="M37.6188 30.1641C38.0098 30.2234 38.0209 30.4988 38.0044 30.7729C37.9857 31.0819 37.9115 31.4015 37.5336 31.434C37.1898 31.4637 37.1576 31.1789 37.1984 30.9357C37.2485 30.6372 37.1674 30.2462 37.6188 30.1641Z"
        fill="black" />
    <path
        d="M6.9437 19.5205C7.29904 19.5872 7.33449 19.8587 7.3373 20.134C7.3402 20.4184 7.28607 20.7113 6.91062 20.6917C6.5842 20.6746 6.57537 20.392 6.57556 20.1495C6.57579 19.8785 6.58226 19.6 6.9437 19.5205Z"
        fill="black" />
    <path
        d="M40.298 20.7036C39.9784 20.6909 39.8752 20.4823 39.8719 20.2231C39.8681 19.9274 39.8459 19.5617 40.2674 19.5401C40.5789 19.5241 40.624 19.8155 40.6291 20.0618C40.6345 20.3279 40.664 20.6176 40.298 20.7036Z"
        fill="black" />
</svg>