<svg width="17" height="42" viewBox="0 0 17 42" fill="none" xmlns="http://www.w3.org/2000/svg">
<g clip-path="url(#clip0_2002_143)">
<path d="M13.9712 40.9962C14.2601 37.4304 14.4628 33.9375 14.5817 30.3243C11.3093 31.1041 8.1604 31.8544 4.9678 32.6151C4.86416 35.2661 5.26599 37.8842 5.49941 40.5135C5.53541 40.9193 5.75412 40.9992 6.09173 40.9986C8.68599 40.9943 11.2802 40.9962 13.9712 40.9962Z" fill="#C1272D"/>
<path d="M4.91623 31.7013C5.23565 31.835 5.593 31.84 5.91586 31.7152C8.29745 31.147 10.6785 30.5764 13.0589 30.0035C14.6933 29.6086 14.7539 29.6097 14.9131 27.8628C15.0778 26.0553 15.1062 24.2348 15.196 22.3822C12.1981 22.9914 9.34441 23.5739 6.54023 24.3874C4.92288 24.8565 4.91575 24.8299 4.91615 26.5467C4.91652 28.2823 4.91623 30.0177 4.91623 31.7013Z" fill="white"/>
<path d="M15.5754 16.1394H4.27881C4.49314 18.8205 4.70207 21.4344 4.91646 24.1163C6.82396 23.6198 8.5955 23.1654 10.3633 22.6964C11.7627 22.3251 13.221 22.2347 14.5987 21.763C14.9034 21.6587 15.2023 21.6047 15.2544 21.1582C15.4797 19.4953 15.587 17.818 15.5754 16.1394Z" fill="#C1272D"/>
<path d="M1.81019 15.0328C2.17958 15.0328 2.49878 15.0329 2.81795 15.0328C6.92721 15.0321 11.0364 15.032 15.1457 15.0325C16.4616 15.0337 16.4964 14.9954 16.2139 13.511H1.81749C1.68136 14.0084 1.67884 14.534 1.81019 15.0328Z" fill="#F4EFC3"/>
<path d="M2.51775 16.2355C2.49089 18.9608 2.94302 21.6881 2.95392 24.437C4.19999 24.4172 4.2622 24.3655 4.18221 23.2975C4.06762 21.7677 3.93196 20.2394 3.8073 18.7104C3.73736 17.8526 3.67137 16.9945 3.60221 16.1189C3.20388 16.0804 2.88845 16.0059 2.51775 16.2355Z" fill="#A8222B"/>
<path d="M14.9411 12.7018C14.9625 12.1704 14.7576 11.9841 14.2676 11.986C10.758 11.9996 7.24834 12.0004 3.73863 11.9886C3.24148 11.9873 3.06611 12.1981 3.13324 12.7018H14.9411Z" fill="#E2DCAF"/>
<path d="M2.99797 25.2678C2.90098 27.3657 3.31516 29.4356 3.44654 31.5235C3.4615 31.761 3.55496 31.9184 3.82955 31.8993C4.13069 31.8784 4.22831 31.7075 4.22572 31.4245C4.21725 30.4939 4.2127 29.5633 4.21206 28.6326C4.20998 27.4454 4.21156 26.2582 4.21156 25.0896C3.79863 25.0312 3.37791 25.093 2.99797 25.2678Z" fill="#EAE8E8"/>
<path d="M4.7579 40.8832C4.65282 38.3177 4.2546 35.82 4.23626 33.295C4.2341 32.9956 4.36 32.5521 3.82516 32.5923C3.35056 32.6279 3.53199 33.0373 3.52798 33.2967C3.48945 35.7962 3.82444 38.277 3.90595 40.771C3.90849 40.8493 3.97811 40.9253 4.01226 40.9939C4.13692 41.0322 4.26831 41.0421 4.39715 41.023C4.526 41.0039 4.64915 40.9562 4.7579 40.8832Z" fill="#A8222B"/>
<path d="M6.83848 1.36456C6.13121 1.34536 6.30295 1.74067 6.34889 2.09078C6.75462 5.18343 7.69006 8.16303 8.1707 11.2218C8.29982 11.2677 8.4374 11.2835 8.57328 11.2679C8.70917 11.2524 8.8399 11.2059 8.95582 11.132C8.06106 7.92175 7.35404 4.6602 6.83848 1.36456Z" fill="white"/>
<path d="M9.21629 10.8016C10.7503 10.8016 12.1967 10.7849 13.6426 10.8067C14.8395 10.8247 15.1038 11.0718 15.2033 12.1406C16.6898 12.5403 17.1119 14.0188 16.0589 15.1906C15.9151 15.3794 15.8479 15.6172 15.871 15.8549C15.5296 21.294 15.2133 26.7344 14.7217 32.1632C14.4773 34.8616 14.3239 37.5702 14.2036 40.2776C14.1672 41.0978 13.8799 41.2252 13.142 41.2345C10.0091 41.2739 6.87672 41.2725 3.74477 41.2302C3.09248 41.2214 2.88632 41.061 2.85506 40.3856C2.54732 33.7371 1.92023 27.1086 1.65162 20.4565C1.58855 18.8947 1.36017 17.3394 1.36393 15.77C1.36433 15.5979 1.34127 15.3181 1.24327 15.2701C0.237275 14.7768 0.670909 13.8558 0.654101 13.1184C0.635338 12.2943 1.38419 12.3243 1.93955 12.2105C2.096 11.0749 2.33395 10.836 3.476 10.8086C4.65218 10.7803 5.82953 10.8023 7.10496 10.8023C6.65655 8.66967 6.22032 6.64875 5.81021 4.62233C5.59561 3.56206 5.4161 2.494 5.24215 1.42584C5.16059 0.924883 5.17419 0.409115 5.8039 0.291053C6.44251 0.171302 6.89689 0.433789 7.04769 1.11702C7.40401 2.73116 7.59368 4.37858 8.02448 5.97946C8.44528 7.54311 8.80446 9.12399 9.21629 10.8016ZM13.538 40.5191C13.8269 36.9533 14.0295 33.4603 14.1485 29.8472C10.8761 30.627 7.72719 31.3772 4.53462 32.138C4.43095 34.7889 4.83281 37.407 5.0662 40.0364C5.10222 40.4422 5.32091 40.522 5.65852 40.5215C8.25279 40.5172 10.847 40.5191 13.538 40.5191ZM4.48304 31.2242C4.80246 31.3579 5.1598 31.3629 5.48267 31.2381C7.86426 30.6699 10.2453 30.0993 12.6258 29.5264C14.2601 29.1315 14.3207 29.1326 14.4799 27.3857C14.6446 25.5781 14.673 23.7577 14.7628 21.9051C11.765 22.5143 8.91123 23.0968 6.10707 23.9103C4.48969 24.3794 4.48256 24.3527 4.48296 26.0696C4.48336 27.8051 4.48304 29.5407 4.48304 31.2242ZM15.1423 15.6622H3.84571C4.06004 18.3434 4.26898 20.9572 4.48336 23.6391C6.39086 23.1426 8.1624 22.6882 9.93021 22.2192C11.3296 21.8479 12.7879 21.7575 14.1656 21.2858C14.4703 21.1815 14.7693 21.1275 14.8213 20.681C15.0466 19.0181 15.1539 17.3408 15.1423 15.6622ZM1.37708 14.5556C1.74647 14.5556 2.06567 14.5557 2.38484 14.5556C6.49409 14.555 10.6033 14.5548 14.7126 14.5553C16.0285 14.5565 16.0633 14.5182 15.7808 13.0338H1.38438C1.24827 13.5313 1.24575 14.0568 1.37708 14.5556ZM2.08464 15.7584C2.05781 18.4837 2.50991 21.211 2.52081 23.9599C3.76687 23.9401 3.82911 23.8884 3.7491 22.8204C3.63451 21.2905 3.49888 19.7623 3.37418 18.2332C3.30424 17.3755 3.23826 16.5174 3.1691 15.6418C2.77077 15.6033 2.45534 15.5288 2.08464 15.7584ZM14.5079 12.2246C14.5294 11.6933 14.3244 11.5069 13.8345 11.5088C10.3249 11.5224 6.81518 11.5232 3.30547 11.5114C2.80832 11.5101 2.63295 11.7209 2.70008 12.2246H14.5079ZM2.56485 24.7907C2.46787 26.8885 2.88205 28.9584 3.01343 31.0463C3.02839 31.2838 3.12188 31.4413 3.39644 31.4222C3.6976 31.4012 3.7952 31.2303 3.79261 30.9473C3.78414 30.0168 3.77959 29.0861 3.77898 28.1554C3.77687 26.9683 3.77847 25.781 3.77847 24.6125C3.36554 24.5541 2.94481 24.6158 2.56485 24.7907ZM4.32478 40.4061C4.2197 37.8406 3.8215 35.3429 3.80317 32.8179C3.80097 32.5184 3.9269 32.075 3.39204 32.1151C2.91743 32.1507 3.09887 32.5602 3.09486 32.8195C3.05632 35.319 3.39131 37.7998 3.47282 40.2938C3.47539 40.3721 3.54498 40.4481 3.57913 40.5167C3.70379 40.555 3.83518 40.565 3.96403 40.5459C4.09287 40.5267 4.21602 40.479 4.32478 40.4061ZM6.40534 0.887463C5.69807 0.868262 5.86981 1.26355 5.91575 1.61367C6.32148 4.7063 7.25692 7.68593 7.73756 10.7447C7.86667 10.7906 8.00425 10.8064 8.14014 10.7908C8.27603 10.7753 8.40676 10.7288 8.52268 10.6549C7.62793 7.44464 6.9209 4.18309 6.40534 0.887463Z" fill="black"/>
<path d="M5.60016 16.5625C5.87929 17.0009 5.78477 17.3897 5.75634 17.7663C5.73915 17.9938 5.61806 18.1659 5.36591 18.1503C5.11121 18.1347 5.02659 17.9388 5.02061 17.7171C5.00821 17.2577 4.93485 16.7569 5.60016 16.5625Z" fill="black"/>
</g>
<defs>
<clipPath id="clip0_2002_143">
<rect width="16.0676" height="41" fill="white" transform="translate(0.575317 0.263062)"/>
</clipPath>
</defs>
</svg>
