<svg width="35" height="15" viewBox="0 0 35 15" fill="none" xmlns="http://www.w3.org/2000/svg">
    <path
        d="M33.8323 5.55073C31.0138 3.99534 28.2031 2.42312 25.363 0.905605C24.5101 0.450828 23.726 1.71961 24.5811 2.19937C26.9763 3.54562 29.3939 4.85127 31.8093 6.16147L29.3646 7.36575C20.0307 7.31603 10.6998 6.93689 1.36741 6.77481C0.859679 6.76635 0.835802 7.54086 1.34352 7.56184C9.90184 7.92065 18.4693 8.10373 27.0251 8.51856L18.159 12.8872C17.4307 13.2457 17.8912 14.5445 18.6771 14.2503C18.7385 14.2272 18.7989 14.2 18.8608 14.1777L18.8622 14.1804C18.8728 14.1747 18.8838 14.1698 18.8943 14.164C22.9601 12.6314 26.8249 10.7982 30.5767 8.59394C30.6946 8.52409 30.7735 8.42426 30.8261 8.31371C31.8184 7.82756 32.8102 7.34053 33.8034 6.8539C34.3065 6.6088 34.3218 5.8207 33.8323 5.55073Z"
        fill="#421709" />
</svg>