<svg width="203" height="75" viewBox="0 0 203 75" fill="none" xmlns="http://www.w3.org/2000/svg">
<path d="M78.2846 55.0218V57.8358C78.2846 67.2796 70.5642 75 61.1199 75H17.1644C7.72014 75 -0.000244141 67.2796 -0.000244141 57.8358V53.3115H78.2846V55.0218Z" fill="#49152C"/>
<path d="M7.28501 36.8181H70.9994C80.5744 36.8181 80.5744 51.388 70.9994 51.388H7.285C-2.28999 51.388 -2.28998 36.8181 7.28501 36.8181Z" fill="#49152C"/>
<path d="M78.0099 32.9837L78.2414 34.8946H0.0437012L0.275208 32.9837C5.60652 -10.9946 72.6781 -10.9946 78.0099 32.9837Z" fill="#49152C"/>
<path d="M74.8641 57.8358V56.7319H3.42017V57.8358C3.42017 65.392 9.60812 71.58 17.1644 71.58H61.1199C68.6761 71.58 74.8641 65.392 74.8641 57.8358Z" fill="#FEB451"/>
<path d="M3.95581 31.4741H74.3288C67.5856 -6.04167 10.699 -6.04167 3.95581 31.4741Z" fill="#FEB451"/>
<path d="M70.9994 40.2385H7.28505C2.20804 40.2385 2.20804 47.9675 7.28505 47.9675H70.9994C76.0764 47.9675 76.0764 40.2385 70.9994 40.2385Z" fill="#D24347"/>
<path d="M74.8641 56.7319H67.2627V57.8358C67.2627 65.392 61.0748 71.58 53.519 71.58H61.1199C68.6761 71.58 74.8641 65.392 74.8641 57.8358V56.7319Z" fill="#F58021"/>
<path d="M70.9995 47.9675C76.0765 47.9675 76.0765 40.2385 70.9995 40.2385H63.3982C68.4752 40.2385 68.4752 47.9675 63.3982 47.9675H70.9995Z" fill="#C32E30"/>
<path d="M66.7274 31.4741H74.3287C70.6879 11.2198 52.432 1.90063 35.3418 3.51664C49.9067 4.89354 63.6245 14.2127 66.7274 31.4741Z" fill="#F58021"/>
<path d="M11.8565 24.2836C12.6041 24.2836 13.2101 23.6776 13.2101 22.93C13.2101 22.1824 12.6041 21.5764 11.8565 21.5764C11.109 21.5764 10.5029 22.1824 10.5029 22.93C10.5029 23.6776 11.109 24.2836 11.8565 24.2836Z" fill="#F58021"/>
<path d="M26.3692 11.6458C27.1168 11.6458 27.7228 11.0398 27.7228 10.2922C27.7228 9.54462 27.1168 8.9386 26.3692 8.9386C25.6217 8.9386 25.0156 9.54462 25.0156 10.2922C25.0156 11.0398 25.6217 11.6458 26.3692 11.6458Z" fill="#F58021"/>
<path d="M28.6546 23.3856C29.1832 22.857 29.1832 21.9999 28.6546 21.4713C28.126 20.9427 27.269 20.9427 26.7403 21.4713C26.2117 21.9999 26.2117 22.857 26.7403 23.3856C27.269 23.9142 28.126 23.9142 28.6546 23.3856Z" fill="#F58021"/>
<path d="M52.2118 22.8327C52.9593 22.8327 53.5653 22.2267 53.5653 21.4791C53.5653 20.7316 52.9593 20.1255 52.2118 20.1255C51.4642 20.1255 50.8582 20.7316 50.8582 21.4791C50.8582 22.2267 51.4642 22.8327 52.2118 22.8327Z" fill="#F58021"/>
<path d="M41.9931 12.4663C42.6838 12.1802 43.0117 11.3884 42.7257 10.6977C42.4396 10.0071 41.6478 9.67907 40.9571 9.96516C40.2664 10.2512 39.9385 11.043 40.2245 11.7337C40.5106 12.4244 41.3024 12.7524 41.9931 12.4663Z" fill="#F58021"/>
<path d="M41.1722 23.9556C41.7008 23.4269 41.7008 22.5699 41.1722 22.0413C40.6436 21.5127 39.7865 21.5127 39.2579 22.0413C38.7293 22.5699 38.7293 23.4269 39.2579 23.9556C39.7865 24.4842 40.6436 24.4842 41.1722 23.9556Z" fill="#F58021"/>
<path d="M5.50933 57.8358V56.7319H3.42017V57.8358C3.42017 65.392 9.60812 71.58 17.1644 71.58H19.253C11.6973 71.58 5.50933 65.392 5.50933 57.8358Z" fill="#FBF9ED"/>
<path d="M7.28505 40.2385C2.20804 40.2385 2.20804 47.9675 7.28505 47.9675H9.37421C4.2972 47.9675 4.2972 40.2385 9.37421 40.2385L7.28505 40.2385Z" fill="#FBF9ED"/>
<path d="M3.95581 31.4741H6.04497C9.07335 14.626 22.2152 5.34436 36.386 3.62907C36.0384 3.58701 35.6904 3.54952 35.3419 3.5166C20.7765 4.8935 7.05865 14.2126 3.95581 31.4741Z" fill="#FBF9ED"/>
<path d="M92.7229 24.4204L92.5785 21.7135C93.7816 21.7135 94.7922 21.6413 95.6103 21.4969C96.4284 21.3525 97.0781 21.0638 97.5594 20.6307C98.0406 20.1976 98.3895 19.5479 98.6061 18.6816C98.8226 17.8154 98.9309 16.6725 98.9309 15.2528C98.9309 13.9053 98.8106 12.8466 98.57 12.0766C98.3294 11.3066 97.9444 10.7652 97.415 10.4524C96.8856 10.1156 96.1878 9.94712 95.3216 9.94712C94.8163 9.94712 94.2508 9.98321 93.6252 10.0554C93.0237 10.1035 92.3499 10.1757 91.604 10.272L89.3662 6.26562C90.2806 6.19344 91.195 6.14531 92.1093 6.12125C93.0477 6.07313 93.8658 6.04906 94.5636 6.04906C96.8495 6.04906 98.6903 6.30172 100.086 6.80702C101.506 7.31232 102.54 8.22668 103.19 9.55009C103.84 10.8494 104.164 12.7143 104.164 15.1445C104.164 16.9011 103.864 18.3809 103.262 19.584C102.685 20.763 101.866 21.7135 100.808 22.4353C99.7731 23.1331 98.5579 23.6384 97.1623 23.9512C95.7908 24.264 94.311 24.4204 92.7229 24.4204ZM94.7802 32.3609C94.299 32.3609 93.7576 32.3489 93.156 32.3248C92.5545 32.3248 91.9409 32.3008 91.3153 32.2527C90.7137 32.2286 90.1122 32.2045 89.5106 32.1805L91.8928 28.4268C92.6627 28.523 93.3966 28.6072 94.0944 28.6794C94.8163 28.7276 95.478 28.7516 96.0796 28.7516C96.6089 28.7516 97.1022 28.7276 97.5594 28.6794C98.0406 28.6072 98.4256 28.4508 98.7143 28.2102C99.0272 27.9696 99.1836 27.5605 99.1836 26.9831C99.1836 26.4537 99.0272 26.0807 98.7143 25.8642C98.4256 25.6476 98.0286 25.5273 97.5233 25.5032C97.042 25.4551 96.5006 25.4311 95.8991 25.4311C95.5863 25.4311 95.2614 25.4431 94.9246 25.4671C94.5877 25.4671 94.2388 25.4792 93.8779 25.5032C93.5169 25.5032 93.1319 25.5153 92.7229 25.5393L92.5785 21.7135C95.5382 21.6894 97.8722 21.918 99.5806 22.3992C101.313 22.8564 102.552 23.5061 103.298 24.3483C104.044 25.1664 104.417 26.1289 104.417 27.2357C104.417 28.5591 104.044 29.5938 103.298 30.3397C102.576 31.0856 101.494 31.615 100.05 31.9278C98.6301 32.2166 96.8736 32.3609 94.7802 32.3609ZM89.5106 32.1805C89.5106 32.1805 89.5106 31.7955 89.5106 31.0255C89.5347 30.2555 89.5587 29.2329 89.5828 27.9576C89.6069 26.6823 89.6189 25.2867 89.6189 23.7708C89.6429 22.2308 89.655 20.7029 89.655 19.187C89.655 17.647 89.6429 16.119 89.6189 14.6031C89.5948 13.0872 89.5587 11.7036 89.5106 10.4524C89.4625 9.17713 89.4264 8.16653 89.4023 7.4206C89.3783 6.65061 89.3662 6.26562 89.3662 6.26562L94.7802 6.59046C94.7802 6.59046 94.7802 6.89124 94.7802 7.49279C94.7802 8.09434 94.7682 8.88839 94.7441 9.87493C94.7441 10.8374 94.7321 11.8841 94.708 13.015C94.708 14.1459 94.708 15.2648 94.708 16.3717C94.708 17.4545 94.708 18.417 94.708 19.2591C94.708 20.0772 94.708 21.0397 94.708 22.1466C94.7321 23.2534 94.7441 24.3723 94.7441 25.5032C94.7441 26.6342 94.7441 27.6809 94.7441 28.6433C94.7682 29.6058 94.7802 30.3878 94.7802 30.9894C94.8043 31.5909 94.8163 31.8917 94.8163 31.8917L89.5106 32.1805ZM109.121 25.0701V21.0638C110.084 21.1841 110.914 21.1119 111.612 20.8472C112.31 20.5826 112.887 20.1735 113.344 19.6201C113.825 19.0666 114.174 18.4049 114.391 17.6349C114.631 16.8409 114.752 15.9987 114.752 15.1084C114.752 13.9053 114.644 12.9308 114.427 12.1849C114.234 11.439 113.91 10.8976 113.452 10.5607C113.019 10.1998 112.442 10.0193 111.72 10.0193C111.263 10.0193 110.685 10.0554 109.988 10.1276C109.314 10.1757 108.64 10.2599 107.966 10.3802L105.729 6.30172C106.282 6.25359 106.847 6.2175 107.425 6.19344C108.002 6.14531 108.568 6.12125 109.121 6.12125C109.675 6.09719 110.18 6.08516 110.637 6.08516C112.707 6.08516 114.427 6.34984 115.799 6.87921C117.17 7.38451 118.205 8.28684 118.903 9.58619C119.6 10.8855 119.949 12.6902 119.949 15.0002C119.949 16.7326 119.685 18.2365 119.155 19.5118C118.65 20.763 117.916 21.7977 116.953 22.6158C116.015 23.4339 114.884 24.0475 113.561 24.4565C112.237 24.8656 110.758 25.0701 109.121 25.0701ZM105.873 32.1805C105.897 31.218 105.921 30.0149 105.945 28.5712C105.969 27.1274 105.981 25.5995 105.981 23.9873C106.005 22.3511 106.017 20.7871 106.017 19.2952C106.017 17.7793 105.993 16.2153 105.945 14.6031C105.921 12.9669 105.885 11.4149 105.837 9.94712C105.813 8.47933 105.777 7.2642 105.729 6.30172L111.106 6.66265C111.082 7.2642 111.058 7.94997 111.034 8.71995C111.01 9.48994 110.986 10.3201 110.962 11.2104C110.962 12.1007 110.962 13.015 110.962 13.9535C110.986 14.8678 110.998 15.7822 110.998 16.6965C110.998 17.5868 111.01 18.429 111.034 19.223C111.034 19.993 111.034 20.9074 111.034 21.9661C111.058 23.0249 111.07 24.1437 111.07 25.3228C111.094 26.5018 111.106 27.6568 111.106 28.7877C111.13 29.8946 111.142 30.9052 111.142 31.8195L105.873 32.1805ZM116.051 32.2166C115.666 31.1097 115.257 30.0149 114.824 28.9321C114.415 27.8252 113.97 26.7063 113.489 25.5754C113.007 24.4445 112.502 23.2895 111.973 22.1105L116.809 20.9916C117.29 22.1706 117.796 23.3738 118.325 24.6009C118.854 25.804 119.42 27.0312 120.021 28.2824C120.647 29.5096 121.321 30.7849 122.043 32.1083L116.051 32.2166ZM128.587 32.1805C127.36 32.1805 126.337 31.9759 125.519 31.5669C124.701 31.1338 124.051 30.5322 123.57 29.7622C123.089 28.9682 122.716 28.0418 122.451 26.9831C122.282 26.2612 122.15 25.4912 122.054 24.6731C121.982 23.8309 121.922 22.9406 121.873 22.0022C121.849 21.0638 121.837 20.1013 121.837 19.1148C121.837 18.441 121.849 17.7914 121.873 17.1657C121.897 16.5161 121.934 15.8904 121.982 15.2889C122.054 14.6873 122.126 14.1099 122.198 13.5564C122.295 12.9789 122.415 12.4375 122.559 11.9322C123.016 10.296 123.75 8.98464 124.761 7.99809C125.771 7.01155 127.191 6.51827 129.02 6.51827C130.343 6.51827 131.426 6.7589 132.268 7.24014C133.11 7.69731 133.772 8.35902 134.253 9.22526C134.759 10.0915 135.12 11.1141 135.336 12.2932C135.529 13.2557 135.649 14.3264 135.697 15.5055C135.769 16.6604 135.805 17.8756 135.805 19.1509C135.805 20.2096 135.781 21.2443 135.733 22.2549C135.685 23.2414 135.589 24.1798 135.444 25.0701C135.3 25.9604 135.096 26.7906 134.831 27.5605C134.35 28.9561 133.616 30.075 132.629 30.9172C131.643 31.7594 130.295 32.1805 128.587 32.1805ZM128.875 27.9937C129.164 27.9937 129.393 27.9215 129.561 27.7771C129.754 27.6087 129.91 27.356 130.03 27.0192C130.175 26.6582 130.271 26.201 130.319 25.6476C130.415 24.8054 130.464 23.7948 130.464 22.6158C130.488 21.4127 130.5 20.2216 130.5 19.0426C130.5 18.056 130.5 17.0815 130.5 16.119C130.5 15.1566 130.476 14.3384 130.427 13.6647C130.355 12.606 130.211 11.848 129.994 11.3908C129.778 10.9096 129.417 10.669 128.912 10.669C128.382 10.669 127.985 10.9216 127.721 11.4269C127.48 11.9322 127.323 12.7263 127.251 13.8091C127.227 14.17 127.203 14.5791 127.179 15.0362C127.179 15.4694 127.179 15.9386 127.179 16.4439C127.179 16.9251 127.179 17.4304 127.179 17.9598C127.179 18.4892 127.179 19.0065 127.179 19.5118C127.179 20.6908 127.179 21.8458 127.179 22.9767C127.203 24.0836 127.251 25.01 127.323 25.7559C127.396 26.2853 127.492 26.7184 127.612 27.0552C127.733 27.3921 127.889 27.6327 128.081 27.7771C128.298 27.9215 128.563 27.9937 128.875 27.9937ZM138.551 6.59046H143.64C143.713 6.83108 143.857 7.2642 144.073 7.88981C144.29 8.49136 144.543 9.22526 144.831 10.0915C145.144 10.9337 145.469 11.836 145.806 12.7985C146.143 13.761 146.468 14.6994 146.78 15.6137C147.045 16.3837 147.298 17.1176 147.538 17.8154C147.779 18.4892 147.984 19.0787 148.152 19.584C148.345 20.0893 148.489 20.4743 148.585 20.739C148.585 20.3299 148.585 19.8607 148.585 19.3313C148.585 18.802 148.585 18.2365 148.585 17.6349C148.585 17.0334 148.573 16.4078 148.549 15.7581C148.549 15.1084 148.537 14.4467 148.513 13.773C148.489 13.1714 148.465 12.5819 148.441 12.0044C148.441 11.4269 148.441 10.8615 148.441 10.3081C148.441 9.75462 148.429 9.22526 148.405 8.71995C148.405 8.21465 148.393 7.75747 148.369 7.34842C148.369 6.9153 148.357 6.53031 148.332 6.19344H153.277C153.253 6.84311 153.229 7.57701 153.205 8.39512C153.205 9.21323 153.193 10.0795 153.169 10.9938C153.169 11.9082 153.157 12.8707 153.133 13.8813C153.133 14.8919 153.121 15.9265 153.097 16.9853C153.073 18.2606 153.049 19.5479 153.025 20.8472C153.025 22.1466 153.025 23.4219 153.025 24.6731C153.025 25.9243 153.013 27.1274 152.988 28.2824C152.988 29.4374 152.976 30.5082 152.952 31.4947L148.08 31.7473C147.935 31.3383 147.743 30.821 147.502 30.1953C147.262 29.5457 146.997 28.8358 146.708 28.0659C146.42 27.2718 146.119 26.4657 145.806 25.6476C145.493 24.8054 145.192 24.0114 144.904 23.2655C144.735 22.8324 144.567 22.4233 144.398 22.0383C144.254 21.6293 144.11 21.2563 143.965 20.9194C143.845 20.5826 143.737 20.2818 143.64 20.0171C143.544 19.7524 143.46 19.5479 143.388 19.4035C143.388 19.8607 143.388 20.3299 143.388 20.8111C143.388 21.2683 143.388 21.7255 143.388 22.1827C143.388 22.6399 143.388 23.085 143.388 23.5181C143.388 23.9512 143.388 24.3844 143.388 24.8175C143.412 25.419 143.424 26.0085 143.424 26.586C143.424 27.1635 143.424 27.717 143.424 28.2463C143.448 28.7516 143.46 29.2329 143.46 29.69C143.46 30.1472 143.46 30.5683 143.46 30.9533C143.484 31.3383 143.496 31.6872 143.496 32L138.66 31.9639C138.66 31.3383 138.66 30.6766 138.66 29.9788C138.684 29.281 138.696 28.5471 138.696 27.7771C138.72 27.0071 138.732 26.2131 138.732 25.395C138.732 24.5769 138.732 23.7347 138.732 22.8684C138.732 21.4007 138.732 19.9208 138.732 18.429C138.732 16.9371 138.72 15.4814 138.696 14.0617C138.672 12.618 138.647 11.2705 138.623 10.0193C138.623 8.74401 138.599 7.60107 138.551 6.59046ZM165.773 32.1444C165.003 30.9172 164.269 29.8104 163.571 28.8238C162.898 27.8373 162.212 26.8868 161.514 25.9725C160.84 25.0581 160.118 24.1197 159.348 23.1572C159.95 21.7857 160.588 20.354 161.261 18.8621C161.935 17.3462 162.585 15.8544 163.21 14.3866C163.836 12.8947 164.414 11.4991 164.943 10.1998C165.472 8.90042 165.893 7.7695 166.206 6.80702L171.728 6.98749C171.199 7.99809 170.598 9.18916 169.924 10.5607C169.274 11.9082 168.6 13.3038 167.903 14.7475C167.205 16.1672 166.543 17.5387 165.917 18.8621C165.316 20.1615 164.799 21.2804 164.365 22.2188C164.919 23.0128 165.436 23.7587 165.917 24.4565C166.423 25.1303 166.94 25.8281 167.469 26.5499C167.999 27.2477 168.612 28.0177 169.31 28.8599C170.008 29.7021 170.826 30.6766 171.765 31.7834L165.773 32.1444ZM156.208 32C156.232 31.3022 156.244 30.5563 156.244 29.7622C156.269 28.9682 156.281 28.138 156.281 27.2718C156.305 26.4056 156.317 25.5273 156.317 24.637C156.341 23.7227 156.353 22.8203 156.353 21.93C156.353 21.0157 156.353 20.1254 156.353 19.2591C156.353 18.1042 156.341 16.9612 156.317 15.8303C156.293 14.6994 156.269 13.6166 156.244 12.5819C156.22 11.5232 156.196 10.5487 156.172 9.65837C156.148 8.74402 156.124 7.962 156.1 7.31232L161.658 6.80702C161.658 7.33638 161.646 8.01012 161.622 8.82823C161.622 9.64634 161.622 10.5246 161.622 11.463C161.622 12.4014 161.61 13.3519 161.586 14.3144C161.586 15.2769 161.574 16.1912 161.55 17.0575C161.55 17.9237 161.55 18.6696 161.55 19.2952C161.55 19.7765 161.55 20.4261 161.55 21.2443C161.574 22.0383 161.586 22.9286 161.586 23.9151C161.586 24.8776 161.586 25.8521 161.586 26.8387C161.61 27.8252 161.622 28.7516 161.622 29.6179C161.646 30.46 161.658 31.1578 161.658 31.7113L156.208 32ZM177.996 32.3609C176.745 32.3609 175.65 32.2166 174.712 31.9278C173.774 31.615 172.98 31.1819 172.33 30.6285C171.704 30.051 171.223 29.3772 170.886 28.6072C170.573 27.8132 170.417 26.9349 170.417 25.9725C170.417 25.6115 170.441 25.2386 170.489 24.8536C170.537 24.4445 170.609 24.0475 170.706 23.6625H175.578C175.458 24.0475 175.362 24.4084 175.29 24.7453C175.241 25.0822 175.217 25.395 175.217 25.6837C175.217 26.2853 175.326 26.8026 175.542 27.2357C175.759 27.6688 176.059 28.0057 176.444 28.2463C176.854 28.4629 177.323 28.5712 177.852 28.5712C178.574 28.5712 179.139 28.4749 179.548 28.2824C179.982 28.0659 180.282 27.7891 180.451 27.4523C180.619 27.0913 180.703 26.6943 180.703 26.2612C180.703 25.8281 180.607 25.4671 180.415 25.1784C180.246 24.8656 179.994 24.6009 179.657 24.3844C179.32 24.1437 178.899 23.9151 178.394 23.6986C177.912 23.458 177.359 23.1933 176.733 22.9045C175.915 22.5195 175.121 22.0864 174.351 21.6052C173.605 21.1239 172.931 20.5465 172.33 19.8727C171.728 19.199 171.247 18.4049 170.886 17.4906C170.525 16.5522 170.345 15.4573 170.345 14.2061C170.345 12.7864 170.609 11.4991 171.139 10.3441C171.692 9.18916 172.546 8.27481 173.701 7.60107C174.88 6.90327 176.408 6.55437 178.285 6.55437C180.09 6.55437 181.546 6.86717 182.653 7.49279C183.783 8.09434 184.602 8.96057 185.107 10.0915C185.636 11.2224 185.901 12.5699 185.901 14.1339C185.901 14.4948 185.877 14.8678 185.829 15.2528C185.805 15.6378 185.769 16.0348 185.72 16.4439C185.672 16.8529 185.612 17.274 185.54 17.7071H180.379C180.451 17.0575 180.499 16.4439 180.523 15.8664C180.571 15.2889 180.595 14.7595 180.595 14.2783C180.595 13.4602 180.523 12.7624 180.379 12.1849C180.234 11.6074 179.982 11.1743 179.621 10.8855C179.26 10.5727 178.754 10.4163 178.105 10.4163C177.648 10.4163 177.251 10.5005 176.914 10.669C176.577 10.8374 176.3 11.078 176.084 11.3908C175.867 11.7036 175.711 12.0766 175.614 12.5097C175.518 12.9188 175.47 13.388 175.47 13.9174C175.47 14.7355 175.614 15.4212 175.903 15.9747C176.192 16.504 176.613 16.9612 177.166 17.3462C177.744 17.7312 178.418 18.1042 179.188 18.4651C180.03 18.8501 180.836 19.2591 181.606 19.6923C182.4 20.1254 183.122 20.6307 183.771 21.2082C184.421 21.7616 184.926 22.4353 185.287 23.2294C185.672 23.9994 185.865 24.9498 185.865 26.0807C185.865 27.1635 185.6 28.1862 185.071 29.1486C184.565 30.0871 183.735 30.8571 182.58 31.4586C181.425 32.0602 179.897 32.3609 177.996 32.3609Z" fill="#C53D2D"/>
<path d="M92.7229 61.6529L92.5785 58.946C93.7816 58.946 94.7922 58.8738 95.6103 58.7294C96.4284 58.585 97.0781 58.2963 97.5594 57.8632C98.0406 57.43 98.3895 56.7804 98.6061 55.9141C98.8226 55.0479 98.9309 53.9049 98.9309 52.4853C98.9309 51.1378 98.8106 50.0791 98.57 49.3091C98.3294 48.5391 97.9444 47.9977 97.415 47.6849C96.8856 47.348 96.1878 47.1796 95.3216 47.1796C94.8163 47.1796 94.2508 47.2157 93.6252 47.2879C93.0237 47.336 92.3499 47.4082 91.604 47.5044L89.3662 43.4981C90.2806 43.4259 91.195 43.3778 92.1093 43.3537C93.0477 43.3056 93.8658 43.2815 94.5636 43.2815C96.8495 43.2815 98.6903 43.5342 100.086 44.0395C101.506 44.5448 102.54 45.4592 103.19 46.7826C103.84 48.0819 104.164 49.9467 104.164 52.377C104.164 54.1335 103.864 55.6134 103.262 56.8165C102.685 57.9955 101.866 58.946 100.808 59.6678C99.7731 60.3656 98.5579 60.8709 97.1623 61.1837C95.7908 61.4965 94.311 61.6529 92.7229 61.6529ZM94.7802 69.5934C94.299 69.5934 93.7576 69.5814 93.156 69.5573C92.5545 69.5573 91.9409 69.5333 91.3153 69.4851C90.7137 69.4611 90.1122 69.437 89.5106 69.4129L91.8928 65.6593C92.6627 65.7555 93.3966 65.8397 94.0944 65.9119C94.8163 65.96 95.478 65.9841 96.0796 65.9841C96.6089 65.9841 97.1022 65.96 97.5594 65.9119C98.0406 65.8397 98.4256 65.6833 98.7143 65.4427C99.0272 65.2021 99.1836 64.793 99.1836 64.2155C99.1836 63.6862 99.0272 63.3132 98.7143 63.0967C98.4256 62.8801 98.0286 62.7598 97.5233 62.7357C97.042 62.6876 96.5006 62.6635 95.8991 62.6635C95.5863 62.6635 95.2614 62.6756 94.9246 62.6996C94.5877 62.6996 94.2388 62.7117 93.8779 62.7357C93.5169 62.7357 93.1319 62.7478 92.7229 62.7718L92.5785 58.946C95.5382 58.9219 97.8722 59.1505 99.5806 59.6317C101.313 60.0889 102.552 60.7386 103.298 61.5807C104.044 62.3989 104.417 63.3613 104.417 64.4682C104.417 65.7916 104.044 66.8263 103.298 67.5722C102.576 68.3181 101.494 68.8475 100.05 69.1603C98.6301 69.449 96.8736 69.5934 94.7802 69.5934ZM89.5106 69.4129C89.5106 69.4129 89.5106 69.028 89.5106 68.258C89.5347 67.488 89.5587 66.4653 89.5828 65.1901C89.6069 63.9148 89.6189 62.5192 89.6189 61.0033C89.6429 59.4633 89.655 57.9353 89.655 56.4194C89.655 54.8795 89.6429 53.3515 89.6189 51.8356C89.5948 50.3197 89.5587 48.9361 89.5106 47.6849C89.4625 46.4096 89.4264 45.399 89.4023 44.6531C89.3783 43.8831 89.3662 43.4981 89.3662 43.4981L94.7802 43.8229C94.7802 43.8229 94.7802 44.1237 94.7802 44.7253C94.7802 45.3268 94.7682 46.1209 94.7441 47.1074C94.7441 48.0699 94.7321 49.1166 94.708 50.2475C94.708 51.3784 94.708 52.4973 94.708 53.6042C94.708 54.687 94.708 55.6494 94.708 56.4916C94.708 57.3097 94.708 58.2722 94.708 59.3791C94.7321 60.4859 94.7441 61.6048 94.7441 62.7357C94.7441 63.8666 94.7441 64.9133 94.7441 65.8758C94.7682 66.8383 94.7802 67.6203 94.7802 68.2219C94.8043 68.8234 94.8163 69.1242 94.8163 69.1242L89.5106 69.4129ZM112.947 69.5934C111.672 69.5934 110.589 69.4129 109.699 69.052C108.833 68.667 108.123 68.1497 107.569 67.5C107.04 66.8263 106.643 66.0443 106.378 65.154C106.138 64.2637 106.017 63.3012 106.017 62.2665C106.017 61.4243 106.017 60.498 106.017 59.4873C106.041 58.4527 106.053 57.43 106.053 56.4194C106.053 55.3848 106.053 54.4584 106.053 53.6403C106.053 52.5575 106.053 51.4987 106.053 50.4641C106.053 49.4294 106.041 48.3947 106.017 47.3601C106.017 46.3013 105.993 45.2185 105.945 44.1117L111.287 44.1478C111.263 44.9418 111.239 45.784 111.215 46.6743C111.191 47.5405 111.167 48.4068 111.142 49.273C111.142 50.1392 111.13 50.9694 111.106 51.7634C111.106 52.5334 111.106 53.2312 111.106 53.8568C111.106 54.5546 111.094 55.2043 111.07 55.8059C111.07 56.4074 111.07 56.9729 111.07 57.5022C111.07 58.0316 111.07 58.5128 111.07 58.946C111.07 59.3791 111.07 59.7761 111.07 60.137C111.07 61.292 111.118 62.2425 111.215 62.9884C111.311 63.7343 111.503 64.2877 111.792 64.6487C112.081 65.0096 112.502 65.1901 113.055 65.1901C113.489 65.1901 113.825 65.0697 114.066 64.8291C114.307 64.5644 114.475 64.2155 114.571 63.7824C114.692 63.3493 114.764 62.856 114.788 62.3026C114.812 61.7492 114.824 61.1837 114.824 60.6062C114.824 60.3656 114.824 60.0047 114.824 59.5234C114.848 59.0422 114.86 58.3564 114.86 57.4661C114.86 56.5758 114.86 55.3968 114.86 53.929C114.86 52.389 114.836 50.9934 114.788 49.7422C114.764 48.4669 114.74 47.336 114.716 46.3495C114.692 45.3389 114.668 44.4606 114.644 43.7147L120.021 43.7508C120.021 44.5448 120.009 45.3148 119.985 46.0607C119.985 46.7826 119.973 47.5285 119.949 48.2985C119.949 49.0685 119.937 49.9106 119.913 50.825C119.913 51.7394 119.913 52.7981 119.913 54.0012C119.937 56.0465 119.949 57.791 119.949 59.2347C119.949 60.6544 119.949 61.6409 119.949 62.1943C119.949 62.9643 119.841 63.7824 119.624 64.6487C119.432 65.5149 119.071 66.321 118.542 67.0669C118.036 67.8128 117.326 68.4264 116.412 68.9076C115.498 69.3648 114.343 69.5934 112.947 69.5934ZM125.969 62.3026V58.2963C126.932 58.4166 127.762 58.3444 128.46 58.0797C129.158 57.815 129.735 57.406 130.192 56.8526C130.674 56.2991 131.022 55.6374 131.239 54.8674C131.48 54.0734 131.6 53.2312 131.6 52.3409C131.6 51.1378 131.492 50.1633 131.275 49.4174C131.083 48.6714 130.758 48.1301 130.301 47.7932C129.867 47.4323 129.29 47.2518 128.568 47.2518C128.111 47.2518 127.533 47.2879 126.836 47.3601C126.162 47.4082 125.488 47.4924 124.814 47.6127L122.577 43.5342C123.13 43.4861 123.696 43.45 124.273 43.4259C124.851 43.3778 125.416 43.3537 125.969 43.3537C126.523 43.3297 127.028 43.3176 127.485 43.3176C129.555 43.3176 131.275 43.5823 132.647 44.1117C134.018 44.617 135.053 45.5193 135.751 46.8187C136.448 48.118 136.797 49.9227 136.797 52.2326C136.797 53.9651 136.533 55.469 136.003 56.7443C135.498 57.9955 134.764 59.0302 133.802 59.8483C132.863 60.6664 131.732 61.28 130.409 61.689C129.085 62.0981 127.606 62.3026 125.969 62.3026ZM122.721 69.4129C122.745 68.4505 122.769 67.2474 122.793 65.8036C122.817 64.3599 122.829 62.832 122.829 61.2198C122.853 59.5836 122.865 58.0196 122.865 56.5277C122.865 55.0118 122.841 53.4478 122.793 51.8356C122.769 50.1994 122.733 48.6474 122.685 47.1796C122.661 45.7118 122.625 44.4967 122.577 43.5342L127.955 43.8951C127.93 44.4967 127.906 45.1824 127.882 45.9524C127.858 46.7224 127.834 47.5526 127.81 48.4429C127.81 49.3332 127.81 50.2475 127.81 51.1859C127.834 52.1003 127.846 53.0147 127.846 53.929C127.846 54.8193 127.858 55.6615 127.882 56.4555C127.882 57.2255 127.882 58.1399 127.882 59.1986C127.906 60.2573 127.918 61.3762 127.918 62.5553C127.943 63.7343 127.955 64.8893 127.955 66.0202C127.979 67.1271 127.991 68.1377 127.991 69.052L122.721 69.4129ZM132.899 69.449C132.514 68.3422 132.105 67.2474 131.672 66.1646C131.263 65.0577 130.818 63.9388 130.337 62.8079C129.855 61.677 129.35 60.522 128.821 59.343L133.657 58.2241C134.138 59.4031 134.644 60.6062 135.173 61.8334C135.703 63.0365 136.268 64.2637 136.87 65.5149C137.495 66.7421 138.169 68.0173 138.891 69.3408L132.899 69.449ZM138.361 56.9608C138.361 56.1668 138.373 55.3968 138.397 54.6509C138.445 53.9049 138.505 53.1831 138.577 52.4853C138.649 51.7875 138.746 51.1258 138.866 50.5002C139.01 49.8505 139.179 49.2369 139.371 48.6594C139.901 47.0713 140.683 45.8081 141.717 44.8696C142.776 43.9312 144.22 43.462 146.048 43.462C147.661 43.462 148.924 43.7628 149.838 44.3643C150.753 44.9418 151.402 45.784 151.787 46.8909C152.172 47.9737 152.365 49.273 152.365 50.7889C152.365 51.5108 152.329 52.2808 152.256 53.0989C152.184 53.8929 152.088 54.7351 151.968 55.6254L146.915 55.5893C147.011 54.6027 147.095 53.7004 147.167 52.8823C147.24 52.0401 147.276 51.2822 147.276 50.6084C147.276 49.9588 147.228 49.4053 147.131 48.9482C147.035 48.491 146.879 48.1421 146.662 47.9015C146.47 47.6608 146.169 47.5405 145.76 47.5405C145.254 47.5405 144.869 47.7932 144.605 48.2985C144.34 48.7797 144.136 49.4414 143.991 50.2836C143.919 50.6686 143.859 51.0897 143.811 51.5469C143.787 51.98 143.763 52.4492 143.739 52.9545C143.739 53.4357 143.739 53.9531 143.739 54.5065C143.739 55.0599 143.739 55.6254 143.739 56.2029C143.739 57.045 143.739 57.8391 143.739 58.585C143.763 59.3309 143.787 60.0287 143.811 60.6784C143.835 61.304 143.883 61.8815 143.955 62.4109C144.075 63.3252 144.292 64.0471 144.605 64.5765C144.942 65.0818 145.435 65.3344 146.085 65.3344C146.542 65.3344 146.915 65.2622 147.203 65.1179C147.516 64.9494 147.745 64.7088 147.889 64.396C148.058 64.0832 148.142 63.6741 148.142 63.1688C148.142 63.0485 148.13 62.9162 148.106 62.7718C148.106 62.6274 148.094 62.471 148.07 62.3026L146.012 62.3748V58.8377L152.365 58.9099L152.437 69.2325H150.091L149.549 67.7166C149.164 68.2459 148.635 68.6791 147.961 69.0159C147.312 69.3528 146.397 69.5212 145.218 69.5212C144.063 69.5212 143.089 69.3287 142.295 68.9437C141.501 68.5347 140.851 67.9692 140.346 67.2474C139.84 66.5014 139.443 65.6352 139.155 64.6487C138.962 63.9268 138.806 63.1568 138.685 62.3387C138.565 61.5206 138.481 60.6664 138.433 59.7761C138.385 58.8617 138.361 57.9233 138.361 56.9608ZM161.8 69.5934C160.524 69.5934 159.442 69.4129 158.551 69.052C157.685 68.667 156.975 68.1497 156.422 67.5C155.892 66.8263 155.495 66.0443 155.231 65.154C154.99 64.2637 154.87 63.3012 154.87 62.2665C154.87 61.4243 154.87 60.498 154.87 59.4873C154.894 58.4527 154.906 57.43 154.906 56.4194C154.906 55.3848 154.906 54.4584 154.906 53.6403C154.906 52.5575 154.906 51.4987 154.906 50.4641C154.906 49.4294 154.894 48.3947 154.87 47.3601C154.87 46.3013 154.846 45.2185 154.798 44.1117L160.139 44.6892C160.115 45.7479 160.091 46.8307 160.067 47.9376C160.043 49.0203 160.019 50.0791 159.995 51.1137C159.995 52.1244 159.983 53.0387 159.959 53.8568C159.959 54.5546 159.947 55.2043 159.923 55.8059C159.923 56.4074 159.923 56.9729 159.923 57.5022C159.923 58.0316 159.923 58.5128 159.923 58.946C159.923 59.3791 159.923 59.7761 159.923 60.137C159.923 61.292 159.971 62.2425 160.067 62.9884C160.163 63.7343 160.356 64.2877 160.645 64.6487C160.933 65.0096 161.355 65.1901 161.908 65.1901C162.341 65.1901 162.678 65.0697 162.919 64.8291C163.159 64.5644 163.328 64.2155 163.424 63.7824C163.544 63.3493 163.616 62.856 163.64 62.3026C163.665 61.7492 163.677 61.1837 163.677 60.6062C163.677 60.3656 163.677 60.0047 163.677 59.5234C163.701 59.0422 163.713 58.3564 163.713 57.4661C163.713 56.5758 163.713 55.3968 163.713 53.929C163.713 52.389 163.689 50.9934 163.64 49.7422C163.616 48.4669 163.592 47.336 163.568 46.3495C163.544 45.3389 163.52 44.4606 163.496 43.7147L168.874 43.1372C168.874 44.1959 168.862 45.2667 168.838 46.3495C168.814 47.4082 168.79 48.5511 168.766 49.7783C168.766 51.0055 168.766 52.4131 168.766 54.0012C168.79 56.0465 168.802 57.791 168.802 59.2347C168.802 60.6544 168.802 61.6409 168.802 62.1943C168.802 62.9643 168.693 63.7824 168.477 64.6487C168.284 65.5149 167.924 66.321 167.394 67.0669C166.889 67.8128 166.179 68.4264 165.265 68.9076C164.35 69.3648 163.195 69.5934 161.8 69.5934ZM171.754 69.2686C171.754 69.2686 171.754 69.04 171.754 68.5828C171.778 68.1256 171.79 67.488 171.79 66.6699C171.814 65.8518 171.826 64.9254 171.826 63.8907C171.85 62.832 171.862 61.7131 171.862 60.534C171.886 59.3309 171.898 58.1158 171.898 56.8886C171.898 55.3487 171.886 53.8087 171.862 52.2687C171.838 50.7288 171.802 49.3332 171.754 48.0819C171.706 46.8066 171.67 45.796 171.646 45.0501C171.622 44.2801 171.61 43.8951 171.61 43.8951L177.024 44.4004C177.024 44.4004 177.012 44.7012 176.988 45.3028C176.988 45.8802 176.988 46.6502 176.988 47.6127C176.988 48.5511 176.976 49.5858 176.951 50.7167C176.951 51.8476 176.939 52.9545 176.915 54.0373C176.915 55.1201 176.915 56.0826 176.915 56.9247C176.915 57.7669 176.915 58.7294 176.915 59.8122C176.939 60.895 176.951 61.9778 176.951 63.0606C176.951 64.1434 176.951 65.1419 176.951 66.0563C176.976 66.9706 176.988 67.7166 176.988 68.2941C177.012 68.8475 177.024 69.1242 177.024 69.1242L171.754 69.2686ZM171.754 69.2686L174.208 65.6232L183.881 65.8036L183.917 69.2325L171.754 69.2686ZM174.064 62.7357V58.5489L183.809 58.6572L183.737 62.5914L174.064 62.7357ZM173.739 47.9015L171.61 43.8951L183.484 44.22V47.8654L173.739 47.9015ZM189.45 62.3026V58.2963C190.412 58.4166 191.242 58.3444 191.94 58.0797C192.638 57.815 193.215 57.406 193.672 56.8526C194.154 56.2991 194.503 55.6374 194.719 54.8674C194.96 54.0734 195.08 53.2312 195.08 52.3409C195.08 51.1378 194.972 50.1633 194.755 49.4174C194.563 48.6714 194.238 48.1301 193.781 47.7932C193.348 47.4323 192.77 47.2518 192.048 47.2518C191.591 47.2518 191.014 47.2879 190.316 47.3601C189.642 47.4082 188.968 47.4924 188.295 47.6127L186.057 43.5342C186.61 43.4861 187.176 43.45 187.753 43.4259C188.331 43.3778 188.896 43.3537 189.45 43.3537C190.003 43.3297 190.508 43.3176 190.965 43.3176C193.035 43.3176 194.755 43.5823 196.127 44.1117C197.498 44.617 198.533 45.5193 199.231 46.8187C199.929 48.118 200.277 49.9227 200.277 52.2326C200.277 53.9651 200.013 55.469 199.483 56.7443C198.978 57.9955 198.244 59.0302 197.282 59.8483C196.343 60.6664 195.212 61.28 193.889 61.689C192.566 62.0981 191.086 62.3026 189.45 62.3026ZM186.201 69.4129C186.225 68.4505 186.249 67.2474 186.273 65.8036C186.297 64.3599 186.309 62.832 186.309 61.2198C186.334 59.5836 186.346 58.0196 186.346 56.5277C186.346 55.0118 186.321 53.4478 186.273 51.8356C186.249 50.1994 186.213 48.6474 186.165 47.1796C186.141 45.7118 186.105 44.4967 186.057 43.5342L191.435 43.8951C191.411 44.4967 191.387 45.1824 191.362 45.9524C191.338 46.7224 191.314 47.5526 191.29 48.4429C191.29 49.3332 191.29 50.2475 191.29 51.1859C191.314 52.1003 191.326 53.0147 191.326 53.929C191.326 54.8193 191.338 55.6615 191.362 56.4555C191.362 57.2255 191.362 58.1399 191.362 59.1986C191.387 60.2573 191.399 61.3762 191.399 62.5553C191.423 63.7343 191.435 64.8893 191.435 66.0202C191.459 67.1271 191.471 68.1377 191.471 69.052L186.201 69.4129ZM196.379 69.449C195.994 68.3422 195.585 67.2474 195.152 66.1646C194.743 65.0577 194.298 63.9388 193.817 62.8079C193.336 61.677 192.83 60.522 192.301 59.343L197.137 58.2241C197.619 59.4031 198.124 60.6062 198.653 61.8334C199.183 63.0365 199.748 64.2637 200.35 65.5149C200.975 66.7421 201.649 68.0173 202.371 69.3408L196.379 69.449Z" fill="#421709"/>
</svg>
