<svg width="134" height="50" viewBox="0 0 134 50" fill="none" xmlns="http://www.w3.org/2000/svg">
    <path
        d="M52.0113 36.4476V38.2861C52.0113 44.456 46.9673 49.5 40.7971 49.5H12.0795C5.90922 49.5 0.865234 44.456 0.865234 38.2861V35.3302H52.0113V36.4476Z"
        fill="#49152C" />
    <path
        d="M5.62486 24.5544H47.2516C53.5073 24.5544 53.5073 34.0735 47.2516 34.0735H5.62485C-0.63081 34.0735 -0.630806 24.5544 5.62486 24.5544Z"
        fill="#49152C" />
    <path
        d="M51.8317 22.0494L51.983 23.2978H0.893799L1.04505 22.0494C4.52818 -6.68312 48.3483 -6.68312 51.8317 22.0494Z"
        fill="#49152C" />
    <path
        d="M49.7765 38.2861V37.5649H3.09985V38.2861C3.09985 43.2229 7.14265 47.2657 12.0794 47.2657H40.797C45.7337 47.2657 49.7765 43.2229 49.7765 38.2861Z"
        fill="#FEB451" />
    <path d="M3.44971 21.0632H49.4267C45.0212 -3.44716 7.85525 -3.44716 3.44971 21.0632Z"
        fill="#FEB451" />
    <path
        d="M47.2517 26.7892H5.62494C2.30796 26.7892 2.30796 31.8388 5.62494 31.8388H47.2517C50.5687 31.8388 50.5687 26.7892 47.2517 26.7892Z"
        fill="#D24347" />
    <path
        d="M49.7767 37.5649H44.8105V38.2861C44.8105 43.2229 40.7677 47.2657 35.8313 47.2657H40.7972C45.7339 47.2657 49.7767 43.2229 49.7767 38.2861V37.5649Z"
        fill="#F58021" />
    <path
        d="M47.2516 31.8388C50.5686 31.8388 50.5686 26.7892 47.2516 26.7892H42.2854C45.6024 26.7892 45.6024 31.8388 42.2854 31.8388H47.2516Z"
        fill="#C32E30" />
    <path
        d="M44.4606 21.0631H49.4268C47.0481 7.83029 35.1209 1.74177 23.9553 2.79756C33.471 3.69714 42.4334 9.78565 44.4606 21.0631Z"
        fill="#F58021" />
    <path
        d="M8.61165 16.3653C9.10006 16.3653 9.496 15.9693 9.496 15.4809C9.496 14.9925 9.10006 14.5966 8.61165 14.5966C8.12323 14.5966 7.72729 14.9925 7.72729 15.4809C7.72729 15.9693 8.12323 16.3653 8.61165 16.3653Z"
        fill="#F58021" />
    <path
        d="M18.0931 8.10854C18.5815 8.10854 18.9774 7.71261 18.9774 7.22419C18.9774 6.73578 18.5815 6.33984 18.0931 6.33984C17.6047 6.33984 17.2087 6.73578 17.2087 7.22419C17.2087 7.71261 17.6047 8.10854 18.0931 8.10854Z"
        fill="#F58021" />
    <path
        d="M19.5864 15.7787C19.9318 15.4333 19.9318 14.8733 19.5864 14.528C19.2411 14.1826 18.6811 14.1826 18.3358 14.528C17.9904 14.8733 17.9904 15.4333 18.3358 15.7787C18.6811 16.124 19.2411 16.124 19.5864 15.7787Z"
        fill="#F58021" />
    <path
        d="M34.9769 15.4174C35.4653 15.4174 35.8612 15.0214 35.8612 14.533C35.8612 14.0446 35.4653 13.6487 34.9769 13.6487C34.4885 13.6487 34.0925 14.0446 34.0925 14.533C34.0925 15.0214 34.4885 15.4174 34.9769 15.4174Z"
        fill="#F58021" />
    <path
        d="M28.3008 8.64464C28.752 8.45773 28.9663 7.94041 28.7794 7.48918C28.5925 7.03795 28.0752 6.82367 27.6239 7.01057C27.1727 7.19748 26.9584 7.7148 27.1453 8.16603C27.3322 8.61727 27.8495 8.83155 28.3008 8.64464Z"
        fill="#F58021" />
    <path
        d="M27.7647 16.151C28.11 15.8056 28.11 15.2457 27.7647 14.9003C27.4193 14.5549 26.8594 14.5549 26.514 14.9003C26.1686 15.2457 26.1686 15.8056 26.514 16.151C26.8594 16.4963 27.4193 16.4963 27.7647 16.151Z"
        fill="#F58021" />
    <path
        d="M4.46477 38.2861V37.5649H3.09985V38.2861C3.09985 43.2229 7.14265 47.2657 12.0794 47.2657H13.444C8.50757 47.2657 4.46477 43.2229 4.46477 38.2861Z"
        fill="#FBF9ED" />
    <path
        d="M5.62494 26.7892C2.30796 26.7892 2.30796 31.8388 5.62494 31.8388H6.98986C3.67288 31.8388 3.67288 26.7892 6.98986 26.7892L5.62494 26.7892Z"
        fill="#FBF9ED" />
    <path
        d="M3.44971 21.063H4.81463C6.79317 10.0557 15.3792 3.99162 24.6374 2.87096C24.4104 2.84349 24.183 2.819 23.9553 2.79749C14.4392 3.69706 5.4769 9.78557 3.44971 21.063Z"
        fill="#FBF9ED" />
    <path
        d="M61.4914 16.4681L61.3971 14.6995C62.1831 14.6995 62.8434 14.6523 63.3779 14.558C63.9124 14.4637 64.3368 14.2751 64.6513 13.9921C64.9657 13.7091 65.1936 13.2847 65.3351 12.7187C65.4766 12.1528 65.5473 11.4061 65.5473 10.4785C65.5473 9.59819 65.4687 8.90649 65.3115 8.40343C65.1543 7.90037 64.9028 7.54666 64.5569 7.34229C64.2111 7.12221 63.7552 7.01216 63.1892 7.01216C62.8591 7.01216 62.4897 7.03574 62.0809 7.0829C61.6879 7.11435 61.2478 7.16151 60.7604 7.22439L59.2984 4.60692C59.8958 4.55976 60.4932 4.52832 61.0905 4.5126C61.7036 4.48115 62.2381 4.46543 62.694 4.46543C64.1875 4.46543 65.3901 4.6305 66.3019 4.96063C67.2294 5.29076 67.9054 5.88814 68.3299 6.75277C68.7543 7.60168 68.9665 8.82003 68.9665 10.4078C68.9665 11.5554 68.77 12.5222 68.377 13.3082C67.9997 14.0785 67.4652 14.6995 66.7735 15.1711C66.0975 15.627 65.3037 15.9572 64.3919 16.1615C63.4958 16.3659 62.529 16.4681 61.4914 16.4681ZM62.8355 21.6559C62.5211 21.6559 62.1674 21.648 61.7744 21.6323C61.3814 21.6323 60.9805 21.6166 60.5718 21.5851C60.1788 21.5694 59.7857 21.5537 59.3927 21.5379L60.9491 19.0855C61.4521 19.1484 61.9316 19.2034 62.3875 19.2506C62.8591 19.282 63.2914 19.2978 63.6844 19.2978C64.0303 19.2978 64.3526 19.282 64.6513 19.2506C64.9657 19.2034 65.2172 19.1013 65.4058 18.9441C65.6102 18.7869 65.7124 18.5196 65.7124 18.1423C65.7124 17.7965 65.6102 17.5528 65.4058 17.4113C65.2172 17.2698 64.9578 17.1912 64.6277 17.1755C64.3133 17.1441 63.9595 17.1283 63.5665 17.1283C63.3622 17.1283 63.1499 17.1362 62.9299 17.1519C62.7098 17.1519 62.4818 17.1598 62.246 17.1755C62.0102 17.1755 61.7587 17.1834 61.4914 17.1991L61.3971 14.6995C63.3307 14.6838 64.8556 14.8331 65.9718 15.1475C67.1037 15.4462 67.9133 15.8707 68.4006 16.4209C68.8879 16.9554 69.1316 17.5842 69.1316 18.3074C69.1316 19.172 68.8879 19.848 68.4006 20.3353C67.929 20.8227 67.2216 21.1685 66.2783 21.3729C65.3508 21.5615 64.2032 21.6559 62.8355 21.6559ZM59.3927 21.5379C59.3927 21.5379 59.3927 21.2864 59.3927 20.7834C59.4084 20.2803 59.4242 19.6122 59.4399 18.779C59.4556 17.9458 59.4635 17.034 59.4635 16.0436C59.4792 15.0375 59.4871 14.0392 59.4871 13.0489C59.4871 12.0427 59.4792 11.0445 59.4635 10.0541C59.4477 9.06369 59.4242 8.15976 59.3927 7.34229C59.3613 6.5091 59.3377 5.84884 59.322 5.3615C59.3063 4.85845 59.2984 4.60692 59.2984 4.60692L62.8355 4.81915C62.8355 4.81915 62.8355 5.01565 62.8355 5.40867C62.8355 5.80168 62.8277 6.32046 62.8119 6.965C62.8119 7.59382 62.8041 8.27767 62.7884 9.01653C62.7884 9.7554 62.7884 10.4864 62.7884 11.2095C62.7884 11.917 62.7884 12.5458 62.7884 13.096C62.7884 13.6305 62.7884 14.2593 62.7884 14.9825C62.8041 15.7056 62.8119 16.4366 62.8119 17.1755C62.8119 17.9144 62.8119 18.5982 62.8119 19.227C62.8277 19.8558 62.8355 20.3668 62.8355 20.7598C62.8512 21.1528 62.8591 21.3493 62.8591 21.3493L59.3927 21.5379ZM72.2736 16.8925V14.2751C72.9024 14.3537 73.4447 14.3065 73.9006 14.1336C74.3565 13.9606 74.7338 13.6934 75.0325 13.3318C75.3469 12.9702 75.5749 12.5379 75.7164 12.0349C75.8736 11.5161 75.9522 10.9659 75.9522 10.3842C75.9522 9.59819 75.8814 8.96151 75.7399 8.47417C75.6142 7.98684 75.402 7.63312 75.1033 7.41304C74.8203 7.17723 74.443 7.05932 73.9714 7.05932C73.6727 7.05932 73.2954 7.0829 72.8395 7.13007C72.3993 7.16151 71.9592 7.21653 71.519 7.29513L70.057 4.6305C70.4185 4.59906 70.788 4.57548 71.1653 4.55976C71.5426 4.52832 71.912 4.5126 72.2736 4.5126C72.6351 4.49687 72.9653 4.48901 73.264 4.48901C74.6159 4.48901 75.7399 4.66194 76.636 5.00779C77.5321 5.33792 78.2081 5.92744 78.664 6.77635C79.1199 7.62526 79.3478 8.8043 79.3478 10.3135C79.3478 11.4454 79.1749 12.4279 78.829 13.2611C78.4989 14.0785 78.0194 14.7545 77.3906 15.289C76.7775 15.8235 76.0386 16.2244 75.174 16.4917C74.3094 16.7589 73.3426 16.8925 72.2736 16.8925ZM70.1513 21.5379C70.167 20.9091 70.1827 20.1231 70.1985 19.1799C70.2142 18.2366 70.222 17.2384 70.222 16.1851C70.2378 15.1161 70.2456 14.0943 70.2456 13.1196C70.2456 12.1292 70.2299 11.1074 70.1985 10.0541C70.1827 8.98509 70.1592 7.97112 70.1277 7.01216C70.112 6.05321 70.0884 5.25932 70.057 4.6305L73.5705 4.86631C73.5548 5.25932 73.5391 5.70736 73.5234 6.21041C73.5076 6.71347 73.4919 7.25583 73.4762 7.83749C73.4762 8.41915 73.4762 9.01653 73.4762 9.62963C73.4919 10.227 73.4998 10.8244 73.4998 11.4218C73.4998 12.0034 73.5076 12.5537 73.5234 13.0724C73.5234 13.5755 73.5234 14.1729 73.5234 14.8646C73.5391 15.5563 73.5469 16.2873 73.5469 17.0576C73.5627 17.8279 73.5705 18.5825 73.5705 19.3214C73.5862 20.0445 73.5941 20.7048 73.5941 21.3021L70.1513 21.5379ZM76.8011 21.5615C76.5496 20.8384 76.2823 20.1231 75.9993 19.4157C75.7321 18.6925 75.4413 17.9615 75.1268 17.2227C74.8124 16.4838 74.4823 15.7292 74.1365 14.9589L77.2963 14.2279C77.6107 14.9982 77.9408 15.7842 78.2867 16.586C78.6325 17.372 79.002 18.1738 79.395 18.9912C79.8037 19.793 80.2439 20.6262 80.7155 21.4908L76.8011 21.5615ZM85.0595 21.5379C84.2578 21.5379 83.5897 21.4043 83.0552 21.1371C82.5207 20.8541 82.0962 20.4611 81.7818 19.958C81.4674 19.4393 81.2237 18.834 81.0508 18.1423C80.9407 17.6707 80.8543 17.1676 80.7914 16.6331C80.7442 16.0829 80.7049 15.5013 80.6735 14.8882C80.6578 14.2751 80.6499 13.6462 80.6499 13.0017C80.6499 12.5615 80.6578 12.1371 80.6735 11.7283C80.6892 11.3039 80.7128 10.8951 80.7442 10.5021C80.7914 10.1091 80.8386 9.73182 80.8857 9.37024C80.9486 8.99295 81.0272 8.63924 81.1215 8.30911C81.4045 7.24011 81.8761 6.38334 82.5364 5.7388C83.2124 5.09426 84.1477 4.77198 85.3425 4.77198C86.2071 4.77198 86.9146 4.92919 87.4648 5.2436C88.015 5.54229 88.4473 5.97461 88.7617 6.54055C89.0761 7.10649 89.3119 7.77461 89.4691 8.54492C89.5949 9.17374 89.6735 9.8733 89.705 10.6436C89.7521 11.3982 89.7757 12.1921 89.7757 13.0253C89.7757 13.717 89.7521 14.393 89.705 15.0532C89.6735 15.6978 89.6106 16.3109 89.5163 16.8925C89.422 17.4742 89.2962 18.0165 89.139 18.5196C88.8246 19.4314 88.3451 20.1624 87.7006 20.7126C87.056 21.2628 86.1757 21.5379 85.0595 21.5379ZM85.2482 18.8026C85.4368 18.8026 85.5862 18.7554 85.6962 18.6611C85.822 18.551 85.9242 18.386 86.0028 18.1659C86.0814 17.9301 86.1364 17.6314 86.1678 17.2698C86.2464 16.7196 86.2857 16.0593 86.2857 15.289C86.3015 14.503 86.3093 13.7248 86.3093 12.9545C86.3093 12.31 86.3093 11.6733 86.3093 11.0445C86.3093 10.4157 86.2936 9.88116 86.2622 9.44099C86.1993 8.74928 86.0971 8.25409 85.9556 7.95539C85.8298 7.64098 85.6019 7.48378 85.2718 7.48378C84.9259 7.48378 84.6665 7.64884 84.4936 7.97898C84.3207 8.30911 84.2185 8.82789 84.187 9.53531C84.1713 9.77112 84.1556 10.0384 84.1399 10.3371C84.1399 10.62 84.1399 10.9266 84.1399 11.2567C84.1399 11.5711 84.1399 11.9013 84.1399 12.2471C84.1399 12.593 84.1399 12.9309 84.1399 13.2611C84.1399 14.0314 84.1399 14.786 84.1399 15.5248C84.1399 16.248 84.1713 16.8532 84.2342 17.3406C84.2814 17.6864 84.3442 17.9694 84.4228 18.1895C84.5014 18.4096 84.6036 18.5668 84.7294 18.6611C84.8709 18.7554 85.0438 18.8026 85.2482 18.8026ZM91.5938 4.81915H94.9187C94.9659 4.97635 95.0602 5.25932 95.2017 5.66806C95.3432 6.06107 95.5082 6.54055 95.6969 7.10648C95.9012 7.6567 96.1135 8.24623 96.3336 8.87505C96.5536 9.50387 96.7659 10.117 96.9702 10.7144C97.1432 11.2174 97.3082 11.6969 97.4654 12.1528C97.6226 12.593 97.7563 12.9781 97.8663 13.3082C97.9921 13.6384 98.0864 13.8899 98.1493 14.0628C98.1493 13.7956 98.1493 13.489 98.1493 13.1432C98.1493 12.7973 98.1493 12.4279 98.1493 12.0349C98.1493 11.6419 98.1414 11.2331 98.1257 10.8087C98.1257 10.3842 98.1178 9.9519 98.1021 9.51173C98.0864 9.11872 98.0707 8.73356 98.055 8.35627C98.055 7.97898 98.055 7.60954 98.055 7.24797C98.055 6.8864 98.0471 6.54055 98.0314 6.21041C98.0314 5.88028 98.0235 5.58159 98.0078 5.31434C98.0078 5.03137 97.9999 4.77984 97.9842 4.55976H101.215C101.199 4.98421 101.183 5.46369 101.168 5.99819C101.168 6.53269 101.16 7.09863 101.144 7.69601C101.144 8.29339 101.136 8.92221 101.12 9.58247C101.12 10.2427 101.113 10.9187 101.097 11.6104C101.081 12.4436 101.065 13.2847 101.05 14.1336C101.05 14.9825 101.05 15.8157 101.05 16.6331C101.05 17.4506 101.042 18.2366 101.026 18.9912C101.026 19.7458 101.018 20.4454 101.003 21.0899L97.8191 21.255C97.7248 20.9877 97.5991 20.6497 97.4419 20.241C97.2846 19.8165 97.1117 19.3528 96.9231 18.8497C96.7344 18.331 96.5379 17.8043 96.3336 17.2698C96.1292 16.7196 95.9327 16.2008 95.744 15.7135C95.634 15.4305 95.5239 15.1633 95.4139 14.9117C95.3196 14.6445 95.2253 14.4008 95.1309 14.1807C95.0523 13.9606 94.9816 13.7641 94.9187 13.5912C94.8558 13.4183 94.8008 13.2847 94.7536 13.1903C94.7536 13.489 94.7536 13.7956 94.7536 14.11C94.7536 14.4087 94.7536 14.7074 94.7536 15.0061C94.7536 15.3048 94.7536 15.5956 94.7536 15.8786C94.7536 16.1615 94.7536 16.4445 94.7536 16.7275C94.7694 17.1205 94.7772 17.5056 94.7772 17.8829C94.7772 18.2602 94.7772 18.6218 94.7772 18.9676C94.7929 19.2978 94.8008 19.6122 94.8008 19.9109C94.8008 20.2096 94.8008 20.4847 94.8008 20.7362C94.8165 20.9877 94.8244 21.2157 94.8244 21.42L91.6646 21.3965C91.6646 20.9877 91.6646 20.5554 91.6646 20.0995C91.6803 19.6436 91.6881 19.1641 91.6881 18.6611C91.7039 18.158 91.7117 17.6393 91.7117 17.1048C91.7117 16.5703 91.7117 16.02 91.7117 15.4541C91.7117 14.4951 91.7117 13.5283 91.7117 12.5537C91.7117 11.579 91.7039 10.6279 91.6881 9.70038C91.6724 8.75714 91.6567 7.87679 91.641 7.05932C91.641 6.22613 91.6253 5.47941 91.5938 4.81915ZM109.471 21.5144C108.968 20.7126 108.488 19.9895 108.032 19.3449C107.592 18.7004 107.144 18.0794 106.688 17.482C106.248 16.8847 105.777 16.2716 105.273 15.6427C105.666 14.7467 106.083 13.8113 106.523 12.8366C106.963 11.8462 107.388 10.8716 107.797 9.9126C108.205 8.93793 108.583 8.02614 108.928 7.17723C109.274 6.32832 109.549 5.58945 109.754 4.96063L113.362 5.07854C113.016 5.7388 112.623 6.51696 112.183 7.41304C111.758 8.29339 111.318 9.20518 110.862 10.1484C110.406 11.0759 109.974 11.972 109.565 12.8366C109.172 13.6855 108.834 14.4165 108.551 15.0296C108.913 15.5484 109.251 16.0358 109.565 16.4917C109.895 16.9318 110.233 17.3877 110.579 17.8593C110.925 18.3152 111.326 18.8183 111.782 19.3685C112.238 19.9187 112.772 20.5554 113.385 21.2786L109.471 21.5144ZM103.222 21.42C103.238 20.9641 103.245 20.4768 103.245 19.958C103.261 19.4393 103.269 18.8969 103.269 18.331C103.285 17.765 103.293 17.1912 103.293 16.6096C103.308 16.0122 103.316 15.4227 103.316 14.841C103.316 14.2436 103.316 13.662 103.316 13.096C103.316 12.3414 103.308 11.5947 103.293 10.8558C103.277 10.117 103.261 9.40955 103.245 8.73356C103.23 8.04186 103.214 7.40518 103.198 6.82352C103.183 6.22614 103.167 5.71522 103.151 5.29076L106.783 4.96063C106.783 5.30648 106.775 5.74666 106.759 6.28116C106.759 6.81566 106.759 7.38946 106.759 8.00256C106.759 8.61566 106.751 9.23662 106.735 9.86544C106.735 10.4943 106.728 11.0916 106.712 11.6576C106.712 12.2235 106.712 12.7109 106.712 13.1196C106.712 13.434 106.712 13.8585 106.712 14.393C106.728 14.9117 106.735 15.4934 106.735 16.1379C106.735 16.7668 106.735 17.4034 106.735 18.048C106.751 18.6925 106.759 19.2978 106.759 19.8637C106.775 20.4139 106.783 20.8698 106.783 21.2314L103.222 21.42ZM117.549 21.6559C116.731 21.6559 116.016 21.5615 115.403 21.3729C114.79 21.1685 114.271 20.8855 113.847 20.524C113.438 20.1467 113.124 19.7065 112.904 19.2034C112.699 18.6847 112.597 18.1109 112.597 17.482C112.597 17.2462 112.613 17.0026 112.644 16.751C112.676 16.4838 112.723 16.2244 112.786 15.9729H115.969C115.89 16.2244 115.828 16.4602 115.78 16.6803C115.749 16.9004 115.733 17.1048 115.733 17.2934C115.733 17.6864 115.804 18.0244 115.945 18.3074C116.087 18.5903 116.283 18.8104 116.535 18.9676C116.802 19.1091 117.109 19.1799 117.455 19.1799C117.926 19.1799 118.296 19.117 118.563 18.9912C118.846 18.8497 119.042 18.6689 119.152 18.4489C119.262 18.2131 119.317 17.9537 119.317 17.6707C119.317 17.3877 119.255 17.1519 119.129 16.9633C119.019 16.7589 118.854 16.586 118.634 16.4445C118.414 16.2873 118.138 16.1379 117.808 15.9965C117.494 15.8392 117.132 15.6663 116.724 15.4777C116.189 15.2261 115.67 14.9432 115.167 14.6288C114.68 14.3144 114.24 13.9371 113.847 13.4969C113.454 13.0567 113.139 12.5379 112.904 11.9406C112.668 11.3275 112.55 10.6122 112.55 9.7947C112.55 8.86719 112.723 8.02614 113.069 7.27155C113.43 6.51697 113.988 5.91958 114.743 5.47941C115.513 5.02351 116.511 4.79556 117.738 4.79556C118.917 4.79556 119.868 4.99993 120.591 5.40867C121.33 5.80168 121.864 6.36762 122.194 7.10648C122.54 7.84535 122.713 8.7257 122.713 9.74754C122.713 9.98335 122.697 10.227 122.666 10.4785C122.65 10.7301 122.627 10.9895 122.595 11.2567C122.564 11.524 122.524 11.7991 122.477 12.082H119.105C119.152 11.6576 119.184 11.2567 119.2 10.8794C119.231 10.5021 119.247 10.1563 119.247 9.84186C119.247 9.30736 119.2 8.85147 119.105 8.47417C119.011 8.09688 118.846 7.81391 118.61 7.62526C118.374 7.4209 118.044 7.31871 117.62 7.31871C117.321 7.31871 117.062 7.37373 116.842 7.48378C116.621 7.59382 116.441 7.75103 116.299 7.95539C116.158 8.15976 116.055 8.40343 115.993 8.6864C115.93 8.95365 115.898 9.2602 115.898 9.60605C115.898 10.1406 115.993 10.5886 116.181 10.9502C116.37 11.296 116.645 11.5947 117.007 11.8462C117.384 12.0978 117.824 12.3414 118.327 12.5772C118.877 12.8288 119.404 13.096 119.907 13.379C120.426 13.662 120.897 13.9921 121.322 14.3694C121.746 14.731 122.076 15.1711 122.312 15.6899C122.564 16.193 122.69 16.8139 122.69 17.5528C122.69 18.2602 122.517 18.9283 122.171 19.5572C121.841 20.1703 121.298 20.6733 120.544 21.0663C119.789 21.4593 118.791 21.6559 117.549 21.6559Z"
        fill="#FFFFFE" />
    <path
        d="M61.4914 40.7933L61.3971 39.0247C62.1831 39.0247 62.8434 38.9775 63.3779 38.8832C63.9124 38.7889 64.3368 38.6003 64.6513 38.3173C64.9657 38.0343 65.1936 37.6099 65.3351 37.0439C65.4766 36.478 65.5473 35.7313 65.5473 34.8037C65.5473 33.9234 65.4687 33.2317 65.3115 32.7286C65.1543 32.2256 64.9028 31.8719 64.5569 31.6675C64.2111 31.4474 63.7552 31.3374 63.1892 31.3374C62.8591 31.3374 62.4897 31.3609 62.0809 31.4081C61.6879 31.4395 61.2478 31.4867 60.7604 31.5496L59.2984 28.9321C59.8958 28.885 60.4932 28.8535 61.0905 28.8378C61.7036 28.8063 62.2381 28.7906 62.694 28.7906C64.1875 28.7906 65.3901 28.9557 66.3019 29.2858C67.2294 29.616 67.9054 30.2133 68.3299 31.078C68.7543 31.9269 68.9665 33.1452 68.9665 34.733C68.9665 35.8806 68.77 36.8474 68.377 37.6334C67.9997 38.4037 67.4652 39.0247 66.7735 39.4963C66.0975 39.9522 65.3037 40.2823 64.3919 40.4867C63.4958 40.6911 62.529 40.7933 61.4914 40.7933ZM62.8355 45.981C62.5211 45.981 62.1674 45.9732 61.7744 45.9575C61.3814 45.9575 60.9805 45.9417 60.5718 45.9103C60.1788 45.8946 59.7857 45.8789 59.3927 45.8631L60.9491 43.4107C61.4521 43.4736 61.9316 43.5286 62.3875 43.5758C62.8591 43.6072 63.2914 43.623 63.6844 43.623C64.0303 43.623 64.3526 43.6072 64.6513 43.5758C64.9657 43.5286 65.2172 43.4265 65.4058 43.2693C65.6102 43.112 65.7124 42.8448 65.7124 42.4675C65.7124 42.1217 65.6102 41.878 65.4058 41.7365C65.2172 41.595 64.9578 41.5164 64.6277 41.5007C64.3133 41.4693 63.9595 41.4535 63.5665 41.4535C63.3622 41.4535 63.1499 41.4614 62.9299 41.4771C62.7098 41.4771 62.4818 41.485 62.246 41.5007C62.0102 41.5007 61.7587 41.5086 61.4914 41.5243L61.3971 39.0247C63.3307 39.009 64.8556 39.1583 65.9718 39.4727C67.1037 39.7714 67.9133 40.1959 68.4006 40.7461C68.8879 41.2806 69.1316 41.9094 69.1316 42.6326C69.1316 43.4972 68.8879 44.1732 68.4006 44.6605C67.929 45.1479 67.2216 45.4937 66.2783 45.6981C65.3508 45.8867 64.2032 45.981 62.8355 45.981ZM59.3927 45.8631C59.3927 45.8631 59.3927 45.6116 59.3927 45.1086C59.4084 44.6055 59.4242 43.9374 59.4399 43.1042C59.4556 42.271 59.4635 41.3592 59.4635 40.3688C59.4792 39.3627 59.4871 38.3644 59.4871 37.374C59.4871 36.3679 59.4792 35.3697 59.4635 34.3793C59.4477 33.3889 59.4242 32.485 59.3927 31.6675C59.3613 30.8343 59.3377 30.174 59.322 29.6867C59.3063 29.1836 59.2984 28.9321 59.2984 28.9321L62.8355 29.1443C62.8355 29.1443 62.8355 29.3408 62.8355 29.7339C62.8355 30.1269 62.8277 30.6457 62.8119 31.2902C62.8119 31.919 62.8041 32.6029 62.7884 33.3417C62.7884 34.0806 62.7884 34.8116 62.7884 35.5347C62.7884 36.2422 62.7884 36.871 62.7884 37.4212C62.7884 37.9557 62.7884 38.5845 62.7884 39.3077C62.8041 40.0308 62.8119 40.7618 62.8119 41.5007C62.8119 42.2396 62.8119 42.9234 62.8119 43.5522C62.8277 44.181 62.8355 44.692 62.8355 45.085C62.8512 45.478 62.8591 45.6745 62.8591 45.6745L59.3927 45.8631ZM74.7967 45.981C73.9635 45.981 73.2561 45.8631 72.6744 45.6273C72.1085 45.3758 71.6447 45.0378 71.2832 44.6134C70.9373 44.1732 70.6779 43.6623 70.505 43.0806C70.3478 42.4989 70.2692 41.8701 70.2692 41.1941C70.2692 40.6439 70.2692 40.0387 70.2692 39.3784C70.2849 38.7024 70.2928 38.0343 70.2928 37.374C70.2928 36.6981 70.2928 36.0928 70.2928 35.5583C70.2928 34.8509 70.2928 34.1592 70.2928 33.4832C70.2928 32.8072 70.2849 32.1312 70.2692 31.4553C70.2692 30.7636 70.2535 30.0561 70.222 29.333L73.712 29.3566C73.6963 29.8753 73.6806 30.4256 73.6648 31.0072C73.6491 31.5732 73.6334 32.1391 73.6177 32.705C73.6177 33.271 73.6098 33.8133 73.5941 34.3321C73.5941 34.8352 73.5941 35.2911 73.5941 35.6998C73.5941 36.1557 73.5862 36.5802 73.5705 36.9732C73.5705 37.3662 73.5705 37.7356 73.5705 38.0815C73.5705 38.4273 73.5705 38.7417 73.5705 39.0247C73.5705 39.3077 73.5705 39.5671 73.5705 39.8029C73.5705 40.5575 73.602 41.1784 73.6648 41.6658C73.7277 42.1531 73.8535 42.5147 74.0421 42.7505C74.2308 42.9863 74.5059 43.1042 74.8675 43.1042C75.1504 43.1042 75.3705 43.0256 75.5277 42.8684C75.6849 42.6955 75.795 42.4675 75.8579 42.1845C75.9365 41.9016 75.9836 41.5793 75.9993 41.2177C76.0151 40.8561 76.0229 40.4867 76.0229 40.1094C76.0229 39.9522 76.0229 39.7164 76.0229 39.402C76.0386 39.0876 76.0465 38.6396 76.0465 38.0579C76.0465 37.4762 76.0465 36.7059 76.0465 35.747C76.0465 34.7409 76.0308 33.8291 75.9993 33.0116C75.9836 32.1784 75.9679 31.4395 75.9522 30.795C75.9365 30.1347 75.9207 29.5609 75.905 29.0736L79.4186 29.0972C79.4186 29.616 79.4107 30.119 79.395 30.6064C79.395 31.078 79.3871 31.5653 79.3714 32.0684C79.3714 32.5714 79.3635 33.1216 79.3478 33.719C79.3478 34.3164 79.3478 35.0081 79.3478 35.7941C79.3635 37.1304 79.3714 38.2701 79.3714 39.2134C79.3714 40.1409 79.3714 40.7854 79.3714 41.147C79.3714 41.65 79.3007 42.1845 79.1592 42.7505C79.0334 43.3164 78.7976 43.8431 78.4517 44.3304C78.1216 44.8177 77.6579 45.2186 77.0605 45.533C76.4631 45.8317 75.7085 45.981 74.7967 45.981ZM83.3731 41.2177V38.6003C84.002 38.6789 84.5443 38.6317 85.0002 38.4588C85.4561 38.2858 85.8334 38.0186 86.1321 37.657C86.4465 37.2954 86.6744 36.8631 86.8159 36.3601C86.9731 35.8413 87.0517 35.2911 87.0517 34.7094C87.0517 33.9234 86.981 33.2867 86.8395 32.7994C86.7137 32.312 86.5015 31.9583 86.2028 31.7382C85.9199 31.5024 85.5426 31.3845 85.071 31.3845C84.7723 31.3845 84.395 31.4081 83.9391 31.4553C83.4989 31.4867 83.0587 31.5417 82.6185 31.6203L81.1565 28.9557C81.5181 28.9243 81.8875 28.9007 82.2648 28.885C82.6421 28.8535 83.0116 28.8378 83.3731 28.8378C83.7347 28.8221 84.0648 28.8142 84.3635 28.8142C85.7155 28.8142 86.8395 28.9871 87.7356 29.333C88.6317 29.6631 89.3076 30.2526 89.7635 31.1015C90.2194 31.9505 90.4474 33.1295 90.4474 34.6387C90.4474 35.7706 90.2745 36.7531 89.9286 37.5863C89.5985 38.4037 89.119 39.0797 88.4902 39.6142C87.8771 40.1487 87.1382 40.5496 86.2736 40.8168C85.4089 41.0841 84.4421 41.2177 83.3731 41.2177ZM81.2509 45.8631C81.2666 45.2343 81.2823 44.4483 81.298 43.5051C81.3137 42.5618 81.3216 41.5636 81.3216 40.5103C81.3373 39.4413 81.3452 38.4195 81.3452 37.4448C81.3452 36.4544 81.3295 35.4326 81.298 34.3793C81.2823 33.3103 81.2587 32.2963 81.2273 31.3374C81.2116 30.3784 81.188 29.5845 81.1565 28.9557L84.6701 29.1915C84.6544 29.5845 84.6386 30.0326 84.6229 30.5356C84.6072 31.0387 84.5915 31.581 84.5758 32.1627C84.5758 32.7443 84.5758 33.3417 84.5758 33.9548C84.5915 34.5522 84.5993 35.1496 84.5993 35.747C84.5993 36.3286 84.6072 36.8789 84.6229 37.3976C84.6229 37.9007 84.6229 38.4981 84.6229 39.1898C84.6386 39.8815 84.6465 40.6125 84.6465 41.3828C84.6622 42.1531 84.6701 42.9077 84.6701 43.6465C84.6858 44.3697 84.6937 45.03 84.6937 45.6273L81.2509 45.8631ZM87.9006 45.8867C87.6491 45.1636 87.3819 44.4483 87.0989 43.7409C86.8317 43.0177 86.5408 42.2867 86.2264 41.5479C85.912 40.809 85.5819 40.0544 85.236 39.2841L88.3958 38.5531C88.7103 39.3234 89.0404 40.1094 89.3862 40.9112C89.7321 41.6972 90.1015 42.4989 90.4945 43.3164C90.9033 44.1182 91.3434 44.9514 91.8151 45.816L87.9006 45.8867ZM91.5844 37.7278C91.5844 37.209 91.5923 36.7059 91.608 36.2186C91.6394 35.7313 91.6787 35.2596 91.7259 34.8037C91.7731 34.3478 91.8359 33.9155 91.9145 33.5068C92.0089 33.0823 92.1189 32.6815 92.2447 32.3042C92.5905 31.2666 93.1014 30.4413 93.7774 29.8282C94.4691 29.2151 95.4124 28.9085 96.6071 28.9085C97.6604 28.9085 98.4857 29.105 99.0831 29.4981C99.6805 29.8753 100.105 30.4256 100.356 31.1487C100.608 31.8561 100.734 32.705 100.734 33.6954C100.734 34.1671 100.71 34.6701 100.663 35.2046C100.616 35.7234 100.553 36.2736 100.474 36.8553L97.1731 36.8317C97.2359 36.1871 97.291 35.5976 97.3381 35.0631C97.3853 34.5129 97.4089 34.0177 97.4089 33.5775C97.4089 33.1531 97.3774 32.7915 97.3146 32.4928C97.2517 32.1941 97.1495 31.9662 97.008 31.809C96.8665 31.6518 96.6621 31.5732 96.3949 31.5732C96.0648 31.5732 95.8132 31.7382 95.6403 32.0684C95.4831 32.3828 95.3573 32.8151 95.263 33.3653C95.2159 33.6168 95.1766 33.8919 95.1451 34.1906C95.1294 34.4736 95.1137 34.7802 95.098 35.1103C95.098 35.4247 95.098 35.7627 95.098 36.1243C95.098 36.4858 95.098 36.8553 95.098 37.2326C95.098 37.7828 95.098 38.3016 95.098 38.7889C95.1137 39.2762 95.1294 39.7321 95.1451 40.1566C95.1608 40.5653 95.1923 40.9426 95.2394 41.2885C95.318 41.8858 95.4595 42.3575 95.6639 42.7033C95.884 43.0334 96.2063 43.1985 96.6307 43.1985C96.9294 43.1985 97.1731 43.1513 97.3617 43.057C97.5661 42.947 97.7154 42.7898 97.8097 42.5854C97.9198 42.381 97.9748 42.1138 97.9748 41.7837C97.9748 41.7051 97.967 41.6186 97.9512 41.5243C97.9512 41.4299 97.9434 41.3278 97.9277 41.2177L96.5835 41.2649V38.954L100.734 39.0011L100.781 45.7452H99.2482L98.8945 44.7548C98.6429 45.1007 98.2971 45.3837 97.8569 45.6038C97.4325 45.8238 96.8351 45.9339 96.0648 45.9339C95.3102 45.9339 94.6735 45.8081 94.1547 45.5566C93.6359 45.2893 93.2115 44.9199 92.8814 44.4483C92.5512 43.961 92.2918 43.395 92.1032 42.7505C91.9774 42.2789 91.8752 41.7758 91.7966 41.2413C91.718 40.7068 91.663 40.1487 91.6316 39.5671C91.6001 38.9697 91.5844 38.3566 91.5844 37.7278ZM106.99 45.981C106.157 45.981 105.449 45.8631 104.868 45.6273C104.302 45.3758 103.838 45.0378 103.477 44.6134C103.131 44.1732 102.871 43.6623 102.698 43.0806C102.541 42.4989 102.463 41.8701 102.463 41.1941C102.463 40.6439 102.463 40.0387 102.463 39.3784C102.478 38.7024 102.486 38.0343 102.486 37.374C102.486 36.6981 102.486 36.0928 102.486 35.5583C102.486 34.8509 102.486 34.1592 102.486 33.4832C102.486 32.8072 102.478 32.1312 102.463 31.4553C102.463 30.7636 102.447 30.0561 102.415 29.333L105.905 29.7103C105.89 30.402 105.874 31.1094 105.858 31.8326C105.842 32.54 105.827 33.2317 105.811 33.9077C105.811 34.5679 105.803 35.1653 105.787 35.6998C105.787 36.1557 105.78 36.5802 105.764 36.9732C105.764 37.3662 105.764 37.7356 105.764 38.0815C105.764 38.4273 105.764 38.7417 105.764 39.0247C105.764 39.3077 105.764 39.5671 105.764 39.8029C105.764 40.5575 105.795 41.1784 105.858 41.6658C105.921 42.1531 106.047 42.5147 106.235 42.7505C106.424 42.9863 106.699 43.1042 107.061 43.1042C107.344 43.1042 107.564 43.0256 107.721 42.8684C107.878 42.6955 107.988 42.4675 108.051 42.1845C108.13 41.9016 108.177 41.5793 108.193 41.2177C108.208 40.8561 108.216 40.4867 108.216 40.1094C108.216 39.9522 108.216 39.7164 108.216 39.402C108.232 39.0876 108.24 38.6396 108.24 38.0579C108.24 37.4762 108.24 36.7059 108.24 35.747C108.24 34.7409 108.224 33.8291 108.193 33.0116C108.177 32.1784 108.161 31.4395 108.146 30.795C108.13 30.1347 108.114 29.5609 108.098 29.0736L111.612 28.6963C111.612 29.388 111.604 30.0876 111.588 30.795C111.573 31.4867 111.557 32.2334 111.541 33.0352C111.541 33.8369 111.541 34.7566 111.541 35.7941C111.557 37.1304 111.565 38.2701 111.565 39.2134C111.565 40.1409 111.565 40.7854 111.565 41.147C111.565 41.65 111.494 42.1845 111.353 42.7505C111.227 43.3164 110.991 43.8431 110.645 44.3304C110.315 44.8177 109.851 45.2186 109.254 45.533C108.656 45.8317 107.902 45.981 106.99 45.981ZM113.586 45.7688C113.586 45.7688 113.586 45.6195 113.586 45.3208C113.601 45.0221 113.609 44.6055 113.609 44.071C113.625 43.5365 113.633 42.9313 113.633 42.2553C113.649 41.5636 113.656 40.8326 113.656 40.0623C113.672 39.2762 113.68 38.4823 113.68 37.6806C113.68 36.6745 113.672 35.6684 113.656 34.6623C113.641 33.6561 113.617 32.7443 113.586 31.9269C113.554 31.0937 113.531 30.4334 113.515 29.9461C113.499 29.443 113.491 29.1915 113.491 29.1915L117.028 29.5216C117.028 29.5216 117.021 29.7181 117.005 30.1112C117.005 30.4884 117.005 30.9915 117.005 31.6203C117.005 32.2334 116.997 32.9094 116.981 33.6483C116.981 34.3871 116.973 35.1103 116.958 35.8177C116.958 36.5251 116.958 37.154 116.958 37.7042C116.958 38.2544 116.958 38.8832 116.958 39.5906C116.973 40.2981 116.981 41.0055 116.981 41.7129C116.981 42.4203 116.981 43.0727 116.981 43.6701C116.997 44.2675 117.005 44.7548 117.005 45.1321C117.021 45.4937 117.028 45.6745 117.028 45.6745L113.586 45.7688ZM113.586 45.7688L115.189 43.3872L121.509 43.5051L121.532 45.7452L113.586 45.7688ZM115.095 41.5007V38.7653L121.462 38.8361L121.415 41.4064L115.095 41.5007ZM114.883 31.809L113.491 29.1915L121.249 29.4037V31.7854L114.883 31.809ZM125.215 41.2177V38.6003C125.844 38.6789 126.386 38.6317 126.842 38.4588C127.298 38.2858 127.676 38.0186 127.974 37.657C128.289 37.2954 128.517 36.8631 128.658 36.3601C128.815 35.8413 128.894 35.2911 128.894 34.7094C128.894 33.9234 128.823 33.2867 128.682 32.7994C128.556 32.312 128.344 31.9583 128.045 31.7382C127.762 31.5024 127.385 31.3845 126.913 31.3845C126.614 31.3845 126.237 31.4081 125.781 31.4553C125.341 31.4867 124.901 31.5417 124.461 31.6203L122.999 28.9557C123.36 28.9243 123.73 28.9007 124.107 28.885C124.484 28.8535 124.854 28.8378 125.215 28.8378C125.577 28.8221 125.907 28.8142 126.206 28.8142C127.558 28.8142 128.682 28.9871 129.578 29.333C130.474 29.6631 131.15 30.2526 131.606 31.1015C132.062 31.9505 132.29 33.1295 132.29 34.6387C132.29 35.7706 132.117 36.7531 131.771 37.5863C131.441 38.4037 130.961 39.0797 130.332 39.6142C129.719 40.1487 128.98 40.5496 128.116 40.8168C127.251 41.0841 126.284 41.2177 125.215 41.2177ZM123.093 45.8631C123.109 45.2343 123.124 44.4483 123.14 43.5051C123.156 42.5618 123.164 41.5636 123.164 40.5103C123.179 39.4413 123.187 38.4195 123.187 37.4448C123.187 36.4544 123.172 35.4326 123.14 34.3793C123.124 33.3103 123.101 32.2963 123.069 31.3374C123.054 30.3784 123.03 29.5845 122.999 28.9557L126.512 29.1915C126.496 29.5845 126.481 30.0326 126.465 30.5356C126.449 31.0387 126.434 31.581 126.418 32.1627C126.418 32.7443 126.418 33.3417 126.418 33.9548C126.434 34.5522 126.441 35.1496 126.441 35.747C126.441 36.3286 126.449 36.8789 126.465 37.3976C126.465 37.9007 126.465 38.4981 126.465 39.1898C126.481 39.8815 126.489 40.6125 126.489 41.3828C126.504 42.1531 126.512 42.9077 126.512 43.6465C126.528 44.3697 126.536 45.03 126.536 45.6273L123.093 45.8631ZM129.743 45.8867C129.491 45.1636 129.224 44.4483 128.941 43.7409C128.674 43.0177 128.383 42.2867 128.069 41.5479C127.754 40.809 127.424 40.0544 127.078 39.2841L130.238 38.5531C130.552 39.3234 130.883 40.1094 131.228 40.9112C131.574 41.6972 131.944 42.4989 132.337 43.3164C132.745 44.1182 133.186 44.9514 133.657 45.816L129.743 45.8867Z"
        fill="#421709" />
</svg>