<svg width="1165" height="465" viewBox="0 0 1165 465" fill="none" xmlns="http://www.w3.org/2000/svg">
<path d="M228.413 159L227.213 136.5C237.213 136.5 245.613 135.9 252.413 134.7C259.213 133.5 264.613 131.1 268.613 127.5C272.613 123.9 275.513 118.5 277.313 111.3C279.113 104.1 280.013 94.6 280.013 82.8C280.013 71.6 279.013 62.8 277.013 56.4C275.013 50 271.813 45.5 267.413 42.9C263.013 40.1 257.213 38.7 250.013 38.7C245.813 38.7 241.113 39 235.913 39.6C230.913 40 225.313 40.6 219.113 41.4L200.513 8.09998C208.113 7.49999 215.713 7.1 223.313 6.9C231.113 6.49999 237.913 6.29999 243.713 6.29999C262.713 6.29999 278.013 8.39999 289.613 12.6C301.413 16.8 310.013 24.4 315.413 35.4C320.813 46.2 323.513 61.7 323.513 81.9C323.513 96.5 321.013 108.8 316.013 118.8C311.213 128.6 304.413 136.5 295.613 142.5C287.013 148.3 276.913 152.5 265.313 155.1C253.913 157.7 241.613 159 228.413 159ZM245.513 225C241.513 225 237.013 224.9 232.013 224.7C227.013 224.7 221.913 224.5 216.713 224.1C211.713 223.9 206.713 223.7 201.713 223.5L221.513 192.3C227.913 193.1 234.013 193.8 239.813 194.4C245.813 194.8 251.313 195 256.313 195C260.713 195 264.813 194.8 268.613 194.4C272.613 193.8 275.813 192.5 278.213 190.5C280.813 188.5 282.113 185.1 282.113 180.3C282.113 175.9 280.813 172.8 278.213 171C275.813 169.2 272.513 168.2 268.313 168C264.313 167.6 259.813 167.4 254.813 167.4C252.213 167.4 249.513 167.5 246.713 167.7C243.913 167.7 241.013 167.8 238.013 168C235.013 168 231.813 168.1 228.413 168.3L227.213 136.5C251.813 136.3 271.213 138.2 285.413 142.2C299.813 146 310.113 151.4 316.313 158.4C322.513 165.2 325.613 173.2 325.613 182.4C325.613 193.4 322.513 202 316.313 208.2C310.313 214.4 301.313 218.8 289.313 221.4C277.513 223.8 262.913 225 245.513 225ZM201.713 223.5C201.713 223.5 201.713 220.3 201.713 213.9C201.913 207.5 202.113 199 202.313 188.4C202.513 177.8 202.613 166.2 202.613 153.6C202.813 140.8 202.913 128.1 202.913 115.5C202.913 102.7 202.813 90 202.613 77.4C202.413 64.8 202.113 53.3 201.713 42.9C201.313 32.3 201.013 23.9 200.813 17.7C200.613 11.3 200.513 8.09998 200.513 8.09998L245.513 10.8C245.513 10.8 245.513 13.3 245.513 18.3C245.513 23.3 245.413 29.9 245.213 38.1C245.213 46.1 245.113 54.8 244.913 64.2C244.913 73.6 244.913 82.9 244.913 92.1C244.913 101.1 244.913 109.1 244.913 116.1C244.913 122.9 244.913 130.9 244.913 140.1C245.113 149.3 245.213 158.6 245.213 168C245.213 177.4 245.213 186.1 245.213 194.1C245.413 202.1 245.513 208.6 245.513 213.6C245.713 218.6 245.813 221.1 245.813 221.1L201.713 223.5ZM361.205 164.4V131.1C369.205 132.1 376.105 131.5 381.905 129.3C387.705 127.1 392.505 123.7 396.305 119.1C400.305 114.5 403.205 109 405.005 102.6C407.005 96 408.005 89 408.005 81.6C408.005 71.6 407.105 63.5 405.305 57.3C403.705 51.1 401.005 46.6 397.205 43.8C393.605 40.8 388.805 39.3 382.805 39.3C379.005 39.3 374.205 39.6 368.405 40.2C362.805 40.6 357.205 41.3 351.605 42.3L333.005 8.4C337.605 7.99999 342.305 7.69999 347.105 7.49999C351.905 7.1 356.605 6.9 361.205 6.9C365.805 6.69999 370.005 6.59998 373.805 6.59998C391.005 6.59998 405.305 8.79999 416.705 13.2C428.105 17.4 436.705 24.9 442.505 35.7C448.305 46.5 451.205 61.5 451.205 80.7C451.205 95.1 449.005 107.6 444.605 118.2C440.405 128.6 434.305 137.2 426.305 144C418.505 150.8 409.105 155.9 398.105 159.3C387.105 162.7 374.805 164.4 361.205 164.4ZM334.205 223.5C334.405 215.5 334.605 205.5 334.805 193.5C335.005 181.5 335.105 168.8 335.105 155.4C335.305 141.8 335.405 128.8 335.405 116.4C335.405 103.8 335.205 90.8 334.805 77.4C334.605 63.8 334.305 50.9 333.905 38.7C333.705 26.5 333.405 16.4 333.005 8.4L377.705 11.4C377.505 16.4 377.305 22.1 377.105 28.5C376.905 34.9 376.705 41.8 376.505 49.2C376.505 56.6 376.505 64.2 376.505 72C376.705 79.6 376.805 87.2 376.805 94.8C376.805 102.2 376.905 109.2 377.105 115.8C377.105 122.2 377.105 129.8 377.105 138.6C377.305 147.4 377.405 156.7 377.405 166.5C377.605 176.3 377.705 185.9 377.705 195.3C377.905 204.5 378.005 212.9 378.005 220.5L334.205 223.5ZM418.805 223.8C415.605 214.6 412.205 205.5 408.605 196.5C405.205 187.3 401.505 178 397.505 168.6C393.505 159.2 389.305 149.6 384.905 139.8L425.105 130.5C429.105 140.3 433.305 150.3 437.705 160.5C442.105 170.5 446.805 180.7 451.805 191.1C457.005 201.3 462.605 211.9 468.605 222.9L418.805 223.8ZM521.291 223.5C511.091 223.5 502.591 221.8 495.791 218.4C488.991 214.8 483.591 209.8 479.591 203.4C475.591 196.8 472.491 189.1 470.291 180.3C468.891 174.3 467.791 167.9 466.991 161.1C466.391 154.1 465.891 146.7 465.491 138.9C465.291 131.1 465.191 123.1 465.191 114.9C465.191 109.3 465.291 103.9 465.491 98.7C465.691 93.3 465.991 88.1 466.391 83.1C466.991 78.1 467.591 73.3 468.191 68.7C468.991 63.9 469.991 59.4 471.191 55.2C474.991 41.6 481.091 30.7 489.491 22.5C497.891 14.3 509.691 10.2 524.891 10.2C535.891 10.2 544.891 12.2 551.891 16.2C558.891 20 564.391 25.5 568.391 32.7C572.591 39.9 575.591 48.4 577.391 58.2C578.991 66.2 579.991 75.1 580.391 84.9C580.991 94.5 581.291 104.6 581.291 115.2C581.291 124 580.991 132.6 580.391 141C579.991 149.2 579.191 157 577.991 164.4C576.991 171.8 575.391 178.7 573.191 185.1C569.191 196.7 563.091 206 554.891 213C546.691 220 535.491 223.5 521.291 223.5ZM523.691 188.7C526.091 188.7 527.991 188.1 529.391 186.9C530.991 185.5 532.291 183.4 533.291 180.6C534.291 177.6 535.091 173.8 535.691 169.2C536.491 162.2 536.891 153.8 536.891 144C537.091 134 537.191 124.1 537.191 114.3C537.191 106.1 537.191 98 537.191 90C537.191 82 536.991 75.2 536.591 69.6C535.991 60.8 534.791 54.5 532.991 50.7C531.191 46.7 528.191 44.7 523.991 44.7C519.591 44.7 516.291 46.8 514.091 51C512.091 55.2 510.891 61.8 510.491 70.8C510.091 73.8 509.791 77.2 509.591 81C509.591 84.6 509.591 88.5 509.591 92.7C509.591 96.7 509.591 100.9 509.591 105.3C509.591 109.7 509.591 114 509.591 118.2C509.591 128 509.591 137.6 509.591 147C509.791 156.2 510.291 163.9 511.091 170.1C511.491 174.5 512.191 178.1 513.191 180.9C514.191 183.7 515.491 185.7 517.091 186.9C518.891 188.1 521.091 188.7 523.691 188.7ZM602.886 10.8H645.186C645.786 12.8 646.986 16.4 648.786 21.6C650.586 26.6 652.686 32.7 655.086 39.9C657.686 46.9 660.386 54.4 663.186 62.4C665.986 70.4 668.686 78.2 671.286 85.8C673.486 92.2 675.586 98.3 677.586 104.1C679.586 109.7 681.286 114.6 682.686 118.8C684.286 123 685.486 126.2 686.286 128.4C686.286 125 686.286 121.1 686.286 116.7C686.286 112.3 686.186 107.6 685.986 102.6C685.986 97.6 685.886 92.4 685.686 87C685.686 81.6 685.686 76.1 685.686 70.5C685.486 65.5 685.286 60.6 685.086 55.8C685.086 51 685.086 46.3 685.086 41.7C685.086 37.1 684.986 32.7 684.786 28.5C684.786 24.3 684.686 20.5 684.486 17.1C684.486 13.5 684.386 10.3 684.186 7.49999H725.286C725.086 12.9 724.886 19 724.686 25.8C724.686 32.6 724.586 39.8 724.386 47.4C724.386 55 724.286 63 724.086 71.4C724.086 79.8 723.986 88.4 723.786 97.2C723.586 107.8 723.386 118.5 723.186 129.3C723.186 140.1 723.186 150.7 723.186 161.1C723.186 171.5 723.086 181.5 722.886 191.1C722.886 200.7 722.786 209.6 722.586 217.8L682.086 219.9C680.886 216.5 679.286 212.2 677.286 207C675.286 201.6 673.086 195.7 670.686 189.3C668.286 182.7 665.786 176 663.186 169.2C660.586 162.2 658.086 155.6 655.686 149.4C654.286 145.8 652.886 142.4 651.486 139.2C650.286 135.8 649.086 132.7 647.886 129.9C646.886 127.1 645.986 124.6 645.186 122.4C644.386 120.2 643.686 118.5 643.086 117.3C643.086 121.1 643.086 125 643.086 129C643.086 132.8 643.086 136.6 643.086 140.4C643.086 144.2 643.086 147.9 643.086 151.5C643.086 155.1 643.086 158.7 643.086 162.3C643.086 167.3 643.086 172.2 643.086 177C643.286 181.8 643.386 186.4 643.386 190.8C643.586 195 643.686 199 643.686 202.8C643.686 206.6 643.686 210.1 643.686 213.3C643.886 216.5 643.986 219.4 643.986 222L603.786 221.7C603.786 216.5 603.786 211 603.786 205.2C603.986 199.4 604.086 193.3 604.086 186.9C604.286 180.5 604.386 173.9 604.386 167.1C604.386 160.3 604.386 153.3 604.386 146.1C604.386 133.9 604.386 121.6 604.386 109.2C604.386 96.8 604.286 84.7 604.086 72.9C603.886 60.9 603.686 49.7 603.486 39.3C603.486 28.7 603.286 19.2 602.886 10.8ZM825.041 223.2C818.641 213 812.541 203.8 806.741 195.6C801.141 187.4 795.441 179.5 789.641 171.9C784.041 164.3 778.041 156.5 771.641 148.5C776.641 137.1 781.941 125.2 787.541 112.8C793.141 100.2 798.541 87.8 803.741 75.6C808.941 63.2 813.741 51.6 818.141 40.8C822.541 30 826.041 20.6 828.641 12.6L874.541 14.1C870.141 22.5 865.141 32.4 859.541 43.8C854.141 55 848.541 66.6 842.741 78.6C836.941 90.4 831.441 101.8 826.241 112.8C821.241 123.6 816.941 132.9 813.341 140.7C817.941 147.3 822.241 153.5 826.241 159.3C830.441 164.9 834.741 170.7 839.141 176.7C843.541 182.5 848.641 188.9 854.441 195.9C860.241 202.9 867.041 211 874.841 220.2L825.041 223.2ZM745.541 222C745.741 216.2 745.841 210 745.841 203.4C746.041 196.8 746.141 189.9 746.141 182.7C746.341 175.5 746.441 168.2 746.441 160.8C746.641 153.2 746.741 145.7 746.741 138.3C746.741 130.7 746.741 123.3 746.741 116.1C746.741 106.5 746.641 97 746.441 87.6C746.241 78.2 746.041 69.2 745.841 60.6C745.641 51.8 745.441 43.7 745.241 36.3C745.041 28.7 744.841 22.2 744.641 16.8L790.841 12.6C790.841 17 790.741 22.6 790.541 29.4C790.541 36.2 790.541 43.5 790.541 51.3C790.541 59.1 790.441 67 790.241 75C790.241 83 790.141 90.6 789.941 97.8C789.941 105 789.941 111.2 789.941 116.4C789.941 120.4 789.941 125.8 789.941 132.6C790.141 139.2 790.241 146.6 790.241 154.8C790.241 162.8 790.241 170.9 790.241 179.1C790.441 187.3 790.541 195 790.541 202.2C790.741 209.2 790.841 215 790.841 219.6L745.541 222ZM923.724 225C913.324 225 904.224 223.8 896.424 221.4C888.624 218.8 882.024 215.2 876.624 210.6C871.424 205.8 867.424 200.2 864.624 193.8C862.024 187.2 860.724 179.9 860.724 171.9C860.724 168.9 860.924 165.8 861.324 162.6C861.724 159.2 862.324 155.9 863.124 152.7H903.624C902.624 155.9 901.824 158.9 901.224 161.7C900.824 164.5 900.624 167.1 900.624 169.5C900.624 174.5 901.524 178.8 903.324 182.4C905.124 186 907.624 188.8 910.824 190.8C914.224 192.6 918.124 193.5 922.524 193.5C928.524 193.5 933.224 192.7 936.624 191.1C940.224 189.3 942.724 187 944.124 184.2C945.524 181.2 946.224 177.9 946.224 174.3C946.224 170.7 945.424 167.7 943.824 165.3C942.424 162.7 940.324 160.5 937.524 158.7C934.724 156.7 931.224 154.8 927.024 153C923.024 151 918.424 148.8 913.224 146.4C906.424 143.2 899.824 139.6 893.424 135.6C887.224 131.6 881.624 126.8 876.624 121.2C871.624 115.6 867.624 109 864.624 101.4C861.624 93.6 860.124 84.5 860.124 74.1C860.124 62.3 862.324 51.6 866.724 42C871.324 32.4 878.424 24.8 888.024 19.2C897.824 13.4 910.524 10.5 926.124 10.5C941.124 10.5 953.224 13.1 962.424 18.3C971.824 23.3 978.624 30.5 982.824 39.9C987.224 49.3 989.424 60.5 989.424 73.5C989.424 76.5 989.224 79.6 988.824 82.8C988.624 86 988.324 89.3 987.924 92.7C987.524 96.1 987.024 99.6 986.424 103.2H943.524C944.124 97.8 944.524 92.7 944.724 87.9C945.124 83.1 945.324 78.7 945.324 74.7C945.324 67.9 944.724 62.1 943.524 57.3C942.324 52.5 940.224 48.9 937.224 46.5C934.224 43.9 930.024 42.6 924.624 42.6C920.824 42.6 917.524 43.3 914.724 44.7C911.924 46.1 909.624 48.1 907.824 50.7C906.024 53.3 904.724 56.4 903.924 60C903.124 63.4 902.724 67.3 902.724 71.7C902.724 78.5 903.924 84.2 906.324 88.8C908.724 93.2 912.224 97 916.824 100.2C921.624 103.4 927.224 106.5 933.624 109.5C940.624 112.7 947.324 116.1 953.724 119.7C960.324 123.3 966.324 127.5 971.724 132.3C977.124 136.9 981.324 142.5 984.324 149.1C987.524 155.5 989.124 163.4 989.124 172.8C989.124 181.8 986.924 190.3 982.524 198.3C978.324 206.1 971.424 212.5 961.824 217.5C952.224 222.5 939.524 225 923.724 225ZM170.552 399L169.352 376.5C179.352 376.5 187.752 375.9 194.552 374.7C201.352 373.5 206.752 371.1 210.752 367.5C214.752 363.9 217.652 358.5 219.452 351.3C221.252 344.1 222.152 334.6 222.152 322.8C222.152 311.6 221.152 302.8 219.152 296.4C217.152 290 213.952 285.5 209.552 282.9C205.152 280.1 199.352 278.7 192.152 278.7C187.952 278.7 183.252 279 178.052 279.6C173.052 280 167.452 280.6 161.252 281.4L142.652 248.1C150.252 247.5 157.852 247.1 165.452 246.9C173.252 246.5 180.052 246.3 185.852 246.3C204.852 246.3 220.152 248.4 231.752 252.6C243.552 256.8 252.152 264.4 257.552 275.4C262.952 286.2 265.652 301.7 265.652 321.9C265.652 336.5 263.152 348.8 258.152 358.8C253.352 368.6 246.552 376.5 237.752 382.5C229.152 388.3 219.052 392.5 207.452 395.1C196.052 397.7 183.752 399 170.552 399ZM187.652 465C183.652 465 179.152 464.9 174.152 464.7C169.152 464.7 164.052 464.5 158.852 464.1C153.852 463.9 148.852 463.7 143.852 463.5L163.652 432.3C170.052 433.1 176.152 433.8 181.952 434.4C187.952 434.8 193.452 435 198.452 435C202.852 435 206.952 434.8 210.752 434.4C214.752 433.8 217.952 432.5 220.352 430.5C222.952 428.5 224.252 425.1 224.252 420.3C224.252 415.9 222.952 412.8 220.352 411C217.952 409.2 214.652 408.2 210.452 408C206.452 407.6 201.952 407.4 196.952 407.4C194.352 407.4 191.652 407.5 188.852 407.7C186.052 407.7 183.152 407.8 180.152 408C177.152 408 173.952 408.1 170.552 408.3L169.352 376.5C193.952 376.3 213.352 378.2 227.552 382.2C241.952 386 252.252 391.4 258.452 398.4C264.652 405.2 267.752 413.2 267.752 422.4C267.752 433.4 264.652 442 258.452 448.2C252.452 454.4 243.452 458.8 231.452 461.4C219.652 463.8 205.052 465 187.652 465ZM143.852 463.5C143.852 463.5 143.852 460.3 143.852 453.9C144.052 447.5 144.252 439 144.452 428.4C144.652 417.8 144.752 406.2 144.752 393.6C144.952 380.8 145.052 368.1 145.052 355.5C145.052 342.7 144.952 330 144.752 317.4C144.552 304.8 144.252 293.3 143.852 282.9C143.452 272.3 143.152 263.9 142.952 257.7C142.752 251.3 142.652 248.1 142.652 248.1L187.652 250.8C187.652 250.8 187.652 253.3 187.652 258.3C187.652 263.3 187.552 269.9 187.352 278.1C187.352 286.1 187.252 294.8 187.052 304.2C187.052 313.6 187.052 322.9 187.052 332.1C187.052 341.1 187.052 349.1 187.052 356.1C187.052 362.9 187.052 370.9 187.052 380.1C187.252 389.3 187.352 398.6 187.352 408C187.352 417.4 187.352 426.1 187.352 434.1C187.552 442.1 187.652 448.6 187.652 453.6C187.852 458.6 187.952 461.1 187.952 461.1L143.852 463.5ZM334.844 465C324.244 465 315.244 463.5 307.844 460.5C300.644 457.3 294.744 453 290.144 447.6C285.744 442 282.444 435.5 280.244 428.1C278.244 420.7 277.244 412.7 277.244 404.1C277.244 397.1 277.244 389.4 277.244 381C277.444 372.4 277.544 363.9 277.544 355.5C277.544 346.9 277.544 339.2 277.544 332.4C277.544 323.4 277.544 314.6 277.544 306C277.544 297.4 277.444 288.8 277.244 280.2C277.244 271.4 277.044 262.4 276.644 253.2L321.044 253.5C320.844 260.1 320.644 267.1 320.444 274.5C320.244 281.7 320.044 288.9 319.844 296.1C319.844 303.3 319.744 310.2 319.544 316.8C319.544 323.2 319.544 329 319.544 334.2C319.544 340 319.444 345.4 319.244 350.4C319.244 355.4 319.244 360.1 319.244 364.5C319.244 368.9 319.244 372.9 319.244 376.5C319.244 380.1 319.244 383.4 319.244 386.4C319.244 396 319.644 403.9 320.444 410.1C321.244 416.3 322.844 420.9 325.244 423.9C327.644 426.9 331.144 428.4 335.744 428.4C339.344 428.4 342.144 427.4 344.144 425.4C346.144 423.2 347.544 420.3 348.344 416.7C349.344 413.1 349.944 409 350.144 404.4C350.344 399.8 350.444 395.1 350.444 390.3C350.444 388.3 350.444 385.3 350.444 381.3C350.644 377.3 350.744 371.6 350.744 364.2C350.744 356.8 350.744 347 350.744 334.8C350.744 322 350.544 310.4 350.144 300C349.944 289.4 349.744 280 349.544 271.8C349.344 263.4 349.144 256.1 348.944 249.9L393.644 250.2C393.644 256.8 393.544 263.2 393.344 269.4C393.344 275.4 393.244 281.6 393.044 288C393.044 294.4 392.944 301.4 392.744 309C392.744 316.6 392.744 325.4 392.744 335.4C392.944 352.4 393.044 366.9 393.044 378.9C393.044 390.7 393.044 398.9 393.044 403.5C393.044 409.9 392.144 416.7 390.344 423.9C388.744 431.1 385.744 437.8 381.344 444C377.144 450.2 371.244 455.3 363.644 459.3C356.044 463.1 346.444 465 334.844 465ZM439.868 404.4V371.1C447.868 372.1 454.768 371.5 460.568 369.3C466.368 367.1 471.168 363.7 474.968 359.1C478.968 354.5 481.868 349 483.668 342.6C485.668 336 486.668 329 486.668 321.6C486.668 311.6 485.768 303.5 483.968 297.3C482.368 291.1 479.668 286.6 475.868 283.8C472.268 280.8 467.468 279.3 461.468 279.3C457.668 279.3 452.868 279.6 447.068 280.2C441.468 280.6 435.868 281.3 430.268 282.3L411.668 248.4C416.268 248 420.968 247.7 425.768 247.5C430.568 247.1 435.268 246.9 439.868 246.9C444.468 246.7 448.668 246.6 452.468 246.6C469.668 246.6 483.968 248.8 495.368 253.2C506.768 257.4 515.368 264.9 521.168 275.7C526.968 286.5 529.868 301.5 529.868 320.7C529.868 335.1 527.668 347.6 523.268 358.2C519.068 368.6 512.968 377.2 504.968 384C497.168 390.8 487.768 395.9 476.768 399.3C465.768 402.7 453.468 404.4 439.868 404.4ZM412.868 463.5C413.068 455.5 413.268 445.5 413.468 433.5C413.668 421.5 413.768 408.8 413.768 395.4C413.968 381.8 414.068 368.8 414.068 356.4C414.068 343.8 413.868 330.8 413.468 317.4C413.268 303.8 412.968 290.9 412.568 278.7C412.368 266.5 412.068 256.4 411.668 248.4L456.368 251.4C456.168 256.4 455.968 262.1 455.768 268.5C455.568 274.9 455.368 281.8 455.168 289.2C455.168 296.6 455.168 304.2 455.168 312C455.368 319.6 455.468 327.2 455.468 334.8C455.468 342.2 455.568 349.2 455.768 355.8C455.768 362.2 455.768 369.8 455.768 378.6C455.968 387.4 456.068 396.7 456.068 406.5C456.268 416.3 456.368 425.9 456.368 435.3C456.568 444.5 456.668 452.9 456.668 460.5L412.868 463.5ZM497.468 463.8C494.268 454.6 490.868 445.5 487.268 436.5C483.868 427.3 480.168 418 476.168 408.6C472.168 399.2 467.968 389.6 463.568 379.8L503.768 370.5C507.768 380.3 511.968 390.3 516.368 400.5C520.768 410.5 525.468 420.7 530.468 431.1C535.668 441.3 541.268 451.9 547.268 462.9L497.468 463.8ZM538.753 360C538.753 353.4 538.853 347 539.053 340.8C539.453 334.6 539.953 328.6 540.553 322.8C541.153 317 541.953 311.5 542.953 306.3C544.153 300.9 545.553 295.8 547.153 291C551.553 277.8 558.053 267.3 566.653 259.5C575.453 251.7 587.453 247.8 602.653 247.8C616.053 247.8 626.553 250.3 634.153 255.3C641.753 260.1 647.153 267.1 650.353 276.3C653.553 285.3 655.153 296.1 655.153 308.7C655.153 314.7 654.853 321.1 654.253 327.9C653.653 334.5 652.853 341.5 651.853 348.9L609.853 348.6C610.653 340.4 611.353 332.9 611.953 326.1C612.553 319.1 612.853 312.8 612.853 307.2C612.853 301.8 612.453 297.2 611.653 293.4C611.053 289.6 609.853 286.7 608.053 284.7C606.453 282.7 603.953 281.7 600.553 281.7C596.353 281.7 593.053 283.8 590.653 288C588.253 292 586.553 297.5 585.553 304.5C584.953 307.7 584.453 311.2 584.053 315C583.853 318.6 583.653 322.5 583.453 326.7C583.453 330.7 583.453 335 583.453 339.6C583.453 344.2 583.453 348.9 583.453 353.7C583.453 360.7 583.453 367.3 583.453 373.5C583.653 379.7 583.853 385.5 584.053 390.9C584.253 396.1 584.653 400.9 585.253 405.3C586.253 412.9 588.053 418.9 590.653 423.3C593.453 427.5 597.553 429.6 602.953 429.6C606.753 429.6 609.853 429 612.253 427.8C614.853 426.4 616.753 424.4 617.953 421.8C619.353 419.2 620.053 415.8 620.053 411.6C620.053 410.6 619.953 409.5 619.753 408.3C619.753 407.1 619.653 405.8 619.453 404.4L602.353 405V375.6L655.153 376.2L655.753 462H636.253L631.753 449.4C628.553 453.8 624.153 457.4 618.553 460.2C613.153 463 605.553 464.4 595.753 464.4C586.153 464.4 578.053 462.8 571.453 459.6C564.853 456.2 559.453 451.5 555.253 445.5C551.053 439.3 547.753 432.1 545.353 423.9C543.753 417.9 542.453 411.5 541.453 404.7C540.453 397.9 539.753 390.8 539.353 383.4C538.953 375.8 538.753 368 538.753 360ZM729.766 465C719.166 465 710.166 463.5 702.766 460.5C695.566 457.3 689.666 453 685.066 447.6C680.666 442 677.366 435.5 675.166 428.1C673.166 420.7 672.166 412.7 672.166 404.1C672.166 397.1 672.166 389.4 672.166 381C672.366 372.4 672.466 363.9 672.466 355.5C672.466 346.9 672.466 339.2 672.466 332.4C672.466 323.4 672.466 314.6 672.466 306C672.466 297.4 672.366 288.8 672.166 280.2C672.166 271.4 671.966 262.4 671.566 253.2L715.966 258C715.766 266.8 715.566 275.8 715.366 285C715.166 294 714.966 302.8 714.766 311.4C714.766 319.8 714.666 327.4 714.466 334.2C714.466 340 714.366 345.4 714.166 350.4C714.166 355.4 714.166 360.1 714.166 364.5C714.166 368.9 714.166 372.9 714.166 376.5C714.166 380.1 714.166 383.4 714.166 386.4C714.166 396 714.566 403.9 715.366 410.1C716.166 416.3 717.766 420.9 720.166 423.9C722.566 426.9 726.066 428.4 730.666 428.4C734.266 428.4 737.066 427.4 739.066 425.4C741.066 423.2 742.466 420.3 743.266 416.7C744.266 413.1 744.866 409 745.066 404.4C745.266 399.8 745.366 395.1 745.366 390.3C745.366 388.3 745.366 385.3 745.366 381.3C745.566 377.3 745.666 371.6 745.666 364.2C745.666 356.8 745.666 347 745.666 334.8C745.666 322 745.466 310.4 745.066 300C744.866 289.4 744.666 280 744.466 271.8C744.266 263.4 744.066 256.1 743.866 249.9L788.566 245.1C788.566 253.9 788.466 262.8 788.266 271.8C788.066 280.6 787.866 290.1 787.666 300.3C787.666 310.5 787.666 322.2 787.666 335.4C787.866 352.4 787.966 366.9 787.966 378.9C787.966 390.7 787.966 398.9 787.966 403.5C787.966 409.9 787.066 416.7 785.266 423.9C783.666 431.1 780.666 437.8 776.266 444C772.066 450.2 766.166 455.3 758.566 459.3C750.966 463.1 741.366 465 729.766 465ZM808.989 462.3C808.989 462.3 808.989 460.4 808.989 456.6C809.189 452.8 809.289 447.5 809.289 440.7C809.489 433.9 809.589 426.2 809.589 417.6C809.789 408.8 809.889 399.5 809.889 389.7C810.089 379.7 810.189 369.6 810.189 359.4C810.189 346.6 810.089 333.8 809.889 321C809.689 308.2 809.389 296.6 808.989 286.2C808.589 275.6 808.289 267.2 808.089 261C807.889 254.6 807.789 251.4 807.789 251.4L852.789 255.6C852.789 255.6 852.689 258.1 852.489 263.1C852.489 267.9 852.489 274.3 852.489 282.3C852.489 290.1 852.389 298.7 852.189 308.1C852.189 317.5 852.089 326.7 851.889 335.7C851.889 344.7 851.889 352.7 851.889 359.7C851.889 366.7 851.889 374.7 851.889 383.7C852.089 392.7 852.189 401.7 852.189 410.7C852.189 419.7 852.189 428 852.189 435.6C852.389 443.2 852.489 449.4 852.489 454.2C852.689 458.8 852.789 461.1 852.789 461.1L808.989 462.3ZM808.989 462.3L829.389 432L909.789 433.5L910.089 462L808.989 462.3ZM828.189 408V373.2L909.189 374.1L908.589 406.8L828.189 408ZM825.489 284.7L807.789 251.4L906.489 254.1V284.4L825.489 284.7ZM952.563 404.4V371.1C960.563 372.1 967.463 371.5 973.263 369.3C979.063 367.1 983.863 363.7 987.663 359.1C991.663 354.5 994.563 349 996.363 342.6C998.363 336 999.363 329 999.363 321.6C999.363 311.6 998.463 303.5 996.663 297.3C995.063 291.1 992.363 286.6 988.563 283.8C984.963 280.8 980.163 279.3 974.163 279.3C970.363 279.3 965.563 279.6 959.763 280.2C954.163 280.6 948.563 281.3 942.963 282.3L924.363 248.4C928.963 248 933.663 247.7 938.463 247.5C943.263 247.1 947.963 246.9 952.563 246.9C957.163 246.7 961.363 246.6 965.163 246.6C982.363 246.6 996.663 248.8 1008.06 253.2C1019.46 257.4 1028.06 264.9 1033.86 275.7C1039.66 286.5 1042.56 301.5 1042.56 320.7C1042.56 335.1 1040.36 347.6 1035.96 358.2C1031.76 368.6 1025.66 377.2 1017.66 384C1009.86 390.8 1000.46 395.9 989.463 399.3C978.463 402.7 966.163 404.4 952.563 404.4ZM925.563 463.5C925.763 455.5 925.963 445.5 926.163 433.5C926.363 421.5 926.463 408.8 926.463 395.4C926.663 381.8 926.763 368.8 926.763 356.4C926.763 343.8 926.563 330.8 926.163 317.4C925.963 303.8 925.663 290.9 925.263 278.7C925.063 266.5 924.763 256.4 924.363 248.4L969.063 251.4C968.863 256.4 968.663 262.1 968.463 268.5C968.263 274.9 968.063 281.8 967.863 289.2C967.863 296.6 967.863 304.2 967.863 312C968.063 319.6 968.163 327.2 968.163 334.8C968.163 342.2 968.263 349.2 968.463 355.8C968.463 362.2 968.463 369.8 968.463 378.6C968.663 387.4 968.763 396.7 968.763 406.5C968.963 416.3 969.063 425.9 969.063 435.3C969.263 444.5 969.363 452.9 969.363 460.5L925.563 463.5ZM1010.16 463.8C1006.96 454.6 1003.56 445.5 999.963 436.5C996.563 427.3 992.863 418 988.863 408.6C984.863 399.2 980.663 389.6 976.263 379.8L1016.46 370.5C1020.46 380.3 1024.66 390.3 1029.06 400.5C1033.46 410.5 1038.16 420.7 1043.16 431.1C1048.36 441.3 1053.96 451.9 1059.96 462.9L1010.16 463.8Z" fill="#421709"/>
<path d="M218.413 153L217.213 130.5C227.213 130.5 235.613 129.9 242.413 128.7C249.213 127.5 254.613 125.1 258.613 121.5C262.613 117.9 265.513 112.5 267.313 105.3C269.113 98.1 270.013 88.6 270.013 76.8C270.013 65.6 269.013 56.8 267.013 50.4C265.013 44 261.813 39.5 257.413 36.9C253.013 34.1 247.213 32.7 240.013 32.7C235.813 32.7 231.113 33 225.913 33.6C220.913 34 215.313 34.6 209.113 35.4L190.513 2.09998C198.113 1.49999 205.713 1.1 213.313 0.899998C221.113 0.499991 227.913 0.299988 233.713 0.299988C252.713 0.299988 268.013 2.39999 279.613 6.6C291.413 10.8 300.013 18.4 305.413 29.4C310.813 40.2 313.513 55.7 313.513 75.9C313.513 90.5 311.013 102.8 306.013 112.8C301.213 122.6 294.413 130.5 285.613 136.5C277.013 142.3 266.913 146.5 255.313 149.1C243.913 151.7 231.613 153 218.413 153ZM235.513 219C231.513 219 227.013 218.9 222.013 218.7C217.013 218.7 211.913 218.5 206.713 218.1C201.713 217.9 196.713 217.7 191.713 217.5L211.513 186.3C217.913 187.1 224.013 187.8 229.813 188.4C235.813 188.8 241.313 189 246.313 189C250.713 189 254.813 188.8 258.613 188.4C262.613 187.8 265.813 186.5 268.213 184.5C270.813 182.5 272.113 179.1 272.113 174.3C272.113 169.9 270.813 166.8 268.213 165C265.813 163.2 262.513 162.2 258.313 162C254.313 161.6 249.813 161.4 244.813 161.4C242.213 161.4 239.513 161.5 236.713 161.7C233.913 161.7 231.013 161.8 228.013 162C225.013 162 221.813 162.1 218.413 162.3L217.213 130.5C241.813 130.3 261.213 132.2 275.413 136.2C289.813 140 300.113 145.4 306.313 152.4C312.513 159.2 315.613 167.2 315.613 176.4C315.613 187.4 312.513 196 306.313 202.2C300.313 208.4 291.313 212.8 279.313 215.4C267.513 217.8 252.913 219 235.513 219ZM191.713 217.5C191.713 217.5 191.713 214.3 191.713 207.9C191.913 201.5 192.113 193 192.313 182.4C192.513 171.8 192.613 160.2 192.613 147.6C192.813 134.8 192.913 122.1 192.913 109.5C192.913 96.7 192.813 84 192.613 71.4C192.413 58.8 192.113 47.3 191.713 36.9C191.313 26.3 191.013 17.9 190.813 11.7C190.613 5.29998 190.513 2.09998 190.513 2.09998L235.513 4.79998C235.513 4.79998 235.513 7.29999 235.513 12.3C235.513 17.3 235.413 23.9 235.213 32.1C235.213 40.1 235.113 48.8 234.913 58.2C234.913 67.6 234.913 76.9 234.913 86.1C234.913 95.1 234.913 103.1 234.913 110.1C234.913 116.9 234.913 124.9 234.913 134.1C235.113 143.3 235.213 152.6 235.213 162C235.213 171.4 235.213 180.1 235.213 188.1C235.413 196.1 235.513 202.6 235.513 207.6C235.713 212.6 235.813 215.1 235.813 215.1L191.713 217.5ZM351.205 158.4V125.1C359.205 126.1 366.105 125.5 371.905 123.3C377.705 121.1 382.505 117.7 386.305 113.1C390.305 108.5 393.205 103 395.005 96.6C397.005 90 398.005 83 398.005 75.6C398.005 65.6 397.105 57.5 395.305 51.3C393.705 45.1 391.005 40.6 387.205 37.8C383.605 34.8 378.805 33.3 372.805 33.3C369.005 33.3 364.205 33.6 358.405 34.2C352.805 34.6 347.205 35.3 341.605 36.3L323.005 2.4C327.605 1.99999 332.305 1.69999 337.105 1.49999C341.905 1.1 346.605 0.899998 351.205 0.899998C355.805 0.699988 360.005 0.599984 363.805 0.599984C381.005 0.599984 395.305 2.79999 406.705 7.19999C418.105 11.4 426.705 18.9 432.505 29.7C438.305 40.5 441.205 55.5 441.205 74.7C441.205 89.1 439.005 101.6 434.605 112.2C430.405 122.6 424.305 131.2 416.305 138C408.505 144.8 399.105 149.9 388.105 153.3C377.105 156.7 364.805 158.4 351.205 158.4ZM324.205 217.5C324.405 209.5 324.605 199.5 324.805 187.5C325.005 175.5 325.105 162.8 325.105 149.4C325.305 135.8 325.405 122.8 325.405 110.4C325.405 97.8 325.205 84.8 324.805 71.4C324.605 57.8 324.305 44.9 323.905 32.7C323.705 20.5 323.405 10.4 323.005 2.4L367.705 5.39999C367.505 10.4 367.305 16.1 367.105 22.5C366.905 28.9 366.705 35.8 366.505 43.2C366.505 50.6 366.505 58.2 366.505 66C366.705 73.6 366.805 81.2 366.805 88.8C366.805 96.2 366.905 103.2 367.105 109.8C367.105 116.2 367.105 123.8 367.105 132.6C367.305 141.4 367.405 150.7 367.405 160.5C367.605 170.3 367.705 179.9 367.705 189.3C367.905 198.5 368.005 206.9 368.005 214.5L324.205 217.5ZM408.805 217.8C405.605 208.6 402.205 199.5 398.605 190.5C395.205 181.3 391.505 172 387.505 162.6C383.505 153.2 379.305 143.6 374.905 133.8L415.105 124.5C419.105 134.3 423.305 144.3 427.705 154.5C432.105 164.5 436.805 174.7 441.805 185.1C447.005 195.3 452.605 205.9 458.605 216.9L408.805 217.8ZM511.291 217.5C501.091 217.5 492.591 215.8 485.791 212.4C478.991 208.8 473.591 203.8 469.591 197.4C465.591 190.8 462.491 183.1 460.291 174.3C458.891 168.3 457.791 161.9 456.991 155.1C456.391 148.1 455.891 140.7 455.491 132.9C455.291 125.1 455.191 117.1 455.191 108.9C455.191 103.3 455.291 97.9 455.491 92.7C455.691 87.3 455.991 82.1 456.391 77.1C456.991 72.1 457.591 67.3 458.191 62.7C458.991 57.9 459.991 53.4 461.191 49.2C464.991 35.6 471.091 24.7 479.491 16.5C487.891 8.29999 499.691 4.19999 514.891 4.19999C525.891 4.19999 534.891 6.19999 541.891 10.2C548.891 14 554.391 19.5 558.391 26.7C562.591 33.9 565.591 42.4 567.391 52.2C568.991 60.2 569.991 69.1 570.391 78.9C570.991 88.5 571.291 98.6 571.291 109.2C571.291 118 570.991 126.6 570.391 135C569.991 143.2 569.191 151 567.991 158.4C566.991 165.8 565.391 172.7 563.191 179.1C559.191 190.7 553.091 200 544.891 207C536.691 214 525.491 217.5 511.291 217.5ZM513.691 182.7C516.091 182.7 517.991 182.1 519.391 180.9C520.991 179.5 522.291 177.4 523.291 174.6C524.291 171.6 525.091 167.8 525.691 163.2C526.491 156.2 526.891 147.8 526.891 138C527.091 128 527.191 118.1 527.191 108.3C527.191 100.1 527.191 92 527.191 84C527.191 76 526.991 69.2 526.591 63.6C525.991 54.8 524.791 48.5 522.991 44.7C521.191 40.7 518.191 38.7 513.991 38.7C509.591 38.7 506.291 40.8 504.091 45C502.091 49.2 500.891 55.8 500.491 64.8C500.091 67.8 499.791 71.2 499.591 75C499.591 78.6 499.591 82.5 499.591 86.7C499.591 90.7 499.591 94.9 499.591 99.3C499.591 103.7 499.591 108 499.591 112.2C499.591 122 499.591 131.6 499.591 141C499.791 150.2 500.291 157.9 501.091 164.1C501.491 168.5 502.191 172.1 503.191 174.9C504.191 177.7 505.491 179.7 507.091 180.9C508.891 182.1 511.091 182.7 513.691 182.7ZM592.886 4.79998H635.186C635.786 6.79999 636.986 10.4 638.786 15.6C640.586 20.6 642.686 26.7 645.086 33.9C647.686 40.9 650.386 48.4 653.186 56.4C655.986 64.4 658.686 72.2 661.286 79.8C663.486 86.2 665.586 92.3 667.586 98.1C669.586 103.7 671.286 108.6 672.686 112.8C674.286 117 675.486 120.2 676.286 122.4C676.286 119 676.286 115.1 676.286 110.7C676.286 106.3 676.186 101.6 675.986 96.6C675.986 91.6 675.886 86.4 675.686 81C675.686 75.6 675.686 70.1 675.686 64.5C675.486 59.5 675.286 54.6 675.086 49.8C675.086 45 675.086 40.3 675.086 35.7C675.086 31.1 674.986 26.7 674.786 22.5C674.786 18.3 674.686 14.5 674.486 11.1C674.486 7.49999 674.386 4.29999 674.186 1.49999H715.286C715.086 6.89999 714.886 13 714.686 19.8C714.686 26.6 714.586 33.8 714.386 41.4C714.386 49 714.286 57 714.086 65.4C714.086 73.8 713.986 82.4 713.786 91.2C713.586 101.8 713.386 112.5 713.186 123.3C713.186 134.1 713.186 144.7 713.186 155.1C713.186 165.5 713.086 175.5 712.886 185.1C712.886 194.7 712.786 203.6 712.586 211.8L672.086 213.9C670.886 210.5 669.286 206.2 667.286 201C665.286 195.6 663.086 189.7 660.686 183.3C658.286 176.7 655.786 170 653.186 163.2C650.586 156.2 648.086 149.6 645.686 143.4C644.286 139.8 642.886 136.4 641.486 133.2C640.286 129.8 639.086 126.7 637.886 123.9C636.886 121.1 635.986 118.6 635.186 116.4C634.386 114.2 633.686 112.5 633.086 111.3C633.086 115.1 633.086 119 633.086 123C633.086 126.8 633.086 130.6 633.086 134.4C633.086 138.2 633.086 141.9 633.086 145.5C633.086 149.1 633.086 152.7 633.086 156.3C633.086 161.3 633.086 166.2 633.086 171C633.286 175.8 633.386 180.4 633.386 184.8C633.586 189 633.686 193 633.686 196.8C633.686 200.6 633.686 204.1 633.686 207.3C633.886 210.5 633.986 213.4 633.986 216L593.786 215.7C593.786 210.5 593.786 205 593.786 199.2C593.986 193.4 594.086 187.3 594.086 180.9C594.286 174.5 594.386 167.9 594.386 161.1C594.386 154.3 594.386 147.3 594.386 140.1C594.386 127.9 594.386 115.6 594.386 103.2C594.386 90.8 594.286 78.7 594.086 66.9C593.886 54.9 593.686 43.7 593.486 33.3C593.486 22.7 593.286 13.2 592.886 4.79998ZM815.041 217.2C808.641 207 802.541 197.8 796.741 189.6C791.141 181.4 785.441 173.5 779.641 165.9C774.041 158.3 768.041 150.5 761.641 142.5C766.641 131.1 771.941 119.2 777.541 106.8C783.141 94.2 788.541 81.8 793.741 69.6C798.941 57.2 803.741 45.6 808.141 34.8C812.541 24 816.041 14.6 818.641 6.6L864.541 8.09999C860.141 16.5 855.141 26.4 849.541 37.8C844.141 49 838.541 60.6 832.741 72.6C826.941 84.4 821.441 95.8 816.241 106.8C811.241 117.6 806.941 126.9 803.341 134.7C807.941 141.3 812.241 147.5 816.241 153.3C820.441 158.9 824.741 164.7 829.141 170.7C833.541 176.5 838.641 182.9 844.441 189.9C850.241 196.9 857.041 205 864.841 214.2L815.041 217.2ZM735.541 216C735.741 210.2 735.841 204 735.841 197.4C736.041 190.8 736.141 183.9 736.141 176.7C736.341 169.5 736.441 162.2 736.441 154.8C736.641 147.2 736.741 139.7 736.741 132.3C736.741 124.7 736.741 117.3 736.741 110.1C736.741 100.5 736.641 91 736.441 81.6C736.241 72.2 736.041 63.2 735.841 54.6C735.641 45.8 735.441 37.7 735.241 30.3C735.041 22.7 734.841 16.2 734.641 10.8L780.841 6.6C780.841 11 780.741 16.6 780.541 23.4C780.541 30.2 780.541 37.5 780.541 45.3C780.541 53.1 780.441 61 780.241 69C780.241 77 780.141 84.6 779.941 91.8C779.941 99 779.941 105.2 779.941 110.4C779.941 114.4 779.941 119.8 779.941 126.6C780.141 133.2 780.241 140.6 780.241 148.8C780.241 156.8 780.241 164.9 780.241 173.1C780.441 181.3 780.541 189 780.541 196.2C780.741 203.2 780.841 209 780.841 213.6L735.541 216ZM913.724 219C903.324 219 894.224 217.8 886.424 215.4C878.624 212.8 872.024 209.2 866.624 204.6C861.424 199.8 857.424 194.2 854.624 187.8C852.024 181.2 850.724 173.9 850.724 165.9C850.724 162.9 850.924 159.8 851.324 156.6C851.724 153.2 852.324 149.9 853.124 146.7H893.624C892.624 149.9 891.824 152.9 891.224 155.7C890.824 158.5 890.624 161.1 890.624 163.5C890.624 168.5 891.524 172.8 893.324 176.4C895.124 180 897.624 182.8 900.824 184.8C904.224 186.6 908.124 187.5 912.524 187.5C918.524 187.5 923.224 186.7 926.624 185.1C930.224 183.3 932.724 181 934.124 178.2C935.524 175.2 936.224 171.9 936.224 168.3C936.224 164.7 935.424 161.7 933.824 159.3C932.424 156.7 930.324 154.5 927.524 152.7C924.724 150.7 921.224 148.8 917.024 147C913.024 145 908.424 142.8 903.224 140.4C896.424 137.2 889.824 133.6 883.424 129.6C877.224 125.6 871.624 120.8 866.624 115.2C861.624 109.6 857.624 103 854.624 95.4C851.624 87.6 850.124 78.5 850.124 68.1C850.124 56.3 852.324 45.6 856.724 36C861.324 26.4 868.424 18.8 878.024 13.2C887.824 7.39999 900.524 4.49999 916.124 4.49999C931.124 4.49999 943.224 7.09999 952.424 12.3C961.824 17.3 968.624 24.5 972.824 33.9C977.224 43.3 979.424 54.5 979.424 67.5C979.424 70.5 979.224 73.6 978.824 76.8C978.624 80 978.324 83.3 977.924 86.7C977.524 90.1 977.024 93.6 976.424 97.2H933.524C934.124 91.8 934.524 86.7 934.724 81.9C935.124 77.1 935.324 72.7 935.324 68.7C935.324 61.9 934.724 56.1 933.524 51.3C932.324 46.5 930.224 42.9 927.224 40.5C924.224 37.9 920.024 36.6 914.624 36.6C910.824 36.6 907.524 37.3 904.724 38.7C901.924 40.1 899.624 42.1 897.824 44.7C896.024 47.3 894.724 50.4 893.924 54C893.124 57.4 892.724 61.3 892.724 65.7C892.724 72.5 893.924 78.2 896.324 82.8C898.724 87.2 902.224 91 906.824 94.2C911.624 97.4 917.224 100.5 923.624 103.5C930.624 106.7 937.324 110.1 943.724 113.7C950.324 117.3 956.324 121.5 961.724 126.3C967.124 130.9 971.324 136.5 974.324 143.1C977.524 149.5 979.124 157.4 979.124 166.8C979.124 175.8 976.924 184.3 972.524 192.3C968.324 200.1 961.424 206.5 951.824 211.5C942.224 216.5 929.524 219 913.724 219ZM160.552 393L159.352 370.5C169.352 370.5 177.752 369.9 184.552 368.7C191.352 367.5 196.752 365.1 200.752 361.5C204.752 357.9 207.652 352.5 209.452 345.3C211.252 338.1 212.152 328.6 212.152 316.8C212.152 305.6 211.152 296.8 209.152 290.4C207.152 284 203.952 279.5 199.552 276.9C195.152 274.1 189.352 272.7 182.152 272.7C177.952 272.7 173.252 273 168.052 273.6C163.052 274 157.452 274.6 151.252 275.4L132.652 242.1C140.252 241.5 147.852 241.1 155.452 240.9C163.252 240.5 170.052 240.3 175.852 240.3C194.852 240.3 210.152 242.4 221.752 246.6C233.552 250.8 242.152 258.4 247.552 269.4C252.952 280.2 255.652 295.7 255.652 315.9C255.652 330.5 253.152 342.8 248.152 352.8C243.352 362.6 236.552 370.5 227.752 376.5C219.152 382.3 209.052 386.5 197.452 389.1C186.052 391.7 173.752 393 160.552 393ZM177.652 459C173.652 459 169.152 458.9 164.152 458.7C159.152 458.7 154.052 458.5 148.852 458.1C143.852 457.9 138.852 457.7 133.852 457.5L153.652 426.3C160.052 427.1 166.152 427.8 171.952 428.4C177.952 428.8 183.452 429 188.452 429C192.852 429 196.952 428.8 200.752 428.4C204.752 427.8 207.952 426.5 210.352 424.5C212.952 422.5 214.252 419.1 214.252 414.3C214.252 409.9 212.952 406.8 210.352 405C207.952 403.2 204.652 402.2 200.452 402C196.452 401.6 191.952 401.4 186.952 401.4C184.352 401.4 181.652 401.5 178.852 401.7C176.052 401.7 173.152 401.8 170.152 402C167.152 402 163.952 402.1 160.552 402.3L159.352 370.5C183.952 370.3 203.352 372.2 217.552 376.2C231.952 380 242.252 385.4 248.452 392.4C254.652 399.2 257.752 407.2 257.752 416.4C257.752 427.4 254.652 436 248.452 442.2C242.452 448.4 233.452 452.8 221.452 455.4C209.652 457.8 195.052 459 177.652 459ZM133.852 457.5C133.852 457.5 133.852 454.3 133.852 447.9C134.052 441.5 134.252 433 134.452 422.4C134.652 411.8 134.752 400.2 134.752 387.6C134.952 374.8 135.052 362.1 135.052 349.5C135.052 336.7 134.952 324 134.752 311.4C134.552 298.8 134.252 287.3 133.852 276.9C133.452 266.3 133.152 257.9 132.952 251.7C132.752 245.3 132.652 242.1 132.652 242.1L177.652 244.8C177.652 244.8 177.652 247.3 177.652 252.3C177.652 257.3 177.552 263.9 177.352 272.1C177.352 280.1 177.252 288.8 177.052 298.2C177.052 307.6 177.052 316.9 177.052 326.1C177.052 335.1 177.052 343.1 177.052 350.1C177.052 356.9 177.052 364.9 177.052 374.1C177.252 383.3 177.352 392.6 177.352 402C177.352 411.4 177.352 420.1 177.352 428.1C177.552 436.1 177.652 442.6 177.652 447.6C177.852 452.6 177.952 455.1 177.952 455.1L133.852 457.5ZM324.844 459C314.244 459 305.244 457.5 297.844 454.5C290.644 451.3 284.744 447 280.144 441.6C275.744 436 272.444 429.5 270.244 422.1C268.244 414.7 267.244 406.7 267.244 398.1C267.244 391.1 267.244 383.4 267.244 375C267.444 366.4 267.544 357.9 267.544 349.5C267.544 340.9 267.544 333.2 267.544 326.4C267.544 317.4 267.544 308.6 267.544 300C267.544 291.4 267.444 282.8 267.244 274.2C267.244 265.4 267.044 256.4 266.644 247.2L311.044 247.5C310.844 254.1 310.644 261.1 310.444 268.5C310.244 275.7 310.044 282.9 309.844 290.1C309.844 297.3 309.744 304.2 309.544 310.8C309.544 317.2 309.544 323 309.544 328.2C309.544 334 309.444 339.4 309.244 344.4C309.244 349.4 309.244 354.1 309.244 358.5C309.244 362.9 309.244 366.9 309.244 370.5C309.244 374.1 309.244 377.4 309.244 380.4C309.244 390 309.644 397.9 310.444 404.1C311.244 410.3 312.844 414.9 315.244 417.9C317.644 420.9 321.144 422.4 325.744 422.4C329.344 422.4 332.144 421.4 334.144 419.4C336.144 417.2 337.544 414.3 338.344 410.7C339.344 407.1 339.944 403 340.144 398.4C340.344 393.8 340.444 389.1 340.444 384.3C340.444 382.3 340.444 379.3 340.444 375.3C340.644 371.3 340.744 365.6 340.744 358.2C340.744 350.8 340.744 341 340.744 328.8C340.744 316 340.544 304.4 340.144 294C339.944 283.4 339.744 274 339.544 265.8C339.344 257.4 339.144 250.1 338.944 243.9L383.644 244.2C383.644 250.8 383.544 257.2 383.344 263.4C383.344 269.4 383.244 275.6 383.044 282C383.044 288.4 382.944 295.4 382.744 303C382.744 310.6 382.744 319.4 382.744 329.4C382.944 346.4 383.044 360.9 383.044 372.9C383.044 384.7 383.044 392.9 383.044 397.5C383.044 403.9 382.144 410.7 380.344 417.9C378.744 425.1 375.744 431.8 371.344 438C367.144 444.2 361.244 449.3 353.644 453.3C346.044 457.1 336.444 459 324.844 459ZM429.868 398.4V365.1C437.868 366.1 444.768 365.5 450.568 363.3C456.368 361.1 461.168 357.7 464.968 353.1C468.968 348.5 471.868 343 473.668 336.6C475.668 330 476.668 323 476.668 315.6C476.668 305.6 475.768 297.5 473.968 291.3C472.368 285.1 469.668 280.6 465.868 277.8C462.268 274.8 457.468 273.3 451.468 273.3C447.668 273.3 442.868 273.6 437.068 274.2C431.468 274.6 425.868 275.3 420.268 276.3L401.668 242.4C406.268 242 410.968 241.7 415.768 241.5C420.568 241.1 425.268 240.9 429.868 240.9C434.468 240.7 438.668 240.6 442.468 240.6C459.668 240.6 473.968 242.8 485.368 247.2C496.768 251.4 505.368 258.9 511.168 269.7C516.968 280.5 519.868 295.5 519.868 314.7C519.868 329.1 517.668 341.6 513.268 352.2C509.068 362.6 502.968 371.2 494.968 378C487.168 384.8 477.768 389.9 466.768 393.3C455.768 396.7 443.468 398.4 429.868 398.4ZM402.868 457.5C403.068 449.5 403.268 439.5 403.468 427.5C403.668 415.5 403.768 402.8 403.768 389.4C403.968 375.8 404.068 362.8 404.068 350.4C404.068 337.8 403.868 324.8 403.468 311.4C403.268 297.8 402.968 284.9 402.568 272.7C402.368 260.5 402.068 250.4 401.668 242.4L446.368 245.4C446.168 250.4 445.968 256.1 445.768 262.5C445.568 268.9 445.368 275.8 445.168 283.2C445.168 290.6 445.168 298.2 445.168 306C445.368 313.6 445.468 321.2 445.468 328.8C445.468 336.2 445.568 343.2 445.768 349.8C445.768 356.2 445.768 363.8 445.768 372.6C445.968 381.4 446.068 390.7 446.068 400.5C446.268 410.3 446.368 419.9 446.368 429.3C446.568 438.5 446.668 446.9 446.668 454.5L402.868 457.5ZM487.468 457.8C484.268 448.6 480.868 439.5 477.268 430.5C473.868 421.3 470.168 412 466.168 402.6C462.168 393.2 457.968 383.6 453.568 373.8L493.768 364.5C497.768 374.3 501.968 384.3 506.368 394.5C510.768 404.5 515.468 414.7 520.468 425.1C525.668 435.3 531.268 445.9 537.268 456.9L487.468 457.8ZM528.753 354C528.753 347.4 528.853 341 529.053 334.8C529.453 328.6 529.953 322.6 530.553 316.8C531.153 311 531.953 305.5 532.953 300.3C534.153 294.9 535.553 289.8 537.153 285C541.553 271.8 548.053 261.3 556.653 253.5C565.453 245.7 577.453 241.8 592.653 241.8C606.053 241.8 616.553 244.3 624.153 249.3C631.753 254.1 637.153 261.1 640.353 270.3C643.553 279.3 645.153 290.1 645.153 302.7C645.153 308.7 644.853 315.1 644.253 321.9C643.653 328.5 642.853 335.5 641.853 342.9L599.853 342.6C600.653 334.4 601.353 326.9 601.953 320.1C602.553 313.1 602.853 306.8 602.853 301.2C602.853 295.8 602.453 291.2 601.653 287.4C601.053 283.6 599.853 280.7 598.053 278.7C596.453 276.7 593.953 275.7 590.553 275.7C586.353 275.7 583.053 277.8 580.653 282C578.253 286 576.553 291.5 575.553 298.5C574.953 301.7 574.453 305.2 574.053 309C573.853 312.6 573.653 316.5 573.453 320.7C573.453 324.7 573.453 329 573.453 333.6C573.453 338.2 573.453 342.9 573.453 347.7C573.453 354.7 573.453 361.3 573.453 367.5C573.653 373.7 573.853 379.5 574.053 384.9C574.253 390.1 574.653 394.9 575.253 399.3C576.253 406.9 578.053 412.9 580.653 417.3C583.453 421.5 587.553 423.6 592.953 423.6C596.753 423.6 599.853 423 602.253 421.8C604.853 420.4 606.753 418.4 607.953 415.8C609.353 413.2 610.053 409.8 610.053 405.6C610.053 404.6 609.953 403.5 609.753 402.3C609.753 401.1 609.653 399.8 609.453 398.4L592.353 399V369.6L645.153 370.2L645.753 456H626.253L621.753 443.4C618.553 447.8 614.153 451.4 608.553 454.2C603.153 457 595.553 458.4 585.753 458.4C576.153 458.4 568.053 456.8 561.453 453.6C554.853 450.2 549.453 445.5 545.253 439.5C541.053 433.3 537.753 426.1 535.353 417.9C533.753 411.9 532.453 405.5 531.453 398.7C530.453 391.9 529.753 384.8 529.353 377.4C528.953 369.8 528.753 362 528.753 354ZM719.766 459C709.166 459 700.166 457.5 692.766 454.5C685.566 451.3 679.666 447 675.066 441.6C670.666 436 667.366 429.5 665.166 422.1C663.166 414.7 662.166 406.7 662.166 398.1C662.166 391.1 662.166 383.4 662.166 375C662.366 366.4 662.466 357.9 662.466 349.5C662.466 340.9 662.466 333.2 662.466 326.4C662.466 317.4 662.466 308.6 662.466 300C662.466 291.4 662.366 282.8 662.166 274.2C662.166 265.4 661.966 256.4 661.566 247.2L705.966 252C705.766 260.8 705.566 269.8 705.366 279C705.166 288 704.966 296.8 704.766 305.4C704.766 313.8 704.666 321.4 704.466 328.2C704.466 334 704.366 339.4 704.166 344.4C704.166 349.4 704.166 354.1 704.166 358.5C704.166 362.9 704.166 366.9 704.166 370.5C704.166 374.1 704.166 377.4 704.166 380.4C704.166 390 704.566 397.9 705.366 404.1C706.166 410.3 707.766 414.9 710.166 417.9C712.566 420.9 716.066 422.4 720.666 422.4C724.266 422.4 727.066 421.4 729.066 419.4C731.066 417.2 732.466 414.3 733.266 410.7C734.266 407.1 734.866 403 735.066 398.4C735.266 393.8 735.366 389.1 735.366 384.3C735.366 382.3 735.366 379.3 735.366 375.3C735.566 371.3 735.666 365.6 735.666 358.2C735.666 350.8 735.666 341 735.666 328.8C735.666 316 735.466 304.4 735.066 294C734.866 283.4 734.666 274 734.466 265.8C734.266 257.4 734.066 250.1 733.866 243.9L778.566 239.1C778.566 247.9 778.466 256.8 778.266 265.8C778.066 274.6 777.866 284.1 777.666 294.3C777.666 304.5 777.666 316.2 777.666 329.4C777.866 346.4 777.966 360.9 777.966 372.9C777.966 384.7 777.966 392.9 777.966 397.5C777.966 403.9 777.066 410.7 775.266 417.9C773.666 425.1 770.666 431.8 766.266 438C762.066 444.2 756.166 449.3 748.566 453.3C740.966 457.1 731.366 459 719.766 459ZM798.989 456.3C798.989 456.3 798.989 454.4 798.989 450.6C799.189 446.8 799.289 441.5 799.289 434.7C799.489 427.9 799.589 420.2 799.589 411.6C799.789 402.8 799.889 393.5 799.889 383.7C800.089 373.7 800.189 363.6 800.189 353.4C800.189 340.6 800.089 327.8 799.889 315C799.689 302.2 799.389 290.6 798.989 280.2C798.589 269.6 798.289 261.2 798.089 255C797.889 248.6 797.789 245.4 797.789 245.4L842.789 249.6C842.789 249.6 842.689 252.1 842.489 257.1C842.489 261.9 842.489 268.3 842.489 276.3C842.489 284.1 842.389 292.7 842.189 302.1C842.189 311.5 842.089 320.7 841.889 329.7C841.889 338.7 841.889 346.7 841.889 353.7C841.889 360.7 841.889 368.7 841.889 377.7C842.089 386.7 842.189 395.7 842.189 404.7C842.189 413.7 842.189 422 842.189 429.6C842.389 437.2 842.489 443.4 842.489 448.2C842.689 452.8 842.789 455.1 842.789 455.1L798.989 456.3ZM798.989 456.3L819.389 426L899.789 427.5L900.089 456L798.989 456.3ZM818.189 402V367.2L899.189 368.1L898.589 400.8L818.189 402ZM815.489 278.7L797.789 245.4L896.489 248.1V278.4L815.489 278.7ZM942.563 398.4V365.1C950.563 366.1 957.463 365.5 963.263 363.3C969.063 361.1 973.863 357.7 977.663 353.1C981.663 348.5 984.563 343 986.363 336.6C988.363 330 989.363 323 989.363 315.6C989.363 305.6 988.463 297.5 986.663 291.3C985.063 285.1 982.363 280.6 978.563 277.8C974.963 274.8 970.163 273.3 964.163 273.3C960.363 273.3 955.563 273.6 949.763 274.2C944.163 274.6 938.563 275.3 932.963 276.3L914.363 242.4C918.963 242 923.663 241.7 928.463 241.5C933.263 241.1 937.963 240.9 942.563 240.9C947.163 240.7 951.363 240.6 955.163 240.6C972.363 240.6 986.663 242.8 998.063 247.2C1009.46 251.4 1018.06 258.9 1023.86 269.7C1029.66 280.5 1032.56 295.5 1032.56 314.7C1032.56 329.1 1030.36 341.6 1025.96 352.2C1021.76 362.6 1015.66 371.2 1007.66 378C999.863 384.8 990.463 389.9 979.463 393.3C968.463 396.7 956.163 398.4 942.563 398.4ZM915.563 457.5C915.763 449.5 915.963 439.5 916.163 427.5C916.363 415.5 916.463 402.8 916.463 389.4C916.663 375.8 916.763 362.8 916.763 350.4C916.763 337.8 916.563 324.8 916.163 311.4C915.963 297.8 915.663 284.9 915.263 272.7C915.063 260.5 914.763 250.4 914.363 242.4L959.063 245.4C958.863 250.4 958.663 256.1 958.463 262.5C958.263 268.9 958.063 275.8 957.863 283.2C957.863 290.6 957.863 298.2 957.863 306C958.063 313.6 958.163 321.2 958.163 328.8C958.163 336.2 958.263 343.2 958.463 349.8C958.463 356.2 958.463 363.8 958.463 372.6C958.663 381.4 958.763 390.7 958.763 400.5C958.963 410.3 959.063 419.9 959.063 429.3C959.263 438.5 959.363 446.9 959.363 454.5L915.563 457.5ZM1000.16 457.8C996.963 448.6 993.563 439.5 989.963 430.5C986.563 421.3 982.863 412 978.863 402.6C974.863 393.2 970.663 383.6 966.263 373.8L1006.46 364.5C1010.46 374.3 1014.66 384.3 1019.06 394.5C1023.46 404.5 1028.16 414.7 1033.16 425.1C1038.36 435.3 1043.96 445.9 1049.96 456.9L1000.16 457.8Z" fill="#FFF2CB"/>
<path d="M210.413 153L209.213 130.5C219.213 130.5 227.613 129.9 234.413 128.7C241.213 127.5 246.613 125.1 250.613 121.5C254.613 117.9 257.513 112.5 259.313 105.3C261.113 98.1 262.013 88.6 262.013 76.8C262.013 65.6 261.013 56.8 259.013 50.4C257.013 44 253.813 39.5 249.413 36.9C245.013 34.1 239.213 32.7 232.013 32.7C227.813 32.7 223.113 33 217.913 33.6C212.913 34 207.313 34.6 201.113 35.4L182.513 2.09998C190.113 1.49999 197.713 1.1 205.313 0.899998C213.113 0.499991 219.913 0.299988 225.713 0.299988C244.713 0.299988 260.013 2.39999 271.613 6.6C283.413 10.8 292.013 18.4 297.413 29.4C302.813 40.2 305.513 55.7 305.513 75.9C305.513 90.5 303.013 102.8 298.013 112.8C293.213 122.6 286.413 130.5 277.613 136.5C269.013 142.3 258.913 146.5 247.313 149.1C235.913 151.7 223.613 153 210.413 153ZM227.513 219C223.513 219 219.013 218.9 214.013 218.7C209.013 218.7 203.913 218.5 198.713 218.1C193.713 217.9 188.713 217.7 183.713 217.5L203.513 186.3C209.913 187.1 216.013 187.8 221.813 188.4C227.813 188.8 233.313 189 238.313 189C242.713 189 246.813 188.8 250.613 188.4C254.613 187.8 257.813 186.5 260.213 184.5C262.813 182.5 264.113 179.1 264.113 174.3C264.113 169.9 262.813 166.8 260.213 165C257.813 163.2 254.513 162.2 250.313 162C246.313 161.6 241.813 161.4 236.813 161.4C234.213 161.4 231.513 161.5 228.713 161.7C225.913 161.7 223.013 161.8 220.013 162C217.013 162 213.813 162.1 210.413 162.3L209.213 130.5C233.813 130.3 253.213 132.2 267.413 136.2C281.813 140 292.113 145.4 298.313 152.4C304.513 159.2 307.613 167.2 307.613 176.4C307.613 187.4 304.513 196 298.313 202.2C292.313 208.4 283.313 212.8 271.313 215.4C259.513 217.8 244.913 219 227.513 219ZM183.713 217.5C183.713 217.5 183.713 214.3 183.713 207.9C183.913 201.5 184.113 193 184.313 182.4C184.513 171.8 184.613 160.2 184.613 147.6C184.813 134.8 184.913 122.1 184.913 109.5C184.913 96.7 184.813 84 184.613 71.4C184.413 58.8 184.113 47.3 183.713 36.9C183.313 26.3 183.013 17.9 182.813 11.7C182.613 5.29998 182.513 2.09998 182.513 2.09998L227.513 4.79998C227.513 4.79998 227.513 7.29999 227.513 12.3C227.513 17.3 227.413 23.9 227.213 32.1C227.213 40.1 227.113 48.8 226.913 58.2C226.913 67.6 226.913 76.9 226.913 86.1C226.913 95.1 226.913 103.1 226.913 110.1C226.913 116.9 226.913 124.9 226.913 134.1C227.113 143.3 227.213 152.6 227.213 162C227.213 171.4 227.213 180.1 227.213 188.1C227.413 196.1 227.513 202.6 227.513 207.6C227.713 212.6 227.813 215.1 227.813 215.1L183.713 217.5ZM343.205 158.4V125.1C351.205 126.1 358.105 125.5 363.905 123.3C369.705 121.1 374.505 117.7 378.305 113.1C382.305 108.5 385.205 103 387.005 96.6C389.005 90 390.005 83 390.005 75.6C390.005 65.6 389.105 57.5 387.305 51.3C385.705 45.1 383.005 40.6 379.205 37.8C375.605 34.8 370.805 33.3 364.805 33.3C361.005 33.3 356.205 33.6 350.405 34.2C344.805 34.6 339.205 35.3 333.605 36.3L315.005 2.4C319.605 1.99999 324.305 1.69999 329.105 1.49999C333.905 1.1 338.605 0.899998 343.205 0.899998C347.805 0.699988 352.005 0.599984 355.805 0.599984C373.005 0.599984 387.305 2.79999 398.705 7.19999C410.105 11.4 418.705 18.9 424.505 29.7C430.305 40.5 433.205 55.5 433.205 74.7C433.205 89.1 431.005 101.6 426.605 112.2C422.405 122.6 416.305 131.2 408.305 138C400.505 144.8 391.105 149.9 380.105 153.3C369.105 156.7 356.805 158.4 343.205 158.4ZM316.205 217.5C316.405 209.5 316.605 199.5 316.805 187.5C317.005 175.5 317.105 162.8 317.105 149.4C317.305 135.8 317.405 122.8 317.405 110.4C317.405 97.8 317.205 84.8 316.805 71.4C316.605 57.8 316.305 44.9 315.905 32.7C315.705 20.5 315.405 10.4 315.005 2.4L359.705 5.39999C359.505 10.4 359.305 16.1 359.105 22.5C358.905 28.9 358.705 35.8 358.505 43.2C358.505 50.6 358.505 58.2 358.505 66C358.705 73.6 358.805 81.2 358.805 88.8C358.805 96.2 358.905 103.2 359.105 109.8C359.105 116.2 359.105 123.8 359.105 132.6C359.305 141.4 359.405 150.7 359.405 160.5C359.605 170.3 359.705 179.9 359.705 189.3C359.905 198.5 360.005 206.9 360.005 214.5L316.205 217.5ZM400.805 217.8C397.605 208.6 394.205 199.5 390.605 190.5C387.205 181.3 383.505 172 379.505 162.6C375.505 153.2 371.305 143.6 366.905 133.8L407.105 124.5C411.105 134.3 415.305 144.3 419.705 154.5C424.105 164.5 428.805 174.7 433.805 185.1C439.005 195.3 444.605 205.9 450.605 216.9L400.805 217.8ZM503.291 217.5C493.091 217.5 484.591 215.8 477.791 212.4C470.991 208.8 465.591 203.8 461.591 197.4C457.591 190.8 454.491 183.1 452.291 174.3C450.891 168.3 449.791 161.9 448.991 155.1C448.391 148.1 447.891 140.7 447.491 132.9C447.291 125.1 447.191 117.1 447.191 108.9C447.191 103.3 447.291 97.9 447.491 92.7C447.691 87.3 447.991 82.1 448.391 77.1C448.991 72.1 449.591 67.3 450.191 62.7C450.991 57.9 451.991 53.4 453.191 49.2C456.991 35.6 463.091 24.7 471.491 16.5C479.891 8.29999 491.691 4.19999 506.891 4.19999C517.891 4.19999 526.891 6.19999 533.891 10.2C540.891 14 546.391 19.5 550.391 26.7C554.591 33.9 557.591 42.4 559.391 52.2C560.991 60.2 561.991 69.1 562.391 78.9C562.991 88.5 563.291 98.6 563.291 109.2C563.291 118 562.991 126.6 562.391 135C561.991 143.2 561.191 151 559.991 158.4C558.991 165.8 557.391 172.7 555.191 179.1C551.191 190.7 545.091 200 536.891 207C528.691 214 517.491 217.5 503.291 217.5ZM505.691 182.7C508.091 182.7 509.991 182.1 511.391 180.9C512.991 179.5 514.291 177.4 515.291 174.6C516.291 171.6 517.091 167.8 517.691 163.2C518.491 156.2 518.891 147.8 518.891 138C519.091 128 519.191 118.1 519.191 108.3C519.191 100.1 519.191 92 519.191 84C519.191 76 518.991 69.2 518.591 63.6C517.991 54.8 516.791 48.5 514.991 44.7C513.191 40.7 510.191 38.7 505.991 38.7C501.591 38.7 498.291 40.8 496.091 45C494.091 49.2 492.891 55.8 492.491 64.8C492.091 67.8 491.791 71.2 491.591 75C491.591 78.6 491.591 82.5 491.591 86.7C491.591 90.7 491.591 94.9 491.591 99.3C491.591 103.7 491.591 108 491.591 112.2C491.591 122 491.591 131.6 491.591 141C491.791 150.2 492.291 157.9 493.091 164.1C493.491 168.5 494.191 172.1 495.191 174.9C496.191 177.7 497.491 179.7 499.091 180.9C500.891 182.1 503.091 182.7 505.691 182.7ZM584.886 4.79998H627.186C627.786 6.79999 628.986 10.4 630.786 15.6C632.586 20.6 634.686 26.7 637.086 33.9C639.686 40.9 642.386 48.4 645.186 56.4C647.986 64.4 650.686 72.2 653.286 79.8C655.486 86.2 657.586 92.3 659.586 98.1C661.586 103.7 663.286 108.6 664.686 112.8C666.286 117 667.486 120.2 668.286 122.4C668.286 119 668.286 115.1 668.286 110.7C668.286 106.3 668.186 101.6 667.986 96.6C667.986 91.6 667.886 86.4 667.686 81C667.686 75.6 667.686 70.1 667.686 64.5C667.486 59.5 667.286 54.6 667.086 49.8C667.086 45 667.086 40.3 667.086 35.7C667.086 31.1 666.986 26.7 666.786 22.5C666.786 18.3 666.686 14.5 666.486 11.1C666.486 7.49999 666.386 4.29999 666.186 1.49999H707.286C707.086 6.89999 706.886 13 706.686 19.8C706.686 26.6 706.586 33.8 706.386 41.4C706.386 49 706.286 57 706.086 65.4C706.086 73.8 705.986 82.4 705.786 91.2C705.586 101.8 705.386 112.5 705.186 123.3C705.186 134.1 705.186 144.7 705.186 155.1C705.186 165.5 705.086 175.5 704.886 185.1C704.886 194.7 704.786 203.6 704.586 211.8L664.086 213.9C662.886 210.5 661.286 206.2 659.286 201C657.286 195.6 655.086 189.7 652.686 183.3C650.286 176.7 647.786 170 645.186 163.2C642.586 156.2 640.086 149.6 637.686 143.4C636.286 139.8 634.886 136.4 633.486 133.2C632.286 129.8 631.086 126.7 629.886 123.9C628.886 121.1 627.986 118.6 627.186 116.4C626.386 114.2 625.686 112.5 625.086 111.3C625.086 115.1 625.086 119 625.086 123C625.086 126.8 625.086 130.6 625.086 134.4C625.086 138.2 625.086 141.9 625.086 145.5C625.086 149.1 625.086 152.7 625.086 156.3C625.086 161.3 625.086 166.2 625.086 171C625.286 175.8 625.386 180.4 625.386 184.8C625.586 189 625.686 193 625.686 196.8C625.686 200.6 625.686 204.1 625.686 207.3C625.886 210.5 625.986 213.4 625.986 216L585.786 215.7C585.786 210.5 585.786 205 585.786 199.2C585.986 193.4 586.086 187.3 586.086 180.9C586.286 174.5 586.386 167.9 586.386 161.1C586.386 154.3 586.386 147.3 586.386 140.1C586.386 127.9 586.386 115.6 586.386 103.2C586.386 90.8 586.286 78.7 586.086 66.9C585.886 54.9 585.686 43.7 585.486 33.3C585.486 22.7 585.286 13.2 584.886 4.79998ZM807.041 217.2C800.641 207 794.541 197.8 788.741 189.6C783.141 181.4 777.441 173.5 771.641 165.9C766.041 158.3 760.041 150.5 753.641 142.5C758.641 131.1 763.941 119.2 769.541 106.8C775.141 94.2 780.541 81.8 785.741 69.6C790.941 57.2 795.741 45.6 800.141 34.8C804.541 24 808.041 14.6 810.641 6.6L856.541 8.09999C852.141 16.5 847.141 26.4 841.541 37.8C836.141 49 830.541 60.6 824.741 72.6C818.941 84.4 813.441 95.8 808.241 106.8C803.241 117.6 798.941 126.9 795.341 134.7C799.941 141.3 804.241 147.5 808.241 153.3C812.441 158.9 816.741 164.7 821.141 170.7C825.541 176.5 830.641 182.9 836.441 189.9C842.241 196.9 849.041 205 856.841 214.2L807.041 217.2ZM727.541 216C727.741 210.2 727.841 204 727.841 197.4C728.041 190.8 728.141 183.9 728.141 176.7C728.341 169.5 728.441 162.2 728.441 154.8C728.641 147.2 728.741 139.7 728.741 132.3C728.741 124.7 728.741 117.3 728.741 110.1C728.741 100.5 728.641 91 728.441 81.6C728.241 72.2 728.041 63.2 727.841 54.6C727.641 45.8 727.441 37.7 727.241 30.3C727.041 22.7 726.841 16.2 726.641 10.8L772.841 6.6C772.841 11 772.741 16.6 772.541 23.4C772.541 30.2 772.541 37.5 772.541 45.3C772.541 53.1 772.441 61 772.241 69C772.241 77 772.141 84.6 771.941 91.8C771.941 99 771.941 105.2 771.941 110.4C771.941 114.4 771.941 119.8 771.941 126.6C772.141 133.2 772.241 140.6 772.241 148.8C772.241 156.8 772.241 164.9 772.241 173.1C772.441 181.3 772.541 189 772.541 196.2C772.741 203.2 772.841 209 772.841 213.6L727.541 216ZM905.724 219C895.324 219 886.224 217.8 878.424 215.4C870.624 212.8 864.024 209.2 858.624 204.6C853.424 199.8 849.424 194.2 846.624 187.8C844.024 181.2 842.724 173.9 842.724 165.9C842.724 162.9 842.924 159.8 843.324 156.6C843.724 153.2 844.324 149.9 845.124 146.7H885.624C884.624 149.9 883.824 152.9 883.224 155.7C882.824 158.5 882.624 161.1 882.624 163.5C882.624 168.5 883.524 172.8 885.324 176.4C887.124 180 889.624 182.8 892.824 184.8C896.224 186.6 900.124 187.5 904.524 187.5C910.524 187.5 915.224 186.7 918.624 185.1C922.224 183.3 924.724 181 926.124 178.2C927.524 175.2 928.224 171.9 928.224 168.3C928.224 164.7 927.424 161.7 925.824 159.3C924.424 156.7 922.324 154.5 919.524 152.7C916.724 150.7 913.224 148.8 909.024 147C905.024 145 900.424 142.8 895.224 140.4C888.424 137.2 881.824 133.6 875.424 129.6C869.224 125.6 863.624 120.8 858.624 115.2C853.624 109.6 849.624 103 846.624 95.4C843.624 87.6 842.124 78.5 842.124 68.1C842.124 56.3 844.324 45.6 848.724 36C853.324 26.4 860.424 18.8 870.024 13.2C879.824 7.39999 892.524 4.49999 908.124 4.49999C923.124 4.49999 935.224 7.09999 944.424 12.3C953.824 17.3 960.624 24.5 964.824 33.9C969.224 43.3 971.424 54.5 971.424 67.5C971.424 70.5 971.224 73.6 970.824 76.8C970.624 80 970.324 83.3 969.924 86.7C969.524 90.1 969.024 93.6 968.424 97.2H925.524C926.124 91.8 926.524 86.7 926.724 81.9C927.124 77.1 927.324 72.7 927.324 68.7C927.324 61.9 926.724 56.1 925.524 51.3C924.324 46.5 922.224 42.9 919.224 40.5C916.224 37.9 912.024 36.6 906.624 36.6C902.824 36.6 899.524 37.3 896.724 38.7C893.924 40.1 891.624 42.1 889.824 44.7C888.024 47.3 886.724 50.4 885.924 54C885.124 57.4 884.724 61.3 884.724 65.7C884.724 72.5 885.924 78.2 888.324 82.8C890.724 87.2 894.224 91 898.824 94.2C903.624 97.4 909.224 100.5 915.624 103.5C922.624 106.7 929.324 110.1 935.724 113.7C942.324 117.3 948.324 121.5 953.724 126.3C959.124 130.9 963.324 136.5 966.324 143.1C969.524 149.5 971.124 157.4 971.124 166.8C971.124 175.8 968.924 184.3 964.524 192.3C960.324 200.1 953.424 206.5 943.824 211.5C934.224 216.5 921.524 219 905.724 219ZM152.552 393L151.352 370.5C161.352 370.5 169.752 369.9 176.552 368.7C183.352 367.5 188.752 365.1 192.752 361.5C196.752 357.9 199.652 352.5 201.452 345.3C203.252 338.1 204.152 328.6 204.152 316.8C204.152 305.6 203.152 296.8 201.152 290.4C199.152 284 195.952 279.5 191.552 276.9C187.152 274.1 181.352 272.7 174.152 272.7C169.952 272.7 165.252 273 160.052 273.6C155.052 274 149.452 274.6 143.252 275.4L124.652 242.1C132.252 241.5 139.852 241.1 147.452 240.9C155.252 240.5 162.052 240.3 167.852 240.3C186.852 240.3 202.152 242.4 213.752 246.6C225.552 250.8 234.152 258.4 239.552 269.4C244.952 280.2 247.652 295.7 247.652 315.9C247.652 330.5 245.152 342.8 240.152 352.8C235.352 362.6 228.552 370.5 219.752 376.5C211.152 382.3 201.052 386.5 189.452 389.1C178.052 391.7 165.752 393 152.552 393ZM169.652 459C165.652 459 161.152 458.9 156.152 458.7C151.152 458.7 146.052 458.5 140.852 458.1C135.852 457.9 130.852 457.7 125.852 457.5L145.652 426.3C152.052 427.1 158.152 427.8 163.952 428.4C169.952 428.8 175.452 429 180.452 429C184.852 429 188.952 428.8 192.752 428.4C196.752 427.8 199.952 426.5 202.352 424.5C204.952 422.5 206.252 419.1 206.252 414.3C206.252 409.9 204.952 406.8 202.352 405C199.952 403.2 196.652 402.2 192.452 402C188.452 401.6 183.952 401.4 178.952 401.4C176.352 401.4 173.652 401.5 170.852 401.7C168.052 401.7 165.152 401.8 162.152 402C159.152 402 155.952 402.1 152.552 402.3L151.352 370.5C175.952 370.3 195.352 372.2 209.552 376.2C223.952 380 234.252 385.4 240.452 392.4C246.652 399.2 249.752 407.2 249.752 416.4C249.752 427.4 246.652 436 240.452 442.2C234.452 448.4 225.452 452.8 213.452 455.4C201.652 457.8 187.052 459 169.652 459ZM125.852 457.5C125.852 457.5 125.852 454.3 125.852 447.9C126.052 441.5 126.252 433 126.452 422.4C126.652 411.8 126.752 400.2 126.752 387.6C126.952 374.8 127.052 362.1 127.052 349.5C127.052 336.7 126.952 324 126.752 311.4C126.552 298.8 126.252 287.3 125.852 276.9C125.452 266.3 125.152 257.9 124.952 251.7C124.752 245.3 124.652 242.1 124.652 242.1L169.652 244.8C169.652 244.8 169.652 247.3 169.652 252.3C169.652 257.3 169.552 263.9 169.352 272.1C169.352 280.1 169.252 288.8 169.052 298.2C169.052 307.6 169.052 316.9 169.052 326.1C169.052 335.1 169.052 343.1 169.052 350.1C169.052 356.9 169.052 364.9 169.052 374.1C169.252 383.3 169.352 392.6 169.352 402C169.352 411.4 169.352 420.1 169.352 428.1C169.552 436.1 169.652 442.6 169.652 447.6C169.852 452.6 169.952 455.1 169.952 455.1L125.852 457.5ZM316.844 459C306.244 459 297.244 457.5 289.844 454.5C282.644 451.3 276.744 447 272.144 441.6C267.744 436 264.444 429.5 262.244 422.1C260.244 414.7 259.244 406.7 259.244 398.1C259.244 391.1 259.244 383.4 259.244 375C259.444 366.4 259.544 357.9 259.544 349.5C259.544 340.9 259.544 333.2 259.544 326.4C259.544 317.4 259.544 308.6 259.544 300C259.544 291.4 259.444 282.8 259.244 274.2C259.244 265.4 259.044 256.4 258.644 247.2L303.044 247.5C302.844 254.1 302.644 261.1 302.444 268.5C302.244 275.7 302.044 282.9 301.844 290.1C301.844 297.3 301.744 304.2 301.544 310.8C301.544 317.2 301.544 323 301.544 328.2C301.544 334 301.444 339.4 301.244 344.4C301.244 349.4 301.244 354.1 301.244 358.5C301.244 362.9 301.244 366.9 301.244 370.5C301.244 374.1 301.244 377.4 301.244 380.4C301.244 390 301.644 397.9 302.444 404.1C303.244 410.3 304.844 414.9 307.244 417.9C309.644 420.9 313.144 422.4 317.744 422.4C321.344 422.4 324.144 421.4 326.144 419.4C328.144 417.2 329.544 414.3 330.344 410.7C331.344 407.1 331.944 403 332.144 398.4C332.344 393.8 332.444 389.1 332.444 384.3C332.444 382.3 332.444 379.3 332.444 375.3C332.644 371.3 332.744 365.6 332.744 358.2C332.744 350.8 332.744 341 332.744 328.8C332.744 316 332.544 304.4 332.144 294C331.944 283.4 331.744 274 331.544 265.8C331.344 257.4 331.144 250.1 330.944 243.9L375.644 244.2C375.644 250.8 375.544 257.2 375.344 263.4C375.344 269.4 375.244 275.6 375.044 282C375.044 288.4 374.944 295.4 374.744 303C374.744 310.6 374.744 319.4 374.744 329.4C374.944 346.4 375.044 360.9 375.044 372.9C375.044 384.7 375.044 392.9 375.044 397.5C375.044 403.9 374.144 410.7 372.344 417.9C370.744 425.1 367.744 431.8 363.344 438C359.144 444.2 353.244 449.3 345.644 453.3C338.044 457.1 328.444 459 316.844 459ZM421.868 398.4V365.1C429.868 366.1 436.768 365.5 442.568 363.3C448.368 361.1 453.168 357.7 456.968 353.1C460.968 348.5 463.868 343 465.668 336.6C467.668 330 468.668 323 468.668 315.6C468.668 305.6 467.768 297.5 465.968 291.3C464.368 285.1 461.668 280.6 457.868 277.8C454.268 274.8 449.468 273.3 443.468 273.3C439.668 273.3 434.868 273.6 429.068 274.2C423.468 274.6 417.868 275.3 412.268 276.3L393.668 242.4C398.268 242 402.968 241.7 407.768 241.5C412.568 241.1 417.268 240.9 421.868 240.9C426.468 240.7 430.668 240.6 434.468 240.6C451.668 240.6 465.968 242.8 477.368 247.2C488.768 251.4 497.368 258.9 503.168 269.7C508.968 280.5 511.868 295.5 511.868 314.7C511.868 329.1 509.668 341.6 505.268 352.2C501.068 362.6 494.968 371.2 486.968 378C479.168 384.8 469.768 389.9 458.768 393.3C447.768 396.7 435.468 398.4 421.868 398.4ZM394.868 457.5C395.068 449.5 395.268 439.5 395.468 427.5C395.668 415.5 395.768 402.8 395.768 389.4C395.968 375.8 396.068 362.8 396.068 350.4C396.068 337.8 395.868 324.8 395.468 311.4C395.268 297.8 394.968 284.9 394.568 272.7C394.368 260.5 394.068 250.4 393.668 242.4L438.368 245.4C438.168 250.4 437.968 256.1 437.768 262.5C437.568 268.9 437.368 275.8 437.168 283.2C437.168 290.6 437.168 298.2 437.168 306C437.368 313.6 437.468 321.2 437.468 328.8C437.468 336.2 437.568 343.2 437.768 349.8C437.768 356.2 437.768 363.8 437.768 372.6C437.968 381.4 438.068 390.7 438.068 400.5C438.268 410.3 438.368 419.9 438.368 429.3C438.568 438.5 438.668 446.9 438.668 454.5L394.868 457.5ZM479.468 457.8C476.268 448.6 472.868 439.5 469.268 430.5C465.868 421.3 462.168 412 458.168 402.6C454.168 393.2 449.968 383.6 445.568 373.8L485.768 364.5C489.768 374.3 493.968 384.3 498.368 394.5C502.768 404.5 507.468 414.7 512.468 425.1C517.668 435.3 523.268 445.9 529.268 456.9L479.468 457.8ZM520.753 354C520.753 347.4 520.853 341 521.053 334.8C521.453 328.6 521.953 322.6 522.553 316.8C523.153 311 523.953 305.5 524.953 300.3C526.153 294.9 527.553 289.8 529.153 285C533.553 271.8 540.053 261.3 548.653 253.5C557.453 245.7 569.453 241.8 584.653 241.8C598.053 241.8 608.553 244.3 616.153 249.3C623.753 254.1 629.153 261.1 632.353 270.3C635.553 279.3 637.153 290.1 637.153 302.7C637.153 308.7 636.853 315.1 636.253 321.9C635.653 328.5 634.853 335.5 633.853 342.9L591.853 342.6C592.653 334.4 593.353 326.9 593.953 320.1C594.553 313.1 594.853 306.8 594.853 301.2C594.853 295.8 594.453 291.2 593.653 287.4C593.053 283.6 591.853 280.7 590.053 278.7C588.453 276.7 585.953 275.7 582.553 275.7C578.353 275.7 575.053 277.8 572.653 282C570.253 286 568.553 291.5 567.553 298.5C566.953 301.7 566.453 305.2 566.053 309C565.853 312.6 565.653 316.5 565.453 320.7C565.453 324.7 565.453 329 565.453 333.6C565.453 338.2 565.453 342.9 565.453 347.7C565.453 354.7 565.453 361.3 565.453 367.5C565.653 373.7 565.853 379.5 566.053 384.9C566.253 390.1 566.653 394.9 567.253 399.3C568.253 406.9 570.053 412.9 572.653 417.3C575.453 421.5 579.553 423.6 584.953 423.6C588.753 423.6 591.853 423 594.253 421.8C596.853 420.4 598.753 418.4 599.953 415.8C601.353 413.2 602.053 409.8 602.053 405.6C602.053 404.6 601.953 403.5 601.753 402.3C601.753 401.1 601.653 399.8 601.453 398.4L584.353 399V369.6L637.153 370.2L637.753 456H618.253L613.753 443.4C610.553 447.8 606.153 451.4 600.553 454.2C595.153 457 587.553 458.4 577.753 458.4C568.153 458.4 560.053 456.8 553.453 453.6C546.853 450.2 541.453 445.5 537.253 439.5C533.053 433.3 529.753 426.1 527.353 417.9C525.753 411.9 524.453 405.5 523.453 398.7C522.453 391.9 521.753 384.8 521.353 377.4C520.953 369.8 520.753 362 520.753 354ZM711.766 459C701.166 459 692.166 457.5 684.766 454.5C677.566 451.3 671.666 447 667.066 441.6C662.666 436 659.366 429.5 657.166 422.1C655.166 414.7 654.166 406.7 654.166 398.1C654.166 391.1 654.166 383.4 654.166 375C654.366 366.4 654.466 357.9 654.466 349.5C654.466 340.9 654.466 333.2 654.466 326.4C654.466 317.4 654.466 308.6 654.466 300C654.466 291.4 654.366 282.8 654.166 274.2C654.166 265.4 653.966 256.4 653.566 247.2L697.966 252C697.766 260.8 697.566 269.8 697.366 279C697.166 288 696.966 296.8 696.766 305.4C696.766 313.8 696.666 321.4 696.466 328.2C696.466 334 696.366 339.4 696.166 344.4C696.166 349.4 696.166 354.1 696.166 358.5C696.166 362.9 696.166 366.9 696.166 370.5C696.166 374.1 696.166 377.4 696.166 380.4C696.166 390 696.566 397.9 697.366 404.1C698.166 410.3 699.766 414.9 702.166 417.9C704.566 420.9 708.066 422.4 712.666 422.4C716.266 422.4 719.066 421.4 721.066 419.4C723.066 417.2 724.466 414.3 725.266 410.7C726.266 407.1 726.866 403 727.066 398.4C727.266 393.8 727.366 389.1 727.366 384.3C727.366 382.3 727.366 379.3 727.366 375.3C727.566 371.3 727.666 365.6 727.666 358.2C727.666 350.8 727.666 341 727.666 328.8C727.666 316 727.466 304.4 727.066 294C726.866 283.4 726.666 274 726.466 265.8C726.266 257.4 726.066 250.1 725.866 243.9L770.566 239.1C770.566 247.9 770.466 256.8 770.266 265.8C770.066 274.6 769.866 284.1 769.666 294.3C769.666 304.5 769.666 316.2 769.666 329.4C769.866 346.4 769.966 360.9 769.966 372.9C769.966 384.7 769.966 392.9 769.966 397.5C769.966 403.9 769.066 410.7 767.266 417.9C765.666 425.1 762.666 431.8 758.266 438C754.066 444.2 748.166 449.3 740.566 453.3C732.966 457.1 723.366 459 711.766 459ZM790.989 456.3C790.989 456.3 790.989 454.4 790.989 450.6C791.189 446.8 791.289 441.5 791.289 434.7C791.489 427.9 791.589 420.2 791.589 411.6C791.789 402.8 791.889 393.5 791.889 383.7C792.089 373.7 792.189 363.6 792.189 353.4C792.189 340.6 792.089 327.8 791.889 315C791.689 302.2 791.389 290.6 790.989 280.2C790.589 269.6 790.289 261.2 790.089 255C789.889 248.6 789.789 245.4 789.789 245.4L834.789 249.6C834.789 249.6 834.689 252.1 834.489 257.1C834.489 261.9 834.489 268.3 834.489 276.3C834.489 284.1 834.389 292.7 834.189 302.1C834.189 311.5 834.089 320.7 833.889 329.7C833.889 338.7 833.889 346.7 833.889 353.7C833.889 360.7 833.889 368.7 833.889 377.7C834.089 386.7 834.189 395.7 834.189 404.7C834.189 413.7 834.189 422 834.189 429.6C834.389 437.2 834.489 443.4 834.489 448.2C834.689 452.8 834.789 455.1 834.789 455.1L790.989 456.3ZM790.989 456.3L811.389 426L891.789 427.5L892.089 456L790.989 456.3ZM810.189 402V367.2L891.189 368.1L890.589 400.8L810.189 402ZM807.489 278.7L789.789 245.4L888.489 248.1V278.4L807.489 278.7ZM934.563 398.4V365.1C942.563 366.1 949.463 365.5 955.263 363.3C961.063 361.1 965.863 357.7 969.663 353.1C973.663 348.5 976.563 343 978.363 336.6C980.363 330 981.363 323 981.363 315.6C981.363 305.6 980.463 297.5 978.663 291.3C977.063 285.1 974.363 280.6 970.563 277.8C966.963 274.8 962.163 273.3 956.163 273.3C952.363 273.3 947.563 273.6 941.763 274.2C936.163 274.6 930.563 275.3 924.963 276.3L906.363 242.4C910.963 242 915.663 241.7 920.463 241.5C925.263 241.1 929.963 240.9 934.563 240.9C939.163 240.7 943.363 240.6 947.163 240.6C964.363 240.6 978.663 242.8 990.063 247.2C1001.46 251.4 1010.06 258.9 1015.86 269.7C1021.66 280.5 1024.56 295.5 1024.56 314.7C1024.56 329.1 1022.36 341.6 1017.96 352.2C1013.76 362.6 1007.66 371.2 999.663 378C991.863 384.8 982.463 389.9 971.463 393.3C960.463 396.7 948.163 398.4 934.563 398.4ZM907.563 457.5C907.763 449.5 907.963 439.5 908.163 427.5C908.363 415.5 908.463 402.8 908.463 389.4C908.663 375.8 908.763 362.8 908.763 350.4C908.763 337.8 908.563 324.8 908.163 311.4C907.963 297.8 907.663 284.9 907.263 272.7C907.063 260.5 906.763 250.4 906.363 242.4L951.063 245.4C950.863 250.4 950.663 256.1 950.463 262.5C950.263 268.9 950.063 275.8 949.863 283.2C949.863 290.6 949.863 298.2 949.863 306C950.063 313.6 950.163 321.2 950.163 328.8C950.163 336.2 950.263 343.2 950.463 349.8C950.463 356.2 950.463 363.8 950.463 372.6C950.663 381.4 950.763 390.7 950.763 400.5C950.963 410.3 951.063 419.9 951.063 429.3C951.263 438.5 951.363 446.9 951.363 454.5L907.563 457.5ZM992.163 457.8C988.963 448.6 985.563 439.5 981.963 430.5C978.563 421.3 974.863 412 970.863 402.6C966.863 393.2 962.663 383.6 958.263 373.8L998.463 364.5C1002.46 374.3 1006.66 384.3 1011.06 394.5C1015.46 404.5 1020.16 414.7 1025.16 425.1C1030.36 435.3 1035.96 445.9 1041.96 456.9L992.163 457.8Z" fill="white"/>
</svg>
