<svg width="26" height="26" viewBox="0 0 26 26" fill="none" xmlns="http://www.w3.org/2000/svg">
<path d="M16.0725 15.1484L18.9475 16.5834C18.8112 17.2644 18.4429 17.877 17.9054 18.3167C17.3679 18.7564 16.6945 18.996 16 18.9947C13.6139 18.992 11.3262 18.043 9.63896 16.3557C7.95171 14.6685 7.00265 12.3808 7 9.99467C6.99981 9.30107 7.23995 8.62883 7.67958 8.09235C8.1192 7.55586 8.73114 7.18829 9.41125 7.05217L10.8462 9.92717L9.625 11.7447C9.53374 11.8816 9.47767 12.0389 9.46175 12.2026C9.44583 12.3664 9.47056 12.5315 9.53375 12.6834C10.2492 14.3839 11.602 15.7367 13.3025 16.4522C13.4549 16.5182 13.6213 16.5452 13.7867 16.5308C13.9521 16.5164 14.1113 16.461 14.25 16.3697L16.0725 15.1484ZM26 12.9947C26.0005 15.2391 25.4199 17.4454 24.3147 19.3989C23.2095 21.3523 21.6174 22.9864 19.6934 24.142C17.7693 25.2975 15.5788 25.9353 13.3352 25.9932C11.0915 26.0511 8.87107 25.527 6.89 24.4722L2.63375 25.8909C2.28136 26.0084 1.9032 26.0255 1.54166 25.9402C1.18012 25.8548 0.849484 25.6705 0.586814 25.4079C0.324144 25.1452 0.139818 24.8145 0.0544969 24.453C-0.0308244 24.0915 -0.0137696 23.7133 0.10375 23.3609L1.5225 19.1047C0.595185 17.3612 0.0772463 15.4294 0.00799667 13.4559C-0.061253 11.4824 0.320007 9.51901 1.12284 7.71484C1.92567 5.91066 3.12897 4.3131 4.6414 3.04341C6.15383 1.77371 7.93564 0.865264 9.85158 0.387012C11.7675 -0.0912406 13.7672 -0.126724 15.699 0.283253C17.6307 0.693231 19.4436 1.53789 21.0001 2.75313C22.5566 3.96837 23.8158 5.52223 24.6822 7.29679C25.5485 9.07134 25.9992 11.0199 26 12.9947ZM21 15.9947C21.0001 15.8089 20.9485 15.6267 20.8509 15.4687C20.7533 15.3106 20.6136 15.1828 20.4475 15.0997L16.4475 13.0997C16.29 13.0212 16.1147 12.9857 15.9391 12.9966C15.7635 13.0076 15.594 13.0647 15.4475 13.1622L13.6112 14.3872C12.7683 13.9238 12.0746 13.2301 11.6112 12.3872L12.8363 10.5509C12.9337 10.4045 12.9908 10.2349 13.0018 10.0593C13.0127 9.88373 12.9772 9.70837 12.8988 9.55092L10.8988 5.55092C10.8159 5.38351 10.6877 5.24266 10.5289 5.14435C10.37 5.04604 10.1868 4.99418 10 4.99467C8.67392 4.99467 7.40215 5.52145 6.46447 6.45913C5.52678 7.39682 5 8.66859 5 9.99467C5.00331 12.911 6.1633 15.707 8.22548 17.7692C10.2877 19.8314 13.0836 20.9914 16 20.9947C16.6566 20.9947 17.3068 20.8653 17.9134 20.6141C18.52 20.3628 19.0712 19.9945 19.5355 19.5302C19.9998 19.0659 20.3681 18.5147 20.6194 17.9081C20.8707 17.3015 21 16.6513 21 15.9947Z" fill="#FFF8E4"/>
</svg>
